<?xml version="1.0" encoding="utf-8"?>
<!-- Generator: Adobe Illustrator 22.0.0, SVG Export Plug-In . SVG Version: 6.00 Build 0)  -->
<svg version="1.1" id="Layer_1" xmlns="http://www.w3.org/2000/svg" xmlns:xlink="http://www.w3.org/1999/xlink" x="0px" y="0px"
	 viewBox="0 0 841.9 595.3" style="enable-background:new 0 0 841.9 595.3;" xml:space="preserve">
<style type="text/css">
	.st0{fill:#FFFFFF;}
	.st1{fill:#1EEDCD;}
</style>
<g>
	<line class="st0" x1="526.6" y1="286.9" x2="528.4" y2="286.9"/>
	<path class="st0" d="M96.6,280.6c0-21.6,16-39,38.6-39c22.4,0,37.3,16.7,37.3,40.9v4.6h-55.4c1.4,9.1,8.8,16.7,21.4,16.7
		c6.3,0,15-2.6,19.7-7.2l8.8,13c-7.4,6.8-19.1,10.3-30.7,10.3C113.8,319.8,96.6,304.5,96.6,280.6z M135.2,257.6
		c-12.2,0-17.4,8.5-18.2,15.9h36.7C153.1,266.4,148.1,257.6,135.2,257.6z"/>
	<path class="st0" d="M228.3,317.9l-17-25.1l-17.1,25.1h-21.7l26.5-38.2l-25-36.2H196l15.4,22.8l15.3-22.8h21.9l-24.8,36.2
		l26.5,38.2H228.3z"/>
	<path class="st0" d="M420.5,243.4v-20.4h19.6v20.4h15.1v17.1h-15.1V294c0,4.8,2.5,8.3,6.8,8.3c2.9,0,5.7-1.1,6.8-2.3l4.2,15
		c-2.9,2.6-8.2,4.8-16.3,4.8c-13.7,0-21-7.1-21-20.5v-38.7V243.4z"/>
	<path class="st0" d="M464.1,308.2l8.5-14.2c5.6,5.2,16.5,10.3,25.8,10.3c8.5,0,12.5-3.2,12.5-7.9c0-12.2-44.1-2.2-44.1-31.5
		c0-12.5,10.8-23.4,30.5-23.4c12.5,0,22.5,4.3,29.9,10.2l-7.9,13.9c-4.5-4.6-13-8.6-22.1-8.6c-7.1,0-11.7,3.1-11.7,7.2
		c0,10.9,44.3,1.7,44.3,31.8c0,13.7-11.7,23.7-32.4,23.7C484.4,319.8,471.9,315.4,464.1,308.2z"/>
	<path class="st0" d="M607.6,280.6c0-22.8,16.7-39,39.5-39c15.3,0,24.5,6.6,29.5,13.4l-12.8,12c-3.5-5.2-8.9-8-15.7-8
		c-11.9,0-20.2,8.6-20.2,21.6s8.3,21.7,20.2,21.7c6.8,0,12.2-3.1,15.7-8.2l12.8,12c-4.9,6.8-14.2,13.6-29.5,13.6
		C624.2,319.8,607.6,303.6,607.6,280.6z"/>
	<path class="st0" d="M685.8,317.9v-14.7l33.6-42.7h-33.6v-17.1h60.3v14l-34.2,43.3h34.9v17.1H685.8z"/>
	<path class="st1" d="M572.6,365.8c-21,0-40.4-12.2-49.6-31.1c-1-2.2-1.2-4.6-0.4-6.9c0.8-2.3,2.4-4.1,4.6-5.1
		c1.2-0.6,2.6-0.9,3.9-0.9c3.5,0,6.6,1.9,8.1,5.1c6.3,12.9,19.1,20.9,33.4,20.9c14.3,0,27.1-8,33.4-20.9c1.5-3.1,4.7-5.1,8.1-5.1
		c1.4,0,2.7,0.3,3.9,0.9c4.5,2.2,6.3,7.6,4.2,12C613,353.6,593.5,365.8,572.6,365.8z"/>
	<path class="st0" d="M276.7,309v29.7H257v-95.3h19.8v9.5c5.8-7.3,14-11.4,23.2-11.4c19.3,0,33.3,14.3,33.3,39.4
		c0,25.1-14,39.5-33.3,39.5C291,320.5,283,316.8,276.7,309z M312.8,281c0-12.9-7.8-21.8-19.1-21.8c-0.3,0-0.6,0-1,0
		c-9.1,0.5-16,8.3-16,17.3v9c0,8.8,6.6,16.4,15.3,17.3c0.5,0.1,1.1,0.1,1.6,0.1C305.1,302.9,312.8,294,312.8,281z"/>
	<path class="st0" d="M377.3,241.6c-12,0-23.9,3.5-33.2,11.7L352,267c6.3-5.7,13.9-8.8,21.9-8.8c10.1,0,16.7,4.9,16.7,12.5v9.4
		c-5-5.9-13.9-9.1-24.1-9.1c-12.1,0-26.3,6.5-26.3,24.1c0,16.7,14.2,24.7,26.3,24.7c9.9,0,18.9-3.5,24.1-9.7v7.9h20.2v-48.1
		C410.7,248.4,394.8,241.6,377.3,241.6z M384.7,304.5c-3,1.3-6.6,2-10.2,2c-7.9,0-14.3-4-14.3-11.1c0-7.1,6.5-11.3,14.3-11.3
		c3.7,0,7.3,0.7,10.3,2.2c3.5,1.7,5.8,5.2,5.8,9.1C390.5,299.3,388.3,302.9,384.7,304.5z"/>
</g>
</svg>
