<svg xmlns="http://www.w3.org/2000/svg" xml:space="preserve" style="shape-rendering:geometricPrecision;text-rendering:geometricPrecision;image-rendering:optimizeQuality;fill-rule:evenodd;clip-rule:evenodd" viewBox="0 0 251 66.05">
  <defs/>
  <g id="Layer_x0020_1">
    <g id="_2068725134480">
      <path d="M146.56 62.25c-1.61 0-2.27.14-3.62-.18l-.25-8.76c-.31-2.53-.11-24.97-.11-28.63 1.43-.33 2.48-.91 4.34-.91 6.88 0 9.57 9.67 9.57 15.54 0 6.13-.04 10.3-2.42 16-1.16 2.79-3.79 6.94-7.51 6.94zM123.43 4.26c0 3.01.71.75 3.68 2.47 2.97 1.71 2.65 9.09 2.65 12.53v28c0 5.39-.26 10.22-.2 15.56.01 1.05-.07.93.85 1.12.5.11 1 .22 1.65.35 1.02.2 2.17.39 3.37.6 5.99 1 6.92.8 12.75.8 5.18 0 11.12-2.5 14.77-6.01l.75-.7c8.26-8.61 8.81-25.43 2.05-33.62l-1.87-2.11c-3.06-2.96-6.71-4.3-11.01-4.53-3.21-.17-7.49 1.23-10.29 2.71l.18-15.9V2.81c0-1.12.18-1.39.18-2.52-1.68 0-3.31.52-4.98.8l-12.34 2.28c-.42.09-.7.13-1.22.23-.59.12-.97.06-.97.66zM.05 4.26c2.15 0 5.4.52 6.69 2.35 1.1 1.55 1.92 4.45 1.98 7.05.09 3.39.55 9.62.54 13v9.58c0 1.85-.18 3-.18 4.88 0 3.38-.1 6.65-.35 9.76-.28 3.42-.19 9.36-4.79 10.39C-.53 62.28.05 61.05.05 64.6h32.7v-2.53c-6.37-1.48-8.99.34-9.39-13.37-.03-.91-.18-1-.2-1.98l-.17-11.75h2.71c1.2 0 1.56.19 2.7.19 3.53 0 5.61.51 7.23 4.15.44.97 1.24 3.21 1.27 4.52h2.71v-21.5c-3.22 0-2.53-.29-3.07 1.99-.21.89-.4 1.46-.69 2.19-.54 1.34-1.31 2.63-2.48 3.49-1.18.87-2.62 1.2-4.6 1.18-2.09-.01-3.6.18-5.78.18l.18-14.81c0-1.99.19-3.41.18-5.24 0-1.98.18-3.45.18-5.24h10.48c4.21 0 7.63 2.18 9.5 4.59.56.72.94 1.21 1.42 2.01l3.35 7.49c.57-.13.93-.29 1.52-.47 1.29-.4 1.37-.03 1.37-1.34 0-2.82.22-6.21-.13-8.72-.16-1.15-.05-3.04-.05-4.28 0-1.71.35-3.98-.54-3.98H.05v2.89z" class="fil0"/>
      <path d="M58.4 42.02c0-5.48.39-20.59 7.77-20.59 1.86 0 2.75.33 4.02 1.58l.66.6c.63.6 1.1 1.43 1.52 2.27 2.86 5.6 2.83 12.41 2.83 18.85 0 5.37-.71 17.88-8.13 17.88-7.49 0-8.67-15.24-8.67-20.59zm-13.73 0c0 9.2 3.53 17.52 10.84 21.32 4.97 2.59 7.78 2.35 13.19 2.35 3.96 0 8.56-1.95 11.53-4.18 1.43-1.07 2.89-2.41 3.9-3.88 4.41-6.42 4.8-9.95 4.8-17.78 0-4.62-1.51-8.95-3.67-12.59-.72-1.21-1.47-2.02-2.35-3.07-.51-.62-.86-.78-1.43-1.28-6.2-5.41-16.78-6-23.87-2.81-2.01.9-4.41 2.39-5.97 3.96-.03.03-.06.07-.09.09-4.59 4.82-6.88 10.74-6.88 17.87zM200.75 34.43v1.81l-13.36.18c0-3.11.94-7.05 1.85-9.34 3.42-8.59 10.17-7.4 11.14 3.21l.37 4.14zm-26.91 7.95c0 5.78 1.94 11.86 5.47 16.03.86 1.01 1.74 1.79 2.78 2.64 2.94 2.37 7.92 4.64 11.62 4.64 5.43 0 8.71.06 13.54-2.72 2.39-1.38 4.82-3.34 6.33-5.59-.32-.61-.71-1.07-1.08-1.63-.48.13-1.45.81-1.96 1.12-4.81 2.9-11.43 2.85-15.99.03-.43-.27-.76-.53-1.15-.84-2.26-1.86-3.85-4.15-4.82-7.1-1.12-3.39-1.19-5.36-1.19-8.93h26.73c0-11.46-4.78-21.86-18.06-21.86-6.16 0-10.44 1.87-14.76 5.48-.96.8-3.15 3.62-3.84 4.83-2.34 4.03-3.62 9.16-3.62 13.9zM217.74 32.26c0 4 .56 5.92 2.78 8.78 4.3 5.54 18.17 6.12 18.17 12.72 0 1.62.07 2.45-.67 4.03-.79 1.69-3.27 3.56-5.65 3.56-4.32 0-6.46-.9-9.26-4.29-2.53-3.07-3.05-5.98-4.11-7.99-.6.28-1.5.4-2.17.72l.18 10.12c-.01 1.37.18 1.95.18 3.25.77.18 1.83.66 2.69.92 5.86 1.82 15.19 2.46 21.05.41 5.45-1.91 10.05-6.84 10.05-12.53 0-4.29.13-6.8-3.3-10.26-5.36-5.4-18.2-5.93-18.2-13.59 0-3.35 2.46-6.32 5.24-6.32 3.77 0 5.88.59 8.44 4.02 1.25 1.68 2.03 3.45 2.74 5.39.21.58.5 1.46.74 1.97.69-.33 1.48-.4 2.17-.72l-.36-11.93c-1.72-.4-2.54-1.07-6.04-1.73-4.21-.79-9.91-.97-13.95.35-2.63.86-3.13 1.24-5.27 2.68-2.67 1.8-5.45 6-5.45 10.44zM108.44 27.93c0-3.47.18-6.43.18-9.76-6.09 1.42-13.25 2.52-19.51 3.98v1.99c2.72 0 4.89.65 5.67 3.36.81 2.82.91 20.99.5 24.66-.33 2.97.48 6.55-1.97 8.7-1.1.97-2.61.84-4.2 1.21v2.53h26.92v-2.53c-1.56-.36-3.65-.12-5.01-.77-1.43-.69-1.97-1.97-2.21-3.75l-.73-16.43c0-2.17.18-3.65.18-5.78 0-2.68-.49-3.56 1.38-4.58 4.52-2.46 8.42-.84 12.17 1.14l4.7-12.46c-4.52-3.02-9.82-.97-13.54 2.18l-.2.16c-2.25 1.96-3.93 5.69-4.33 6.15z" class="fil0"/>
    </g>
  </g>
</svg>