<svg xmlns="http://www.w3.org/2000/svg" xml:space="preserve" style="shape-rendering:geometricPrecision;text-rendering:geometricPrecision;image-rendering:optimizeQuality;fill-rule:evenodd;clip-rule:evenodd" viewBox="0 0 250 452.13">
  <path d="M42.5 245.62h.27v-1.38h.28v-.82h.27v-.55h.28v-.28h.28v-.55h.27v-.27h.28v-.28h.27v-.28h.55v-.27h.28v-.28h.55v-.27h.83v-.28h3.58v.28h.82v.27h.55v.28h.56v.27h.27v.28h.28v.28h.27v.27h.28v.28h.27v.27h.28v.28h.27v.55h.28v.55h.27v1.38h.28v138h-.28v.83h-.27v.83h-.28v.55h-.27v.55h-.28v.27h-.27v.28h-.28v.27h-.27v.28h-.28v.28h-.27v.27h-.28v.28h-.55v.27h-.55v.28h-1.38v.27h-1.65v-.27h-1.38v-.28h-.55v-.27h-.55v-.28h-.28v-.27h-.27v-.28h-.55v-.28h-.28v-.55h-.27v-.27h-.28v-.55h-.28v-.55h-.27v-.55h-.28v-1.38h-.27V245.62zM159.02 383.9h-.28v1.11h-.27v.55h-.28v.55h-.27v.27h-.28v.28h-.27v.27h-.28v.28h-.27v.28h-.28v.27h-.55v.28h-.28v.27h-.55v.28h-1.1v.27h-2.2v-.27h-.83v-.28h-.55v-.27h-.55v-.28h-.55v-.27h-.28v-.28h-.55v-.28h-.27v-.27H148v-.55h-.27v-.28h-.28v-.55h-.28v-.55h-.27v-.55h-.28V244.8h.28v-.28h.27v-.83h.28v-.82h.28v-.28h.27v-.27h.28v-.55h.27v-.28h.28v-.28h.55v-.27h.27v-.28h.56v-.27h1.1v-.28h3.58v.28h.55v.27h.55v.28h.55v.27h.28v.28h.27v.28h.28v.27h.27v.28h.28v.27h.27v.55h.28v.55h.27v.55h.28v1.66h.28v136.9h-.28v1.1zm-52.06.28h-.28v1.1h-.27v.55h-.28v.28h-.27v.27h-.28v.28h-.28v.27h-.27v.28h-.28v.28h-.27v.27h-.55v.28h-.55v.27h-.55v.28H102v.27h-1.93v-.27h-1.1v-.28h-.55v-.27h-.55v-.28h-.55v-.27h-.28v-.28h-.55v-.28h-.28v-.55h-.27v-.27h-.28v-.28h-.27v-.82h-.28v-.55h-.27v-.56h-.28V245.35h.28v-.83h.27v-.83h.28v-.55h.27v-.55h.28v-.27h.27v-.28h.28v-.27h.28v-.28h.27v-.28h.28v-.27h.55v-.28h.27v-.27h.83v-.28h3.86v.28h.55v.27h.55v.28h.55v.27h.27v.28h.28v.28h.27v.27h.28v.28h.28v.27h.27v.55h.28v.55h.27v.83h.28v1.1h.27V382.8h-.27v1.38zm105.78-48.21h-.28v1.11h-.28v1.1h-.27v1.1h-.28v.55h-.27v1.1h-.28v.55h-.27v.55h-.28v.56h-.27v.55h-.28v.55h-.27v.27h-.28v.55h-.28v.55h-.27v.28h-.28v.28h-.27v.55h-.28v.27h-.27v.28h-.28v.27h-.27v.28h-.28v.27h-.27v.28h-.28v.27h-.28v.28h-.27v.28h-.28v.27h-.27v.28h-.28v.27h-.27v.28h-.28v.27h-.55v.28h-.27v.27h-.28v.28h-.55v.27h-.28v.28h-.55v.28h-.27v.27h-.55v.28h-.55v.27h-.56v.28h-.55v.27h-.82v-98.06h.27v.27h.55v.28h.55v.27h.56v.28h.55v.27h.27v.28h.55v.28h.55v.27h.28v.28h.27v.27h.56v.28h.27v.27h.28v.28h.27v.27h.55v.28h.28v.27h.27v.28h.28v.28h.27v.27h.28v.28h.28v.27h.27v.28h.28v.27h.27v.28h.28v.55h.27v.27h.28v.28h.27v.28h.28v.55h.27v.27h.28v.55h.28v.55h.27v.28h.28v.55h.27v.55h.28v.55h.27v.55h.28v1.11h.27v.55h.28v.82h.27v1.1h.28v2.21h.28v.55h.27v60.05h-.27v2.2zM150.21 190.8h-33.06v.28H40.02v.28H3.11v190.62h.27v1.37h.28v3.86h.27v2.48h.28v1.65h.27v1.93h.28v1.38h.28v1.38h.27v.82h.28v1.65h.27v.83h.28v1.38h.27v1.1h.28v.83h.27v.82h.28v1.1h.27v.56h.28v.82h.28v1.1h.27v.55h.28v.56h.27v1.1h.28v.55h.27v.82h.28v.83h.27v.28h.28v.55h.27v.82h.28v.56h.28v.82h.27v.55h.28v.55h.27v.55h.28v.56h.27v.55h.28v.55h.27v.55h.28v.55h.27v.55h.28v.28h.28v.55h.27v.55h.28v.55h.27v.27h.28v.55h.27v.56h.28v.27h.27v.55h.28v.55h.27v.28h.28v.55h.28v.27h.27v.56h.28v.27h.27v.55h.28v.28h.27v.55h.28v.27h.27v.28h.28v.55h.27v.28h.28v.55h.28v.27h.27v.28h.28v.55h.27v.27h.28v.28h.27v.55h.28v.28h.27v.27h.28v.28h.28v.27h.27v.55h.28v.28h.27v.27h.28v.28h.27v.55h.28v.28h.27v.27h.28v.28h.27v.27h.28v.28h.28v.27h.27v.28h.28v.55h.27v.28h.28v.27h.27v.28h.28v.27h.27v.28h.28v.27h.27v.28h.28v.27h.28v.28H29v.27h.28v.28h.27v.28h.28v.27h.27v.28h.28v.27h.27v.28h.28v.27h.27v.28h.28v.27h.28v.28h.27v.27h.28v.28h.27v.28h.55v.27h.28v.28h.27v.27h.28v.28h.27v.27h.28v.28h.28v.27h.27v.28h.55v.27h.28v.28h.27v.28h.28v.27h.27v.28h.55v.27h.28v.28h.28v.27h.27v.28h.55v.27h.55v.28h.55v.27h1.38v.28h119.55v-.28h1.1v-.27h.83v-.28h.55v-.27h.55v-.28h.28v-.27h.27v-.28h.55v-.27h.28v-.28h.28v-.27h.27v-.28h.28v-.28h.55v-.27h.27v-.28h.28v-.27h.27v-.28h.28v-.27h.28v-.28h.27v-.27h.28v-.28h.55v-.27h.27v-.28h.28v-.28h.27v-.27h.28v-.28h.27v-.27h.28v-.28h.27v-.27h.28v-.28h.28v-.27h.27v-.28h.28v-.27h.27v-.28h.28v-.28h.27v-.27h.28v-.28h.27V439h.28v-.28h.28v-.27h.27v-.28h.28v-.27h.27v-.28h.28v-.27h.27v-.28h.28v-.28h.27v-.55h.28v-.27h.27v-.28h.28v-.27h.28v-.28h.27v-.27h.28v-.28h.27v-.55h.28v-.28h.27v-.27h.28v-.28h.27v-.55h.28v-.27h.27v-.28h.28v-.27h.28v-.56h.27v-.27h.28v-.28h.27v-.55h.28v-.27h.27v-.28h.28v-.55h.27v-.27h.28v-.28h.27v-.55h.28v-.28h.28v-.55h.27v-.27h.28v-.55h.27v-.28h.28v-.55h.27v-.28h.28v-.55h.27v-.27h.28v-.55h.27v-.55h.28v-.28h.28v-.55h.27v-.55h.28v-.28h.27v-.55h.28v-.55h.27v-.55h.28v-.55h.27v-.55h.28v-.28h.27v-.82h.28v-.28h.28v-.55h.27v-.55h.28v-.55h.27v-.83h.28v-.55h.27v-.55h.28v-.55h.27v-.55h.28V412h.27v-.55h.28v-.83h.28v-.55h.27v-.82h.28v-.55h.27v-.83h.28v-.55h.27v-1.1h.28v-.83h.27v-.55h.28v-1.38h.27v-.82h.28v-.83h.28v-1.1h.27v-.55h.28v-1.38h.27v-1.1h.28v-1.1h.27v-.83h.28v-1.38h.27v-1.65h.28v-1.38h.28v-1.65h.27v-.55h.28v-.28h.27v-.27h.55v-.28h1.38v-.27h.83v-.28h1.37v-.27h1.11v-.28h1.1v-.28h1.1v-.27h.83v-.28h.55v-.27h1.1v-.28h.82v-.27h.56v-.28h1.1v-.27h.27v-.28h.83v-.27h.55v-.28h.83v-.28h.55v-.27h.55v-.28h.55v-.27h.55v-.28h.55v-.27h.55v-.28h.55v-.27h.28v-.28h.55v-.27h.55v-.28h.55v-.28h.55v-.27h.28v-.28h.55v-.27h.27v-.28h.55v-.27h.28v-.28h.55v-.27h.28v-.28h.55v-.27h.27v-.28h.55v-.28h.28v-.27h.28v-.28h.27v-.27h.55v-.28h.28v-.27h.27v-.28h.55v-.27h.28v-.28h.27v-.27h.28v-.28h.28v-.28h.27v-.27h.28v-.28h.55v-.27h.27v-.28h.28v-.27h.27v-.28h.28v-.27h.27v-.28h.28v-.27h.28v-.28h.27v-.28h.28v-.27h.27v-.28h.28v-.27h.27v-.28h.28v-.27h.27v-.28h.28v-.55h.27v-.27h.28v-.28h.28v-.28h.27v-.27h.28v-.55h.27v-.28h.28v-.27h.27v-.28h.28v-.55h.27v-.27h.28V366h.27v-.55h.28v-.28h.28v-.55h.27v-.27h.28v-.55h.27v-.28h.28v-.55h.27v-.28h.28v-.55h.27v-.27h.28v-.55h.27v-.55h.28v-.56h.28v-.27h.27v-.55h.28v-.55h.27v-.55h.28v-.55h.27v-.83h.28v-.28h.27v-.55h.28v-.55h.27v-.82h.28v-.56h.28v-.55h.27v-1.1h.28v-.55h.27v-.55h.28v-1.1h.27v-.55h.28v-.83h.27v-1.1h.28v-1.38h.28v-1.1h.27v-1.1h.28v-1.38h.27v-1.1h.28v-1.93h.27v-3.03h.28v-2.2h.27v-61.71h-.27v-1.37h-.28v-3.31h-.27v-1.38h-.28v-1.37h-.27v-1.38h-.28v-1.66h-.27v-.55h-.28v-1.37h-.28v-1.11h-.27v-.82h-.28v-.55h-.27v-1.1h-.28v-.56h-.27v-.55h-.28v-.82h-.27v-.83h-.28v-.55h-.28v-.55h-.27v-.83h-.28v-.55h-.27v-.55h-.28v-.55h-.27v-.55h-.28v-.55h-.27v-.55h-.28v-.55h-.27v-.28h-.28v-.55h-.28V247h-.27v-.28h-.28v-.55h-.27v-.55h-.28v-.27h-.27v-.55h-.28v-.28h-.27v-.55h-.28v-.28h-.27v-.55h-.28v-.27h-.28v-.28h-.27v-.55h-.28v-.27h-.27v-.56h-.28v-.27h-.27v-.28h-.28v-.27h-.27v-.28h-.28v-.55h-.27v-.27h-.28v-.28h-.28v-.27h-.27v-.28h-.28v-.28h-.27v-.27h-.28v-.55h-.27v-.28h-.28v-.27h-.27v-.28h-.28v-.27h-.27v-.28h-.28v-.27h-.28v-.28h-.27v-.28h-.28v-.27h-.27v-.28h-.28v-.27h-.27v-.28h-.55v-.27h-.28v-.28h-.27v-.27h-.28v-.28h-.28v-.28h-.27v-.27h-.55v-.28h-.28v-.27h-.27v-.28h-.28v-.27h-.55v-.28h-.27v-.27h-.28v-.28h-.55v-.27h-.28v-.28h-.27v-.28h-.55v-.27h-.28v-.28h-.55v-.27h-.28v-.28h-.55v-.27h-.27v-.28h-.55v-.27h-.55v-.28h-.28v-.27h-.55v-.28h-.55v-.28h-.28v-.27h-.55v-.28h-.55v-.27h-.55v-.28h-.55v-.27h-.55v-.28h-.55v-.27h-.55v-.28h-.55v-.27h-.83v-.28h-.55v-.28h-.83v-.27h-.27v-.28h-1.1v-.27h-.56v-.28h-.82v-.27h-1.1v-.28h-.55v-.27h-.83v-.28h-1.38v-.27h-1.1v-.28h-1.38v-.28h-.82v-.27h-.83V220h-.55v-.27h-.55v-.28h-.28v-.55h-.27v-28.37h-48.48v.27zm9.64-116.79h-.28v-1.93h.55v1.38h-.27v.55zm-21.21-58.13v.28h-.28v.83h-.28v.27h-.27v1.38h.27v1.93h-.27v1.1h-.28v1.1h-.27v.55h-.28v1.65h-.27v.83h-.28v1.38h-.27v.55h-.28v.55h-.27v.83h-.28v1.65h-.28v.55h-.27v.55h-.28v.55h-.27v.28h-.28v1.1h.28v.27h.27v.28h.28v.28h.27v.27h.28v.55h.28v5.79h-.28v.55h-.28v.27h-.27v.28h-.28v.27h-.27v.56h.27v.27h.28v.28h.27v.55h.28v.82h-.28v.55h-.27v.28h-.28v.55h-.27v.28h-.55v.27h-.28v.28h-.27v.27h-.28v.28h-.27v.27h-.28v.28h-.28v.55h-.27v.55h-.28v.28h-.27v.82h-.28v1.1h-.27V55h.27v.55h.28v.55h.27v.28h.28v.55h.27v1.65h-.27v1.1h.27v2.21h-.27v1.1h.27v2.75h-.27v.55h-.28v.28h-.27v.28h-.28v.27h-.27v.28h-.28v.27h-.27v.28h.27v.27h.28v.28h.27v.27h.28v.28h.27v.27h.28v.56h-1.1v.27h-.28v.28h-.55v.27h-.55v.28h-.28v.27h-.27v.28h-.28v.27h-.27v.28h-.28v.27h-.27v.56h-.28v.27h-.27v.55h-.28v.55h-.27v1.1h-.28v4.14h1.65v9.64h-3.3V73.73h-.28v-3.3h-.82v1.65h-.28v1.65h-.28v.55h-.55v-2.2h-.27v-.83h-.55v.83h-.55v-4.41h-.28v-1.1h-.27v-1.1h-.28v-3.31h-.28v-2.75h-.27v-.83h-.28v-1.93h-.27v-2.2h.27v-.55h-.27v-.28h-.28v-.27h-.27v-1.93h.27v-.55h-.27v-.55h-.28v-2.21h.28v-.27h-.28v-.28h-.27v-.55h-.28v-1.65h.28v-.83h-.28v-.27h-.28v-2.21h.28v-.55h-.28v-.27h-.27v-.28h-.28V39.3h.28v-.83h-.28v-.55h-.27v-1.93h.27v-.55h-.27v-.27h-.28v-.28h-.27v-1.93h.27v-.82h-.27v-.28h-.28v-1.93h.28v-.55h-.55v-2.75h1.1v-.83h-1.38v-1.38h.55v-.27h.55v-.28h-.55v-.27h-.27v-.83h-.28v-.55h-.55v.28h-.28v1.1h-.27v.27h-.55v.28h.55v.27h.55v1.38h-1.65v.83h1.37v2.48h-.27v.27h-.55v.28h.27v.55h.28v1.38h-.28v.55h-.27v3.03h-.28v.27h-.27v.55h.27v1.93h-.27v.55h-.28v.55h.28v1.93h-.28v.55h-.27v.83h.27v1.38h-.27v.55h-.28v.27h-.27v.83h.27v1.93h-.27v.27h-.28v.83h.28v1.65h-.28v.55h-.28v3.03h-.27v.28h-.28v.55h.28v1.93h-.28v.55h-.27v.55h.27v1.65h-.27v.83h-.28v.83h.28v1.65h-.28v.27h-.27v.55h-.28v.28h.28v2.2h-.28v.28h-.27v.83h.27v1.65h-.27v.55h-.28v.83h.28v1.65h-.28v.55h-.55v-.28h-.28v.28h-.27v.55h-.28v1.38h-.27v-1.66h-.28v-1.92h-.27v-.55h-.28v.27h-.27v1.93h-.28v18.73h-.27v.28h-.56v-.55h-.27v-1.38h-.28v-2.21h-.27v-1.37h.27v-.28h-.82v3.03h-.28v6.34h-.27v3.3h-.28v.28h-.27v.27h-.56v-.82H102v-1.66h-.28v-.27h-.55v2.48h-.27v3.03h-.28v4.13h-.27v3.86h-.28v1.65h-.28v-.28h-.55v.28h-.55v-.28h-.55v.28h-1.1v1.1h-.55v-1.65h-.55v1.93h-.28v-.28h-.27v-.83h-.55v.83h-.28v.28h-.27v-1.11h-.56v1.38h-.55v-1.93h-.27v-.27h-.28v1.65h-.27v.28h-.28v-.83h-.55v.28h-.27v.82h-.28v-.55h-.28v-.55h-.27v.83h-.28v.27h-.27v-.55h-.28v-.27h-.27v.27h-.28v.83h-.27v-1.1h-.55v.27h-.28v1.1h-.28v-1.1h-.27v-.27h-.28v.27h-.27v.83h-.28v-.28h-.27v-.55h-.28v.28h-.27v.82h-.28v-.82h-.27v-1.11h-.28v1.38h-.28v.55h-.27v-.82h-.28v-.28h-.27v.28h-.28v.82h-.27v-.55h-.28v-.27h-.27v.27h-.28v.55h-.55v-.82h-.28v.27h-.27v.83h-.28v-.55h-.27v-.55h-.55v1.37h-.28v-.27h-.27V97.15h-.28v-1.11h-.27v-.82h-.28v1.93h-.28v.55h-.27v-5.51h.27v-.28h.28v-.27h.28v-.28h-.28v-.27h-.28v-.28h-.27V85.3h-.28v-1.1h-.27v1.65h-.28v.83h-.27v-.28h-.28v-5.51h-.27v-1.65h-.28v-5.78h-.27v-2.21h-.28v-1.37h-.28v-3.03h-.27v-2.21H75v-3.3h-.27V57.2h-.28V55h-.27v-4.41h-.28v-.55h-.55v.28h-.27v4.13h-.28v1.65h-.28v5.24h-.27v2.47h-.28v2.21h-.27v5.23h-.28v1.38h-.27v4.13h-.28v2.48h-.27v4.68h-.28v2.76h-.55v-2.76h-.55v6.62h-.28v.55h-.27v.27h-.55v.55h.55v.28h.27v.27h.28v5.51h-.28v-.55h-.27v-1.38h-.28v-.55h-.27v1.11h-.28v1.65h-.27v15.15h-.56v-1.1h-.27v-.55h-.28v.55h-.27v1.37h-1.1v-1.37h-.28v-.55h-.27v.55h-.28v1.1h-.28v.27h-.55v-.55h-.27v-.55h-.28v-.27h-.55v1.37h-1.1v-1.37h-.28v-.55h-.55v1.92h-1.1v-1.37h-.27v-.55h-.28v.27h-.27v.83h-.28v.82h-.83v-1.37h-.27v-.55h-.55v1.37h-.28v.55h-.82v-.55h-.28v-.55h-.55v.55h-.28v.55h-.82v-.27h-.28v-1.65h-.55v.55h-.27v1.37h-.83v-.82h-.28v-1.1h-.55v.55h-.27v1.37h-.83v-1.1h-.27v-.82h-.56v.55h-.27v1.37h-.83v-.82h-.27v-1.1h-.83v1.65h-1.1v-1.65h-.55v.55h-.28v1.1h-.82v-.55h-.28v-.83h-.28v-.27h-.27v.55h-.28v1.37h-1.1v-1.92h-.82v1.92h-1.11v-1.92h-.27v-.28h-.28v.28h-.27v1.92h-.83v-.27h-.27v-1.1h-.28v-.83h-.28v1.1h-.27v.83h-.28v.27h-.82v-1.92h-.28v-.28h-.27v.28h-.28v1.65h-.27v.27h-.56v-.55h-.27v-.27h-.28v-.55h-.27v.27h-.28v.55h-.27v.28h-.28v.27h-.27v.28h-.28v.55h-.27v.55h-.28v1.1h-.28v.55h-.27v.56h-6.06v.27h-1.38v.83h-.27v.55h-.28v.55h-.27v.83h-.28v.55h-.28v.55h-.27v1.1h-.28v.27h-.27v.83h-.28v.83h-.27v.27h-.28v.55h-.27v1.11h-.28v.55h-.28v.27h-.27v1.1h-.28v.55h-.27v.56h-.28v.55h-.27v.82h-.28v.83h-.55v-.55h-.27v1.65h-.28v1.38h-.28v-.28h-.27v-.27h-.28v1.37h-.27v1.66h-.55v-.28h-.28v.83h-.27v.83h-.28v1.65h-.27v.55h-.28v1.1h-.28v.55h-.27v.55h-.28v.83h-.27v.55h-.28v.55h-.27v.83h-.55v-1.38h-.28v-3.31h-.27v-.27h-.28v1.65h-.28v3.03h-.82v-.27h-.55v-.28h-.28v-1.65h-.27v-3.03h-.28v-2.21h-.27v3.03h-.28v1.66h-.28v2.48h-.27v.27h-.28v.28h-.55v-3.58h-.27v-3.58h-.55v.27h-.28v.55h.28v2.76h-.28v3.03h-.27v1.37h-.28v.28h-.28v.27h-.55v.28h-.27v.28h-.28v29.75h195.31v-3.59h-.28v-.27h-.27v-.28h-.28v-.27h-.83v-.28h-.55v-.27h-.55v-.28h-.55v-.27h-.55v-.28h-.28v-.27h-.82v-.28h-.55v-.28h-.55v-.27h-.55v-.28h-.56v-.27h-.55v-.28h-.55v-.27h-.55v-.28h-.55v-.27h-.83v-.28h-.55v-.27h-.55v-.28h-.55v-.28h-.55v-.27h-.55v-.28h-.28v-.27h-.27v-.28h-.28v-3.03h-.27v-8.26h-.28v-6.89h-.27v-4.13h-.28v-4.13h-.27v-3.31h-.28v-1.38h-.27v-3.85h-.28V128h-.28v-4.13h-.27v-2.21h-.28v-1.93h-.27v-3.03h-.28v-3.3h-.27v-2.48h-.28v-1.93h-.27v-3.03h-.28v-3.3h-.27V101h-.28v-2.2h-.28v-1.93h-.27v-1.93h-.28v-.27h-.27v.27h-.28v3.03h-.27v1.1h-.28V97.7h-.27v-4.41h-.28v-3.58h-.27v-3.03h-.56v.55h-.27v2.2h-.28v2.21h-.55v-8.82H175v-6.88h-.28v-1.93h-.27v-1.66h-.28v-.82h-.55v1.1h-.28v1.1h-.27v-.55h-.28V71.8h-.82v-.27h-.28v-2.21h-.27v-1.1h-.28v-3.58h-.28v-1.38h-.27v-1.1h-.28v-1.1h-.27v-1.38h-.28v-3.3h-.27v-1.93h.27v-.55h-.27v-.28h-.28v-2.75h-.27v-.55h-.28v-1.66h.28v-.82h-.28v-.28h-.27v-2.2h.27v-.28h-.55v-.27h-.27V42.6h.27v-.55h-.27v-.27h-.28v-.55h-.28v-1.38h.28v-.83h-.28v-.27h-.27v-2.21h.27v-.55h-.27v-.27h-.28v-.83h-.27v-1.38h.27v-.27h-.27v-1.65h1.1v-.83h-1.38v-1.38h.28v-.82h-.28v-1.11h-.55v.28h-.27v.55h-.28v.55h-.55v.55h.83v1.38h-1.66v.83h1.38v1.65h-.28v.55h.28v.83h-.28v1.37h-.27v.28h-.28v.27h.28v2.21h-.28v.27h-.27v.83h.27v1.38h-.27v.55h-.28v.27h-.27v.55h.27v1.93h-.27v.28h-.28v.82h.28v1.66h-.28v.55h-.27v.82h.27v1.66h-.27v.27h-.28v.28h-.27v.55h.27v1.93h-.27v.55h-.28v2.2h-.28v3.86h-.27v3.03h-.28v1.93h-.27v2.2h-.28v1.65h-.27v2.21h-.28v.55h-.27v.27h-.55v.28h-.28v.83h-.28v2.2h-.27v-.83h-.28V71.8h-.27v-1.1h-.28v.28h-.27v2.48h-.28v1.65h-.27v13.77h-.28v.28h-4.96v-.28h-.27v-9.36h1.65v-3.58h-.28v-.83h-.27v-1.1h-.28v-.55h-.27v-.55h-.28v-.28h-.27v-.55h-.28v-.28h-.27v-.27h-.28v-.28h-.27v-.27h-.56v-.28h-.27v-.27h-.55v-.28h-1.1v-.27h-1.38v-.28h-.28v-.28h.28v-.27h.27v-.28h.55v-.27h.28v-.28h.28v-.27h-.28v-.55h-.28v-.28h-.27v-.55h-.28v-.28h-.27v-.55h-.28v-3.03h.28v-.82h-.28v-2.48h.28v-.83h-.28v-1.93h.28v-.27h.27v-.55h.28v-.28h.27V53.9h-.27v-2.48h-.28v-1.1h-.27v-.83h-.28v-.27h-.27v-.56h-.28v-.27h-.27v-.28h-.28v-.27h-.27v-.28h-.28v-.27h-.28v-.28h-.27v-.27h-.28v-.28h-.27v-.27h-.28v-.56h-.27v-.82h-.28v-.83h.28v-.27h.27v-.55h.28v-.56h-.28v-.27h-.27v-.28h-.28v-.55h-.27v-6.61h.27v-.27h.28v-.28h.27v-.28h.28v-.27h.27v-1.1h-.27v-.55h-.28v-.55h-.27v-1.11h-.28v-.27h-.27v-.55h-.28v-1.1h-.27V28h-.28v-.82h-.28v-.83h-.27v-1.93h-.28V22.5h-.27v-.56h-.28v-.82h-.27v-4.13h-.28v-.55h-.27v-.83h-.28v.27h-.27z" class="fil0"/>
  <path d="M198.69 176.76H3.38v-29.75h-.27v30.02h195.58z" class="fil1"/>
  <path d="M138.08 6.79h.28v-.55h.28V7.9h-.28v-.28h-.28v-.83zm.56 7.72h.27v-.28h.28v-.55h.27v-.27h.28v-.56h.27v-.55h.28v-1.1h-.28v-.27h-.27v-.28h-.28v-.27h-.27V4.31h-.28v-1.1h-.27v-.27h-.83v.27h-.28v.55h-.27v.55h-.28v.28h-.27v.55h-.28v.55h-.27v2.48h.27v.28h.28v.27h.55V9h1.38v1.1h-.28v.55h-.55v.55h-.28v1.1h.28v.55h.27v.56h.28v.55h.28v.55z" style="fill:#242122"/>
  <path d="M73.35 50.04h.55V39.85h-.27v.28h-.28z" style="fill:#676464"/>
  <path d="M24.87 117.26h-1.1v-7.17h-.28v-.27h-.27v8.54h.27v-.83h1.38z" class="fil4"/>
  <path d="M151.58 88.88v-9.09h1.38v-.27h-1.65v9.36z" class="fil5"/>
  <path d="M116.05 29.66h.27v-.55h-.55V26.9h1.1v-1.37h-1.37v-1.11h-.28v1.38h1.38v.83h-1.1v2.75h.55z" style="fill:#bab9ba"/>
  <path d="M68.67 96.6v.82h.27v.55h.28v-5.51h-.28v4.14z" class="fil1"/>
  <path d="M159.57 74.01h.28v-.55h.27v-1.38h-.55z" style="fill:#9a9798"/>
  <path d="M138.64 14.51v1.37h.27v-.27h.28v-1.38h-.28v.28z" style="fill:#514d4e"/>
  <path d="M113.02 25.8h1.65v-1.38h-.28v1.11h-1.37z" style="fill:#7e7b7c"/>
  <path d="M101.72 95.77v-1.38h-.55v1.38z" style="fill:#524f50"/>
  <path d="M138.36 6.79h-.28v.83h.28v.28h.28V6.24h-.28z" style="fill:#c1bebf"/>
  <path d="M141.39 27.18v-1.1h-.28v-.83h-.27v1.1h.27v.83z" class="fil5"/>
  <path d="M97.04 110.92h-.55v1.1h.55z" style="fill:#9e9d9d"/>
  <path d="M42.77 113.12h-.27v.28h-.55v-.83h-.28v1.1h1.1z" class="fil13"/>
  <path d="M61.23 113.4v.27h1.1v-1.37h-.27v1.1z" style="fill:#918d8e"/>
  <path d="M68.67 96.04v-1.37h-.55v.82h.27v.55z" class="fil15"/>
  <path d="M93.18 111.75v.82h.55v-1.1h-.27v.28z" class="fil16"/>
  <path d="M16.05 133.51h.28v.27h.27v.28h.28v-1.1h-.28v.27h-.55z" style="fill:#cac7c8"/>
  <path d="M95.39 111.19v.56h.55v-1.11h-.28v.55z" style="fill:#bebdbd"/>
  <path d="M38.09 113.4v.27h.83v-1.1h-.28v.83z" style="fill:#a9a6a7"/>
  <path d="M174.17 71.53v-.83h-.55v.83z" style="fill:#757272"/>
  <path d="M108.61 71.8v-.55h-.28v-.27h-.27v1.1h.27v-.28z" class="fil21"/>
  <path d="M78.31 85.3v-1.38h-.55v.28h.27v1.1z" class="fil22"/>
  <path d="M59.3 113.4v.27h1.1v-.82h-.27v.55z" class="fil21"/>
  <path d="M66.19 113.12h-.28v.28h-.55v-.28h-.27v.55h1.1z" class="fil23"/>
  <path d="M15.5 136.54v-.83h-.55v.55h.28v.28z" style="fill:#858282"/>
  <path d="M40.85 113.4h-.83v-.28h-.28v.55h1.11z" style="fill:#929191"/>
  <path d="M124.04 70.43v-.55h-.28v-.28h-.27v.83z" style="fill:#565555"/>
  <path d="M92.08 111.75v.55h.28v-.28h.27v-.55h-.27v.28z" class="fil27"/>
  <path d="M94.29 111.75v.55h.27v-.28h.28v-.55h-.28v.28z" class="fil15"/>
  <path d="M98.69 110.64v-.55h-.55v.55z" style="fill:#7a7979"/>
  <path d="M27.35 117.26v-.56h-.55v.56z" style="fill:#a5a3a4"/>
  <path d="M70.32 86.4h-.27v-.55h-.28v.83h.55z" style="fill:#a6a5a5"/>
  <path d="M122.11 71.25v-.55h-.55v.55z" style="fill:#4c494a"/>
  <path d="M12.2 144.53h-.55v.55h.55z" class="fil4"/>
  <path d="M122.11 70.7v-.55h-.55v.55z" style="fill:#828181"/>
  <path d="M166.46 28.83v.55h.55v-.55z" style="fill:#595556"/>
  <path d="M64.81 111.75v-.28h-.55v.83h.28v-.55z" class="fil23"/>
  <path d="M67.01 112.3v-.83h-.55v.28h.28v.55z" class="fil13"/>
  <path d="M43.6 112.02v-.55h-.55v.28h.27v.27z" style="fill:#a2a1a2"/>
  <path d="M59.03 111.75v-.28h-.55v.55h.27v-.27z" class="fil15"/>
  <path d="M89.88 112.02v-.55h-.55v.28h.27v.27z" class="fil22"/>
  <path d="M78.86 91.91h.55v-.55h-.27v.28h-.28z" style="fill:#5e5d5e"/>
  <path d="M164.25 36.54v-.27h.28v-.28h-.55v.55z" style="fill:#adaaab"/>
  <path d="M164.8 33.51v-.27h.28v-.28h-.55v.55z" class="fil27"/>
  <path d="M165.91 27.45v-.27h-.55v.55h.27v-.28z" style="fill:#7c797a"/>
  <path d="M95.94 111.75h-.55v.27h.27v.28h.28z" style="fill:#626161"/>
  <path d="M17.43 131.3v.28h.55v-.55h-.27v.27z" class="fil16"/>
  <path d="M131.2 69.88h.55v-.56h-.28v.28h-.27z" style="fill:#aeadad"/>
</svg>