<svg width="195" height="50" fill="none" xmlns="http://www.w3.org/2000/svg"><path d="M190.602 17.733h.488v1.469h.564v-1.469h.527v-.414h-1.579v.415ZM193.986 17.32l-.413 1.091-.414-1.092h-.677v1.883h.489v-1.243l.414 1.243h.413l.376-1.243v1.243h.526v-1.883h-.714ZM67.556 17.169a7.041 7.041 0 0 0-1.73-.226c-2.142 0-3.42.979-4.398 2.899h-.075v-2.636h-5.714v15.738h5.94V26.77c0-3.351 1.24-4.707 3.609-4.707 1.203 0 1.729.189 2.33.377v-5.271h.038Z" fill="#101010"/><path fill-rule="evenodd" clip-rule="evenodd" d="M67.293 25.188c0-4.555 3.27-8.245 8.233-8.245 6.166 0 8.835 3.426 8.797 9.525h-11.39c.15 1.808 1.164 3.05 3.044 3.05.94 0 1.993-.377 2.481-1.13h5.564c-1.203 3.39-4.511 4.933-8.007 4.933-4.963 0-8.722-2.937-8.722-8.133Zm8.76-4.405c-1.768 0-2.783.904-3.046 2.598h5.64c0-1.43-1.053-2.598-2.595-2.598Z" fill="#101010"/><path d="M107.633 17.357a7.041 7.041 0 0 0-1.729-.226c-2.143 0-3.421.979-4.399 2.9h-.075v-2.636h-9.323c-.076-1.431.376-1.732 1.842-1.732.489 0 .977.113 1.428.226v-4.104c-.94-.038-1.729-.113-2.669-.113-2.406 0-3.91.188-5.188 1.468-1.165 1.167-1.316 2.749-1.24 4.255h-2.444v3.802h2.444v11.936h5.94V21.197h3.496v11.936h5.94v-6.175c0-3.351 1.24-4.706 3.609-4.706 1.203 0 1.729.188 2.33.376v-5.271h.038Z" fill="#101010"/><path fill-rule="evenodd" clip-rule="evenodd" d="M107.52 25.188c0-4.555 3.27-8.245 8.233-8.245 6.165 0 8.834 3.426 8.834 9.525h-11.391c.151 1.808 1.166 3.05 3.045 3.05.94 0 1.993-.377 2.482-1.13h5.526c-1.203 3.39-4.511 4.933-8.008 4.933-4.962 0-8.721-2.937-8.721-8.133Zm8.759-4.405c-1.767 0-2.782.904-3.045 2.598h5.639c0-1.43-1.053-2.598-2.594-2.598Z" fill="#101010"/><path d="M136.767 23.494c-1.992-.64-4.248-.828-5.225-1.205-.339-.15-.677-.376-.677-.828 0-.98.978-1.205 1.805-1.205.526 0 .977.15 1.315.452.376.263.677.678.677 1.167h5.414c-.151-3.991-4.211-4.932-7.557-4.932-3.12 0-7.368 1.016-7.368 4.97 0 2.673 1.842 4.141 6.353 4.894 2.745.49 3.271.753 3.271 1.657 0 .903-1.241 1.205-1.993 1.205-.714 0-1.278-.15-1.579-.452a1.953 1.953 0 0 1-.714-1.393h-5.677c.076 4.028 4.098 5.497 7.782 5.497 3.797 0 7.933-1.167 7.933-5.497-.038-2.523-1.767-3.69-3.76-4.33ZM152.218 17.131c-2.519 0-3.872.866-4.849 2.07h-.076v-7.53h-5.939v21.462h5.939v-8.246c0-2.485 1.316-3.012 2.369-3.012 1.729 0 1.955 1.28 1.955 3.05v8.17h5.94V22.402c0-3.577-2.519-5.271-5.339-5.271Z" fill="#101010"/><path fill-rule="evenodd" clip-rule="evenodd" d="M158.271 25.188c0-4.555 3.271-8.245 8.234-8.245 6.165 0 8.834 3.426 8.797 9.525h-11.391c.15 1.808 1.165 3.05 3.045 3.05.94 0 1.992-.377 2.481-1.13h5.564c-1.203 3.39-4.511 4.933-8.008 4.933-4.962 0-8.722-2.937-8.722-8.133Zm8.76-4.405c-1.767 0-2.782.904-3.046 2.598h5.64c0-1.43-1.053-2.598-2.594-2.598Z" fill="#101010"/><path d="M182.106 19.842h-.075v-2.636h-5.715v15.738h5.94V26.77c0-3.351 1.241-4.707 3.609-4.707 1.203 0 1.73.189 2.331.377v-5.271a7.035 7.035 0 0 0-1.729-.226c-2.105 0-3.384.979-4.361 2.899Z" fill="#101010"/><path fill-rule="evenodd" clip-rule="evenodd" d="M13.233 44.089H0V0h44.06v44.089H27.406L23.384 50h-10.15v-5.911ZM38.12 5.91H5.902v32.267h13.27v5.91h1.053l4.023-5.91H38.12V5.91Z" fill="#101010"/><path fill-rule="evenodd" clip-rule="evenodd" d="M20.075 28.426h-1.09v5.911h-7.33V9.413H21.88c1.24 0 2.406.075 3.42.263.828.113 1.617.377 2.37.716 2.781 1.28 4.811 3.953 5.15 7.116.037.338.075.677.075 1.016 0 .452-.038.904-.113 1.318-.376 2.71-2.03 5.045-4.286 6.363a31.11 31.11 0 0 0-.28.142c-.27.14-.529.272-.81.385l5.188 7.605h-8.496l-4.023-5.91Zm2.595-12.65h-3.685V22.1h3.685c1.729 0 3.157-1.43 3.157-3.163 0-1.732-1.428-3.162-3.157-3.162Z" fill="#101010"/></svg>