<svg xmlns="http://www.w3.org/2000/svg" xml:space="preserve" style="fill-rule:evenodd;clip-rule:evenodd;stroke-linejoin:round;stroke-miterlimit:2" viewBox="0 0 132 39">
  <path d="m99.071 35.87 28.166 2.677.072-.749-28.167-2.677c-2.185-.208-3.792-2.181-3.581-4.398a4.075 4.075 0 0 1 1.891-3.066l.042-.027-.386-.641-.042.026a4.839 4.839 0 0 0-2.244 3.638c-.25 2.63 1.656 4.97 4.249 5.217" style="fill:#a41e1e;fill-rule:nonzero"/>
  <path d="M103.545 24.959a4.066 4.066 0 0 1 3.505 2.129l.129-.2s1.493 4.304 6.331 3.772c1.972-.218 3.734-1.365 4.807-3.058 1.737-2.741 5.337-7.421 9.426-6.925 4.524.549 4.145 4.099 1.991 5.267-1.326.72-2.341 1.905-2.797 3.358-.78 2.48-2.272 5.568-4.859 5.504-4.313-.108-18.997-1.571-18.997-1.571-2.336-.223-4.022-2.396-3.644-4.783.32-2.02 2.091-3.528 4.108-3.493" style="fill:#a41e1e;fill-rule:nonzero"/>
  <path d="M119.885 31.183s1.676-7.02.605-7.526c0 0 .198-2.688-.859-2.658 0 0-3.239-2.59-4.771-.401s-12.707 10.284-5.567 10.081c3.172-.09 1.482 6.395 10.592.504" style="fill:#a41e1e;fill-rule:nonzero"/>
  <path d="M115.396 20.851s-3.542 1.174-4.771-.401c-1.229-1.574-2.124-.342-1.979.191.146.532 3.544 3.95 5.482 2.392.518-.417 1.268-2.182 1.268-2.182" style="fill:#a41e1e;fill-rule:nonzero"/>
  <path d="M113.27 23.124s-3.541 1.174-4.77-.401c-1.23-1.574-2.124-.342-1.979.19.146.533 3.544 3.951 5.481 2.393.519-.417 1.268-2.182 1.268-2.182M113.568 21.797s.733-2.434 2.311-2.747c0 0 .141-1.435.487-1.713s2.754-2.671 4.091-2.082c1.337.587 2.698 2.158 2.448 2.701-.251.544-1.956-.659-1.956-.659s.749 1.766-.109 2.685c0 0 .683 2.662-1.946 3.273-2.63.611-5.326-1.458-5.326-1.458M121.951 38.093l.679-.586-3.326-3.965-6.874 2.605-5.648-4.11-4.542 3.419.529.725 4.02-3.026 5.506 4.007 6.733-2.553 2.923 3.484ZM41.628 21.92c2.318-.339 4.635-.686 6.962-.936-.794-.014-1.593.008-2.403.028-1.545.203-3.12.437-4.712.669.065.07.116.151.153.239M32.722 22.711c-6.445.433-12.757-.195-18.048-4.138a2.015 2.015 0 0 1-.201.155c4.832 3.575 11.065 4.543 16.957 4.305.424-.017.848-.041 1.271-.068a.894.894 0 0 1 .021-.254M65.137 20.552a92.045 92.045 0 0 0-8.913-.278.88.88 0 0 1 .054.249c2.95-.05 5.902.044 8.843.277.001-.083.006-.166.016-.248M109.407 20.453c-6.499-2.999-13.692-.879-20.289.616a62.246 62.246 0 0 1-3.716.738 1.005 1.005 0 0 1-.059.269c1.643-.267 3.273-.63 4.893-1.009 6.211-1.45 12.988-3.192 19.082-.379.145.067.232-.169.089-.235" style="fill:#a41e1e;fill-rule:nonzero"/>
  <path d="M32.699 22.928a3.713 3.713 0 0 1-.381-.102c-1.223-.403-2.305-1.181-3.328-1.948-1.946-1.461-3.934-3.502-6.368-4.073-.865-.202-1.803-.17-2.7-.2a.854.854 0 0 1-.108.248l.073.005c1.278.072 2.521.016 3.714.553 2.505 1.126 4.43 3.266 6.741 4.715.737.463 1.541.888 2.398 1.075a1.026 1.026 0 0 1-.041-.273M66.245 22.986c-1.88.282-3.768.513-5.661.688a100.23 100.23 0 0 1-6.754.394.998.998 0 0 1-.018.251c2.693-.067 5.384-.239 8.064-.521 1.575-.166 3.146-.372 4.712-.612a2.707 2.707 0 0 1-.343-.2M108.018 22.342c-2.004-.9-4.146-1.384-6.27-1.9-2.034-.494-4.074-.971-6.136-1.333-2.508-.44-5.006-.657-7.503-.566a.827.827 0 0 1-.356.115c-.461.045-.922.066-1.383.072a.876.876 0 0 1 .065.147c3.291-.322 6.595-.004 9.851.608 2.035.382 4.05.868 6.061 1.36 1.897.463 3.794.928 5.583 1.731.146.066.233-.169.088-.234" style="fill:#a41e1e;fill-rule:nonzero"/>
  <path d="M32.702 23c-4.633-1.113-9.073-3.003-13.129-5.523a.799.799 0 0 1-.111.227c4.103 2.55 8.612 4.475 13.302 5.573a1.12 1.12 0 0 1-.062-.277M76.303 17.827c-.856.174-1.703.383-2.547.611.05.07.09.149.118.232.794-.209 1.59-.401 2.393-.564a1.013 1.013 0 0 1 .036-.279M107.458 23.819c-6.247-2.14-12.513-4.597-19.023-5.814a.812.812 0 0 1-.066.241c.247.047.494.094.74.145 6.238 1.273 12.248 3.603 18.26 5.663.151.051.24-.183.089-.235M65.148 20.478c-1.484.189-2.98.299-4.507.359a56.983 56.983 0 0 0-4.475.34 1.1 1.1 0 0 1-.164.27c1.916-.221 3.838-.323 5.786-.408a37.082 37.082 0 0 0 3.335-.302c.003-.087.012-.174.025-.259" style="fill:#a41e1e;fill-rule:nonzero"/>
  <path d="M33.241 21.122c-.868.081-1.74.127-2.62.11-1.661-.031-3.326-.258-4.903-.799-1.475-.507-2.857-1.288-4.197-2.079-.638-.378-1.271-.767-1.903-1.157a1.033 1.033 0 0 1-.041.267c1.057.652 2.116 1.301 3.205 1.893 1.414.768 2.867 1.411 4.442 1.752 1.702.369 3.454.433 5.188.336.284-.016.566-.039.849-.065a.771.771 0 0 1-.02-.258M43.988 19.834c-.784-.003-1.57.024-2.357.089a.718.718 0 0 1 .042.235l.293-.028c.649-.056 1.296-.08 1.943-.079a.99.99 0 0 1 .079-.217M66.054 22.839a2.252 2.252 0 0 1-.125-.114c-2.122-.211-4.236-.608-6.325-.925-1.161-.176-2.322-.354-3.482-.532a1.073 1.073 0 0 1-.167.232l6.213.942c1.351.205 2.71.411 4.072.54a2.712 2.712 0 0 1-.186-.143M109.56 20.777c-3.616.772-7.216-.171-10.746-.934-3.447-.745-6.893-1.065-10.417-.82-.64.044-1.278.108-1.915.182a.942.942 0 0 1-.041.253 39.002 39.002 0 0 1 4.441-.278c3.252-.012 6.368.578 9.532 1.269 3.022.661 6.112 1.232 9.189.575.156-.033.114-.28-.043-.247M45.768 29.991l.823.078-.012.124-2.339 2.024 1.818 3.816-.008.082-.833-.079-1.789-4.02 2.34-2.025Zm-2.918-.277.672.063-.574 6.043-.672-.064.574-6.042ZM37.217 31.42l-2.514 3.611-.834-.079.008-.083 2.504-3.405-1.915-2.429.011-.123.823.078 1.917 2.43Zm.427 3.89-.672-.063.574-6.043.672.064-.574 6.042ZM38.158 32.936a2.07 2.07 0 0 0 1.996 2.61 2.08 2.08 0 0 0 2.024-1.632c.042-.203.054-.405.039-.599l-.613-.06c.027.179.021.366-.022.556a1.475 1.475 0 0 1-1.406 1.132 1.468 1.468 0 0 1-1.425-1.887 1.464 1.464 0 0 1 2.586-.443l.723.058a2.069 2.069 0 0 0-3.902.265" style="fill:#a41e1e;fill-rule:nonzero"/>
  <path d="m56.719 16.769.272-.026s-.403 3.746-.969 4.785c0 0-.62.003-1.533-.036l.01-.052-.19-.008-.026.051c-1.706-.078-4.271-.303-5.794-.935l7.253.193.997-3.766-.02-.206Z" style="fill:#a41e1e;fill-rule:nonzero"/>
  <path d="m56.719 16.769.02.206-11.095 1.587-4.66 5.054-.726-10.652.179-.012 1.142 8.969 3.712-4.035 11.428-1.117Z" style="fill:#a41e1e;fill-rule:nonzero"/>
  <path d="m56.739 16.976-.997 3.765-7.253-.193c1.523.632 4.088.857 5.794.935l-1.492 3.099c-2.289-.547-8.066-1.423-8.066-1.423 2.337 1.149 5.431 1.758 7.161 2.029l-1.243 2.623c-.18-.122-6.666-1.206-6.666-1.206.473.409 1.571.794 2.77 1.118l-.139-.036-2.475 1.7-7.06-.671-4.343-4.914 2.373-4.125c1.202.247 2.349.325 2.349.325.09-1.227-.339-2.997-.339-2.997-.192.516-.416 2.184-.416 2.184-.867-.375-3.077-.182-3.179-.174 1.81-.87 2.878-2.807 2.878-2.807l-1.58-.214c.098-.07 1.673-.764 1.673-.764.153-.482.182-2.004-.002-2.748a3.171 3.171 0 0 0-.047-.158c-.237-.66-1.852-2.412-1.852-2.412l1.424-1.022a10.963 10.963 0 0 0 1.585 2.4c.201.226.326.343.326.343.248-.705.12-3.331.12-3.331l1.613.14s-.298 2.029-.306 2.948c-.002.292.026.474.101.44.313-.139 2.209-2.443 2.209-2.443l1.096 1.067c-.4.234-2.503 2.427-2.503 2.427l.005.083.726 10.652 4.66-5.054 11.095-1.586Z" style="fill:#a41e1e;fill-rule:nonzero"/>
  <path d="m54.309 21.432.19.008-.01.052a3.667 3.667 0 0 1-.206-.009l.026-.051Z" style="fill:#a41e1e;fill-rule:nonzero"/>
  <path d="M54.283 21.483c.07.005.139.008.206.009-.079.367-.577 2.592-1.286 3.875 0 0-.417-.043-1.091-.144l.007-.038-.214-.036-.019.039c-1.73-.271-4.824-.88-7.161-2.029 0 0 5.777.876 8.066 1.423l1.492-3.099Z" style="fill:#a41e1e;fill-rule:nonzero"/>
  <path d="m52.112 25.223-.213-.035.006-.039.213.035-.006.039Z" style="fill:#a41e1e"/>
  <path d="M52.112 25.223c-.056.321-.456 2.534-.96 3.434 0 0-1.955-.313-3.858-.79l-.022-.006-.524-.138c-1.2-.324-2.298-.709-2.771-1.118 0 0 6.486 1.084 6.666 1.206l1.243-2.623c.078.011.155.023.226.035" style="fill:#a41e1e;fill-rule:nonzero"/>
  <path d="m47.294 27.866-3.277 2.737.116-1.216 2.475-1.699.139.035c.173.048.35.094.525.138.008.002.015.005.022.005" style="fill:#a41e1e;fill-rule:nonzero"/>
  <path d="m46.747 27.723.525.138c-.175-.044-.352-.09-.525-.138M44.133 29.387l-.116 1.216-.319-.031.088-.928-1.178-.113-.088.929s-.736-.853-1.985-.972c-1.252-.119-2.133.581-2.133.581l.096-1.011-1.178-.112-.097 1.018-.266-.026.116-1.222 7.06.671ZM43.916 10.456l-3.479 2.496-.179.012-.005-.083s2.103-2.193 2.503-2.427L41.66 9.387s-1.896 2.304-2.209 2.443c-.075.034-.103-.148-.101-.44l.212.004 2.055-3.186 2.299 2.248Z" style="fill:#a41e1e;fill-rule:nonzero"/>
  <path d="m40.662 7.667-1.1 3.727-.212-.004c.008-.919.306-2.948.306-2.948l-1.613-.14s.128 2.626-.12 3.331c0 0-.125-.117-.326-.343l.189-.082.007.018-.517-3.88 3.386.321ZM37.073 28.716l-.116 1.222-4.959-6.101 2.315-4.349.031.007c.246.068.499.128.749.179l.01.003-2.373 4.125 4.343 4.914Z" style="fill:#a41e1e;fill-rule:nonzero"/>
  <path d="M37.452 20.002s-1.147-.078-2.349-.325l-.01-.003-.749-.179-.031-.007a6.894 6.894 0 0 1-.872-.303l.073-.169.004-.001c.102-.008 2.312-.201 3.179.175 0 0 .224-1.669.416-2.185 0 0 .429 1.771.339 2.997M37.786 11.208l-.189.082a10.963 10.963 0 0 1-1.585-2.4l-1.424 1.022s1.615 1.752 1.852 2.412c.016.048.032.1.047.158l-.114.005-2.981-2.771L36.3 7.773l1.486 3.435Z" style="fill:#a41e1e;fill-rule:nonzero"/>
  <path d="M36.487 12.482c.184.744.155 2.266.002 2.748 0 0-1.575.694-1.673.764l1.58.214s-1.068 1.937-2.878 2.807l-.004.001-.073.169a4.075 4.075 0 0 1-.257-.121s1.319-1.826 1.79-2.262l-2.282-.477s-.275-.118.02-.219c.296-.103 3.113-1.434 3.113-1.434s.389-2.018.547-2.186l.115-.004ZM34.344 19.495l.749.18c-.25-.052-.503-.112-.749-.18M13.769 22.645l.823.079-.012.123-2.339 2.025 1.818 3.815-.008.083-.833-.08-1.789-4.019 2.34-2.026Zm-2.918-.277.672.064-.575 6.043-.671-.064.574-6.043ZM5.217 24.075l-2.513 3.611-.834-.08.008-.082 2.504-3.405-1.916-2.429.012-.123.823.078 1.916 2.43Zm.428 3.89-.672-.064.574-6.043.672.064-.574 6.043ZM6.159 25.591A2.07 2.07 0 0 0 8.155 28.2a2.079 2.079 0 0 0 2.023-1.631c.043-.204.055-.405.039-.6l-.613-.059c.027.178.022.366-.021.556a1.465 1.465 0 1 1-.244-1.198l.722.057a2.067 2.067 0 0 0-3.902.266M24.72 9.423l.271-.026s-.401 3.747-.968 4.785c0 0-.621.003-1.534-.035l.011-.053-.191-.008-.025.051c-1.707-.078-4.272-.302-5.795-.935l7.255.194.996-3.766-.02-.207Z" style="fill:#a41e1e;fill-rule:nonzero"/>
  <path d="m24.72 9.423.02.207-11.096 1.586-4.66 5.054L8.26 5.619l.177-.013 1.143 8.969 3.712-4.033L24.72 9.423Z" style="fill:#a41e1e;fill-rule:nonzero"/>
  <path d="m24.74 9.63-.996 3.766-7.255-.194c1.523.633 4.088.857 5.795.935l-1.492 3.099c-2.29-.547-8.067-1.423-8.067-1.423 2.337 1.149 5.432 1.758 7.162 2.029l-1.244 2.623c-.18-.12-6.664-1.205-6.664-1.205.453.393 1.486.765 2.631 1.082l-2.477 1.699-7.058-.671L.73 16.456l2.374-4.125c1.203.249 2.35.326 2.35.326.09-1.227-.341-2.998-.341-2.998-.192.516-.414 2.185-.414 2.185-.867-.375-3.077-.182-3.18-.175 1.811-.868 2.877-2.807 2.877-2.807l-1.58-.213c.098-.071 1.673-.765 1.673-.765.155-.481.184-2.005-.002-2.748a2.374 2.374 0 0 0-.047-.158c-.235-.659-1.852-2.412-1.852-2.412l1.424-1.022a10.959 10.959 0 0 0 1.586 2.4c.2.226.325.343.325.343.25-.705.122-3.33.122-3.33l1.611.141s-.3 2.051-.303 2.962c-.002.284.025.459.099.424.313-.139 2.21-2.443 2.21-2.443l1.094 1.067c-.4.236-2.502 2.429-2.502 2.429l.006.082.724 10.651 4.66-5.054L24.74 9.63Z" style="fill:#a41e1e;fill-rule:nonzero"/>
  <path d="m22.309 14.086.191.008-.011.052a3.632 3.632 0 0 1-.205-.009l.025-.051Z" style="fill:#a41e1e;fill-rule:nonzero"/>
  <path d="M22.284 14.137c.07.005.138.008.205.009-.079.367-.577 2.592-1.286 3.875 0 0-.415-.043-1.089-.145l.007-.037-.215-.036-.019.039c-1.73-.271-4.825-.88-7.162-2.029 0 0 5.778.876 8.067 1.423l1.492-3.099Z" style="fill:#a41e1e;fill-rule:nonzero"/>
  <path d="m20.114 17.876-.215-.036.007-.037.214.036-.006.037Z" style="fill:#a41e1e"/>
  <path d="M20.114 17.876c-.054.316-.458 2.534-.962 3.435 0 0-1.955-.313-3.858-.79-.01-.003-.019-.004-.028-.008l-.455-.117-.201-.054c-1.145-.317-2.178-.69-2.631-1.082 0 0 6.484 1.085 6.664 1.205l1.244-2.622.227.033" style="fill:#a41e1e;fill-rule:nonzero"/>
  <path d="m15.294 20.521-3.277 2.736.116-1.216 2.477-1.699c.067.018.134.037.202.054.149.04.3.08.453.117.01.004.019.005.029.008" style="fill:#a41e1e;fill-rule:nonzero"/>
  <path d="m14.811 20.396.455.117a18.857 18.857 0 0 1-.455-.117M12.133 22.041l-.115 1.216-.318-.03.088-.929-1.18-.112-.088.928s-.734-.853-1.985-.972c-1.25-.119-2.133.581-2.133.581l.096-1.011-1.176-.112-.097 1.018-.266-.025.116-1.223 7.058.671ZM11.918 3.11 8.437 5.606l-.177.013-.006-.082s2.102-2.193 2.502-2.429L9.662 2.041s-1.897 2.304-2.21 2.443c-.074.034-.101-.14-.099-.425l.211-.01L9.617.862l2.301 2.248Z" style="fill:#a41e1e;fill-rule:nonzero"/>
  <path d="M8.662.322 7.564 4.049l-.212.011c.005-.911.305-2.962.305-2.962L6.045.957s.128 2.625-.122 3.33c0 0-.125-.117-.325-.343l.188-.082.007.018L5.278 0l3.384.322ZM5.075 21.37l-.116 1.223L0 16.491l2.315-4.348c.259.071.525.134.789.188L.73 16.456l4.345 4.914Z" style="fill:#a41e1e;fill-rule:nonzero"/>
  <path d="M5.454 12.656s-1.148-.076-2.35-.325l-.789-.188a6.787 6.787 0 0 1-.872-.302l.073-.17.004-.002c.102-.007 2.312-.2 3.179.175 0 0 .222-1.669.414-2.185 0 0 .431 1.771.341 2.997M5.786 3.862l-.188.083a10.996 10.996 0 0 1-1.586-2.401L2.588 2.566S4.205 4.318 4.44 4.978c.016.048.032.1.047.158l-.114.005L1.394 2.37 4.3.427l1.486 3.435Z" style="fill:#a41e1e;fill-rule:nonzero"/>
  <path d="M4.487 5.136c.186.743.157 2.267.002 2.748 0 0-1.575.694-1.673.764l1.58.214S3.33 10.801 1.52 11.669l-.004.002-.073.17a4.134 4.134 0 0 1-.257-.122s1.317-1.827 1.788-2.263L.692 8.979s-.275-.118.02-.219c.296-.102 3.115-1.433 3.115-1.433s.387-2.019.546-2.186l.114-.005ZM2.315 12.143l.788.188a12.53 12.53 0 0 1-.788-.188M78.18 28.768l.823.078-.012.123-2.339 2.025 1.818 3.815-.008.083-.833-.079-1.789-4.02 2.34-2.025Zm-2.918-.278.672.064-.574 6.043-.672-.064.574-6.043ZM69.629 30.197l-2.514 3.611-.834-.079.008-.083 2.504-3.405-1.915-2.429.011-.123.823.078 1.917 2.43Zm.427 3.89-.672-.064.574-6.043.672.064-.574 6.043ZM70.57 31.712a2.07 2.07 0 0 0 1.996 2.611 2.081 2.081 0 0 0 2.023-1.632c.043-.203.055-.405.041-.599l-.615-.06c.028.177.023.365-.021.556a1.473 1.473 0 0 1-1.407 1.131 1.467 1.467 0 0 1-.142-2.926 1.47 1.47 0 0 1 1.305.596v.001l.722.058a2.07 2.07 0 0 0-3.902.264M89.131 15.544l.271-.026s-.401 3.747-.968 4.785c0 0-.621.005-1.534-.033l.01-.053-.19-.008-.024.052c-1.707-.078-4.271-.303-5.794-.935l7.253.193.996-3.768-.02-.207Z" style="fill:#a41e1e;fill-rule:nonzero"/>
  <path d="m89.131 15.544.02.207-11.096 1.586-4.66 5.055-.724-10.652.179-.012 1.141 8.97 3.713-4.035 11.427-1.119Z" style="fill:#a41e1e;fill-rule:nonzero"/>
  <path d="m89.151 15.751-.996 3.768-7.253-.193c1.523.632 4.087.857 5.794.935l-1.493 3.098c-2.29-.548-8.067-1.425-8.067-1.425 2.339 1.149 5.433 1.759 7.163 2.03l-1.245 2.622c-.18-.12-6.664-1.205-6.664-1.205.453.393 1.486.767 2.631 1.082l-2.477 1.7-7.058-.671-4.345-4.913 2.374-4.126c1.203.249 2.349.327 2.349.327.091-1.227-.338-2.997-.338-2.997-.194.513-.416 2.182-.416 2.182-.867-.373-3.077-.18-3.179-.173 1.81-.87 2.876-2.807 2.876-2.807l-1.578-.215c.096-.069 1.671-.765 1.671-.765.155-.479.184-2.003-.002-2.746a2.374 2.374 0 0 0-.047-.158c-.235-.659-1.852-2.413-1.852-2.413l1.424-1.021a10.922 10.922 0 0 0 1.586 2.4c.2.226.325.343.325.343.25-.705.122-3.33.122-3.33l1.613.139s-.298 2.031-.306 2.948c-.002.295.024.474.1.44.313-.139 2.21-2.443 2.21-2.443l1.094 1.066c-.4.236-2.502 2.429-2.502 2.429l.006.081.725 10.652 4.659-5.055 11.096-1.586Z" style="fill:#a41e1e;fill-rule:nonzero"/>
  <path d="m86.72 20.209.19.008-.01.053-.204-.01.024-.051ZM86.696 20.26l.204.01c-.079.366-.577 2.591-1.286 3.872 0 0-.415-.042-1.089-.143l.007-.037-.215-.036-.018.038c-1.729-.271-4.824-.881-7.163-2.03 0 0 5.777.877 8.066 1.425l1.494-3.099Z" style="fill:#a41e1e;fill-rule:nonzero"/>
  <path d="m84.525 23.999-.215-.036.007-.037.214.036-.006.037Z" style="fill:#a41e1e"/>
  <path d="M84.525 23.999c-.054.316-.458 2.534-.962 3.433 0 0-1.955-.311-3.858-.788a.094.094 0 0 0-.024-.006l-.611-.162c-.016-.003-.032-.008-.049-.013-1.145-.315-2.178-.689-2.631-1.082 0 0 6.484 1.085 6.664 1.206l1.245-2.623.226.035" style="fill:#a41e1e;fill-rule:nonzero"/>
  <path d="m79.705 26.644-3.277 2.736.116-1.217 2.477-1.7c.017.005.033.01.049.013a27.229 27.229 0 0 0 .635.168" style="fill:#a41e1e;fill-rule:nonzero"/>
  <path d="m79.07 26.477.611.161c-.205-.052-.41-.106-.611-.161M76.544 28.163l-.116 1.217-.317-.03.088-.931-1.18-.112-.088.931s-.734-.854-1.985-.973c-1.25-.119-2.133.581-2.133.581l.096-1.012-1.176-.112-.097 1.018-.266-.026.116-1.222 7.058.671ZM76.329 9.233l-3.479 2.495-.179.012-.006-.081s2.102-2.193 2.502-2.429l-1.095-1.066s-1.896 2.304-2.209 2.443c-.076.034-.102-.146-.1-.44l.212.005 2.053-3.187 2.301 2.248Z" style="fill:#a41e1e;fill-rule:nonzero"/>
  <path d="m73.075 6.443-1.1 3.729-.212-.005c.008-.917.306-2.948.306-2.948l-1.613-.139s.128 2.625-.122 3.33c0 0-.125-.117-.325-.343l.188-.081.007.017-.515-3.882 3.386.322ZM69.486 27.492l-.116 1.222-4.959-6.101 2.315-4.349c.259.073.525.134.789.189l-2.374 4.126 4.345 4.913ZM69.864 18.78s-1.146-.078-2.349-.327l-.789-.189a6.896 6.896 0 0 1-.872-.301l.073-.169.004-.002c.102-.007 2.312-.2 3.179.173 0 0 .222-1.669.416-2.183 0 0 .429 1.771.338 2.998" style="fill:#a41e1e;fill-rule:nonzero"/>
  <path d="m70.197 9.986-.188.082a10.996 10.996 0 0 1-1.586-2.401l-1.424 1.021s1.616 1.754 1.852 2.413c.016.048.032.1.047.158l-.114.005-2.979-2.771 2.907-1.944 1.485 3.437Z" style="fill:#a41e1e;fill-rule:nonzero"/>
  <path d="M68.898 11.259c.186.743.157 2.267.002 2.746 0 0-1.575.696-1.671.765l1.578.215s-1.066 1.937-2.877 2.807c-.001.002-.003.002-.003.002l-.073.168a4.723 4.723 0 0 1-.257-.122s1.317-1.825 1.788-2.261l-2.282-.477s-.275-.118.021-.22c.295-.101 3.114-1.434 3.114-1.434s.387-2.017.546-2.184l.114-.005ZM66.726 18.264l.789.189c-.264-.054-.53-.116-.789-.189" style="fill:#a41e1e;fill-rule:nonzero"/>
</svg>