<svg xmlns="http://www.w3.org/2000/svg" xml:space="preserve" fill-rule="evenodd" clip-rule="evenodd" image-rendering="optimizeQuality" shape-rendering="geometricPrecision" text-rendering="geometricPrecision" viewBox="0 0 500 386.36">
  <defs/>
  <g>
    <g>
      <path d="M149.26 193.41c0-17.98 5.33-37.7 13.4-50.86 1.01-1.65 1.38-2.63 2.39-4.14l6.75-9.58c5.16-6.9 14.89-15.71 21.56-20.38 3.79-2.65 11.99-7.75 16.56-9.58 30.92-12.38 54.02-12.97 85.06-.54 2.41.96 6.3 2.94 8.38 4.15 9.54 5.56 8.11 5.19 15.47 10.67l9.92 9.14c1.35 1.84 1.69 1.92 3.08 3.45 5.82 6.42 11.5 16.41 15.28 23.92 11.77 23.34 12.27 52.35 3.97 77.31-3.78 11.36-10.77 23.72-18.45 32.74-4.27 5.02-9.08 10.04-14.35 13.97-.88.66-.97.9-1.74 1.52-5.22 4.13-13.92 9.64-20.04 12.09-1.63.65-2.63 1.32-4.1 1.89-29.44 11.49-64.17 10.43-91.2-6.13l-13.18-9.15c-24.1-18.95-38.76-49.54-38.76-80.49zm103.46 109.46c18.01 0 29.66-3.45 44.87-9.59 7.39-2.98 15-7.92 21.25-12.52 27.3-20.08 43.88-53.47 43.88-87.35 0-15.31-3.48-30.63-9.08-43.74l-3.23-6.57c-4.11-6.64-5.14-10.53-11.78-18.17-.86-.98-.71-.99-1.4-1.87l-19.07-17.96c-6.01-4.53-18.03-11.49-25.61-14.14-3.26-1.14-6.48-2.28-10.21-3.4-17.78-5.34-40.76-4.68-58.58.1-7.27 1.96-13.47 4.44-19.69 7.55-4.05 2.02-13.41 7.48-16.55 10.13l-10.9 9.24c-5.54 5.59-14.11 15.85-17.75 22.55-.97 1.8-1.73 2.95-2.54 4.54-7.15 14.12-10.57 24.99-12.49 41.43-1.15 9.87.4 26.76 2.8 36.34 2.19 8.71 6.96 21.29 11.54 28.76 9.8 16 22.11 29.25 38.44 38.89.99.58 1.1.78 2.37 1.44 1.81.95 2.67 1.46 4.18 2.35l14.63 6.06c3.55 1.19 6.42 1.99 10.64 2.98 7.08 1.65 15.89 2.95 24.28 2.95zM63.76 117.72c0-4.85.2-10.03 1.42-14.37 1.71-6.07 4.64-13.87 9.68-17.55 19.14-13.99 34.65 9.95 34.65 27.02 0 9.1-.74 20.34-8.71 26.14-7.66 5.56-10.53 3.59-11.68 6.31l2.93 89.01c1.03 8.78-3.8 16.77 8.53 14.46 1.33-.25 14.72-.86 15.96-.3 3.1 1.41 2.8 7.99 1.15 9.79-3.2 3.47-18.66-1.77-25.07 1.62 0 11.03.57 20.27.55 31.04-.01 5.53 1.91 10.09-2.17 12.53-4.2 2.52-8.44 1.48-10.9-2.19l.53-33.23c0-5.57 1.98-4.68-1.07-9.24-10.77 0-48.88.6-57.74.01-3.09-.21-5-1.25-6.78-3.03-3.02-3.02-3.01-4.95-3.01-8.96 0-3.18 6.09-10.53 8.07-13.17l55.32-74.28c2.7-3.66 9.04-10.03 9.04-14.38-4.03-2.7-3.41-.9-8.36-3.63-7.96-4.38-12.34-13.45-12.34-23.6zm21.98-41.93h1.56c7.91.25 15.67 4.69 20.76 13.43 7.45 12.8 10.48 30.87 3.81 45.02-4.35 9.2-10.47 11.35-17.07 14.52 0 4.43.55 7.16.55 11.98l.55 11.42c.29 3.93-.18 8.55-.03 12.56.09 2.4.58 2.52.58 5.41l1.62 52.84 17.43-.55c11.55 0 12.84 20.11 1.44 22.68l-18.33-.35c0 12.79.55 23.71.55 36.48 0 2.37-2.16 4.91-3.94 6.41-4.05 3.41-11.15 3.73-15.68 1.23-8.35-4.62-4.95-16.77-4.87-23.41l.53-20.71H24.01c-7.39 0-13.62-3.49-16.52-9.62-.81-1.71-1.27-3.35-1.45-4.92v-3.16c.62-5.48 4.34-10.03 7.17-13.79l54.37-73.07c1.54-2.1 3.05-3.96 4.68-6.2 1.18-1.63 3.62-4.78 4.03-6.32-2.99-.7-5.65-2.85-7.96-4.57-6.87-5.11-10.56-17.29-10.56-27.02 0-26.16 13.97-39.77 27.97-40.29zM428.07 82.32v48.47c0 8.4 7.73 15.84 16.88 17.97-1.61 3.04-8.06 11.39-10.5 14.55l-54.21 73.22c-1.8 2.37-3.74 4.97-4.34 8.18-2.13 11.36 5.77 20.04 17.32 20.04h51.18c0 10.01-.58 18.19-.54 28.32.03 5.47-1.45 7.83 1.4 12.21 5.88 9.05 27.04 7.49 23.32-12.43-.65-3.49-.23-10.07-.21-13.94.01-3.16-.39-4.26-.56-6.53-.16-2.25.01-5.29.01-7.63l17.88.45c5.08-.85 7.65-4.76 8.26-9.11v-4.25c-.68-4.98-3.67-9.42-8.17-9.42l-18.51.55c0-8.44-.54-14.95-.54-23.43l-.55-11.43c0-4.74-.57-7.81-.55-11.97.04-8.44-.42-15.36-.52-23.99l-.57-11.41c0-4.81-.54-7.37-.54-11.98 3.5 0 5.82-.56 8.17-1.63l6.14-4.21c3.23-3.22 5.84-8.58 5.84-14.86 0-5.57.86-44.06-.72-46.11-1.98-2.56-4.11-.4-5.27.37 0 4.75.37 46.93-.19 49.37-1.14 4.91-4.44 8.79-9.12 10.48-2.73.98-5.51 1.14-9.21 1.14l-1.51 1.75c-.12 4.41.42 7.44.42 12.41l1.53 39.32c.54 3.41-.05 9.24.09 12.98l.56 13.05c-.01 4.26.72 21.67 1.64 25.59 2.25.53 17.2.36 20.49-.23 3.04-.55 3.27.64 5.1 1.86v7.63c-.85.56-1.98 1.63-3.27 1.63-7.76 0-13.52-.54-21.24-.54l-1.51 1.75.4 24.95c.09 2.41.56 2.18.59 4.86.08 6.94.95 10.17-1.67 12.53-.56.51-1.44 1.11-2.37 1.44-3.75 1.36-9.32-.08-9.61-4.67-.17-2.53-.22-5.56.23-7.98.88-4.68.32-10.45.32-15.47 0-3.12.57-4.11.56-7.61-.02-2.72 0-5.45 0-8.17l-1.76-1.52c-1.62-.61-54 .58-58.6-.2-5.87-.99-10.82-7.18-7.8-14.71.61-1.53 1.19-1.83 2.16-3.28l50.97-68.83c1.66-2.25 3.13-4.1 4.68-6.21 1.56-2.13 2.9-4.05 4.58-6.31 1.66-2.25 3.13-4.1 4.68-6.22 7.73-10.56 4.96-8.99-3.33-10.28-9.62-1.5-12.5-8.92-12.47-19.12.05-13.98 0-27.96 0-41.93-3.76-1.99-3.2-1.01-5.44.54z" />
      <path d="M180.3 192.87c0 15.55 5.76 32.93 15.14 44.76 4.21 5.31 4.37 4.86 7.73 2.61 0-4.07-1.83-4.12-5.99-10.34-1.89-2.83-4.1-6.6-5.38-9.88-6.82-17.47-7.47-31.7-1.63-49.41 1.84-5.59 5.15-11.26 8.42-16.09l7.43-8.9c4.8-4.79 12.67-10.31 19.11-13.02 20.34-8.58 35.13-8.12 55.44-.25 21 8.14 39.13 34.4 39.13 57.79 0 15.54-1.18 21.3-7.8 34.67-.81 1.63-4.18 6.72-4.18 7.81 0 1 2.66 5.95 6.66-.43l6.89-13.79c6.69-18.03 5.68-38.3-2.11-55.49-1.87-4.13-4.18-7.63-6.64-11.32-2.47-3.71-5.1-6.67-8.2-9.78-13.3-13.3-31.94-21.37-51.05-21.37-15.05 0-26.91 4.26-38.13 10.88-4.5 2.65-9.56 6.57-13.2 10.22l-8.18 9.79c-7.72 10.02-13.46 27.16-13.46 41.54zM256.53 259.85c-18.86 0-29.5-2.9-44.11-13.61-2.57-1.89-1.87-2.73-5.98-2.73-.73 1.08-1 1.51-1.64 2.72 1.12 2.33-.36 1.24 3.71 4.46 25.51 20.17 61.58 20.05 88.32.44 2.04-1.49 3.18-2.35 5.04-4.22 3.22-3.24 6.19-4.79 4.04-7.58-2.32-3.01-5.08.45-6.76 2.14-7.32 7.33-17.46 13.14-27.58 15.98-4.41 1.25-9.73 2.4-15.04 2.4zM444.95 84.5c0 7.11-.7 29.5.54 34.85 3.12.75 1.13.88 4.91 0 .93-4.01 1.22-35.58-.18-37.4-1.8-2.33-5.27-1.25-5.27 2.55zM461.29 82.32v35.4c0 2.99 5.44 2.99 5.44 0 0-7.28.72-31.08-.54-36.49-3.59-.86-1.79-1.07-4.9 1.09z" />
    </g>
  </g>
</svg>