<svg xmlns="http://www.w3.org/2000/svg" xml:space="preserve" width="120" height="93" style="shape-rendering:geometricPrecision;text-rendering:geometricPrecision;image-rendering:optimizeQuality;fill-rule:evenodd;clip-rule:evenodd" viewBox="0 0 120 92.73">
  <defs>
    <style>
      .fil0{fill:#373435;fill-rule:nonzero}
    </style>
  </defs>
  <symbol id="Fm0-11-0" viewBox="97.81 -2.42 1.54 21.43">
    <path d="M99.36 19.01h-1.55V-2.42h1.55z" class="fil0"/>
  </symbol>
  <symbol id="Fm1-13-0" viewBox="129.93 2.98 11.11 15.99">
    <path d="M141.03 18.97h-1.54V2.98h1.54zM137.43 16.46v1.89c-.72.4-1.54.62-2.42.62-2.81 0-5.08-2.28-5.08-5.09V2.98h1.54v10.9c0 1.96 1.58 3.54 3.54 3.54.94 0 1.79-.36 2.42-.96z" class="fil0"/>
  </symbol>
  <symbol id="Fm2-15-0" viewBox="143.84 -2.37 5.95 21.34">
    <path d="M149.78 2.98V4.7h-2.71l-.01 1.57h-1.54V4.7h-1.68V2.98h1.68v-5.35h1.55v5.35zM147.06 8.86l.01 10.11h-1.55V8.86z" class="fil0"/>
  </symbol>
  <symbol id="Fm3-17-0" viewBox="150.65 1.86 17.11 17.11">
    <path d="m167.77 10.41-12.55.06V8.86h10.76a6.948 6.948 0 0 0-6.77-5.39c-3.83 0-6.94 3.11-6.94 6.94 0 3.83 3.11 6.94 6.94 6.94a6.94 6.94 0 0 0 6.74-5.27h1.66c-.78 3.93-4.25 6.89-8.4 6.89-4.72 0-8.56-3.83-8.56-8.56 0-4.72 3.84-8.55 8.56-8.55a8.55 8.55 0 0 1 8.56 8.55z" class="fil0"/>
  </symbol>
  <symbol id="Fm4-19-0" viewBox="101.35 2.98 7.51 15.99">
    <path d="M108.86 7.82v11.15h-1.54V7.82c0-1.82-1.48-3.3-3.3-3.3-1.1 0-2.07.54-2.67 1.37l.01-2.11c.76-.51 1.67-.8 2.66-.8 2.68 0 4.84 2.16 4.84 4.84z" class="fil0"/>
  </symbol>
  <g id="Layer_x0020_1">
    <path d="m31.07 12.09 7.33-5.97 4.9 8.91-2.38-10.31h9.19L48.1 15.03l4.71-9.1 6.77 5.46L50.85 19l5.37 23.83 8.95-11.8 35.22-6.86s-1.21 10.73-2.47 13.67c0 0-16.65 1.63-23.46-.46l21.88-1.5 3.59-11.24-33.64 8.12-11.24 14.79-4.71-28.69s5.1-6.44 6.11-7.18l-3.22-2.59s-4.51 6.69-5.32 7.14c-.8.46-.31-9.17-.31-9.17l-4.37.04s1.01 7.03.52 8.99c0 0-3.11-2.41-5.84-6.89l-3.57 3.11s4.79 4.31 5.6 6.02c.8 1.72 1.19 6.37.87 7.8 0 0-4.06 2.28-4.3 2.49l4.3.17s-2.38 5.49-7.03 8.29c0 0 6.12-1.15 8.61-.35 0 0 .17-4.54.56-5.98 0 0 1.6 4.65 1.67 7.98 0 0-7.69.21-11.72-1.44 0 0 3.08-5.24 4.24-6.54l-6.27-.7s-.76-.24 0-.59c.77-.35 8.02-4.66 8.02-4.66s.52-5.52.91-6.01l-8.73-6.7z" class="fil0"/>
    <path d="m38.22 38.45-5.33 11.71 15.43 17.21-.7.66-16.69-17.59 5.12-12.29zM71.22 57.06l-9.21 10.39.98.47 10.12-10.55zM92.48 38.24s-.76 6.93-2.49 10.89c0 0-13.72-.12-23.37-3.77 0 0 15.77.88 22.07 1.77l3.27-8.86.52-.03z" class="fil0"/>
    <path d="M85.41 48.92s-.5 6.84-1.72 9.59c0 0-16.09-1.03-19.82-3.69 0 0 17.72 1.26 18.24 1.54l2.71-7.48.59.04z" class="fil0"/>
    <path id="_2253622817712" d="M34.96 83.41h-1.54V61.98h1.54z" class="fil0"/>
    <g id="_2253622807120">
      <path d="M76.64 83.36H75.1V67.37h1.54zM73.04 80.86v1.89c-.72.39-1.54.61-2.42.61-2.81 0-5.09-2.27-5.09-5.08V67.37h1.55v10.91a3.54 3.54 0 0 0 3.54 3.54c.94 0 1.79-.37 2.42-.96z" class="fil0"/>
    </g>
    <g id="_2253622806416">
      <path d="M85.39 67.37v1.72h-2.72v1.57h-1.54v-1.57h-1.69v-1.72h1.69v-5.35h1.54v5.35zM82.67 73.25v10.11h-1.54V73.25z" class="fil0"/>
    </g>
    <path d="M31.29 73.14a8.557 8.557 0 0 1-8.43 10.04c-4.72 0-8.55-3.83-8.55-8.56s3.83-8.56 8.55-8.56c3.26 0 6.09 1.82 7.53 4.49h-1.9a6.931 6.931 0 0 0-5.63-2.87c-3.83 0-6.94 3.11-6.94 6.94 0 3.84 3.11 6.94 6.94 6.94a6.94 6.94 0 0 0 6.79-8.42h1.64zM63.43 73.25c.08.48.13.98.13 1.48 0 4.72-3.83 8.56-8.56 8.56s-8.56-3.84-8.56-8.56c0-4.73 3.83-8.56 8.56-8.56a8.57 8.57 0 0 1 7.53 4.49h-1.9A6.931 6.931 0 0 0 55 67.79a6.93 6.93 0 0 0-6.94 6.94c0 3.83 3.1 6.94 6.94 6.94 3.84 0 6.94-3.11 6.94-6.94 0-.51-.05-1-.15-1.48h1.64z" class="fil0"/>
    <path id="_2253622836080" d="m103.37 74.81-12.54.05v-1.61h10.75a6.94 6.94 0 0 0-6.76-5.39 6.94 6.94 0 0 0-6.94 6.95c0 3.83 3.1 6.94 6.94 6.94 3.26 0 5.99-2.25 6.74-5.27h1.65c-.78 3.92-4.24 6.88-8.39 6.88-4.73 0-8.56-3.83-8.56-8.55a8.557 8.557 0 0 1 16.97-1.56c.1.51.14 1.02.14 1.56z" class="fil0"/>
    <path id="_2253622832272" d="M44.47 72.21v11.15h-1.55V72.21c0-1.82-1.47-3.3-3.29-3.3-1.1 0-2.07.54-2.67 1.37v-2.11a4.844 4.844 0 0 1 7.51 4.04z" class="fil0"/>
    <path d="M11.92 64.39h2.58v.39l-6.67 6.97 6.77 11.32v.26h-2.61L5.25 71.37l6.67-6.98zm-9.15 0h2.11v18.94H2.77V64.39zM114.92 64.39h2.58v.39l-6.67 6.97 6.78 11.32v.26h-2.62l-6.74-11.96 6.67-6.98zm-9.14 0h2.1v18.94h-2.1V64.39z" class="fil0"/>
  </g>
</svg>