<svg xmlns="http://www.w3.org/2000/svg" xml:space="preserve" fill-rule="evenodd" clip-rule="evenodd" image-rendering="optimizeQuality" shape-rendering="geometricPrecision" text-rendering="geometricPrecision" viewBox="0 0 100 116.48">
  <path d="M59.24 90.25h3.37v.51l-8.73 9.14 8.87 14.82v.33h-3.42L50.5 99.4l8.74-9.15zm-11.98 0h2.76v24.8h-2.76v-24.8zM25 99.37l-8.83 15.66h-3.42v-.34l8.87-14.81-8.73-9.14v-.51h3.38L25 99.37zm3.25 15.66h-2.76v-24.8h2.76v24.8zm1.17-9.86c-.92 5.57 3.63 10.35 9.13 9.85 3.92-.36 7.15-3.51 7.6-7.42.09-.85.06-1.67-.07-2.46h-2.52c.18.71.23 1.48.12 2.27-.34 2.69-2.58 4.86-5.28 5.15a5.993 5.993 0 0 1-6.52-7.13c.45-2.39 2.41-4.31 4.81-4.72 2.2-.38 4.23.44 5.54 1.92l2.96-.05a8.458 8.458 0 0 0-8.86-4.31c-3.5.57-6.34 3.4-6.91 6.9zM1.06 12.56l11.07-9.02 7.41 13.47-3.6-15.59h13.89L26.8 17.01l7.13-13.76 10.22 8.26L30.96 23l8.11 36.04L52.62 41.2l47.14-9.18s-.18 15.4-2.09 19.84c0 0-20.72 2.11-31.02-1.07l29.58-2.02 2.6-15.7-44.52 10.74-17 22.36-7.12-43.38s7.7-9.73 9.24-10.84l-4.87-3.92s-6.82 10.11-8.04 10.79c-1.22.69-.48-13.86-.48-13.86l-6.61.06s1.54 10.63.79 13.59c0 0-4.7-3.65-8.83-10.42l-5.4 4.71s7.25 6.51 8.47 9.1c1.22 2.59 1.8 9.63 1.32 11.79 0 0-6.14 3.44-6.51 3.76l6.51.26s-3.6 8.31-10.63 12.54c0 0 9.26-1.74 13.01-.53 0 0 .27-6.87.85-9.04 0 0 2.43 7.03 2.54 12.06 0 0-11.64.32-17.72-2.17 0 0 4.65-7.94 6.4-9.89L.76 39.72s-1.17-.37 0-.9c1.16-.53 12.11-7.04 12.11-7.04s.8-8.35 1.38-9.09L1.06 12.56z" />
  <path d="m11.87 52.42-8.06 17.7 18.92 20.84v2.48L.85 70.54l7.73-18.58zm49.89 28.14L52.77 90.7v2.72l11.85-12.4zM91.44 52.1s-1.14 10.47-3.75 16.47c0 0-20.75-.18-35.34-5.71 0 0 23.84 1.33 33.36 2.67l4.95-13.39.78-.04z" />
  <path d="M83.21 68.25s-.76 10.33-2.59 14.49c0 0-24.34-1.55-29.98-5.57 0 0 26.8 1.91 27.58 2.33l4.11-11.32.88.07z" />
</svg>
