<svg xmlns="http://www.w3.org/2000/svg" xml:space="preserve" width="50" height="57" style="shape-rendering:geometricPrecision;text-rendering:geometricPrecision;image-rendering:optimizeQuality;fill-rule:evenodd;clip-rule:evenodd" viewBox="0 0 50 57.12">
  <symbol id="Fm0-11-0" viewBox="46.48 17.5 7.37 7.37">
    <path d="M46.53 20.56a3.684 3.684 0 0 0 3.98 4.29c1.71-.16 3.12-1.53 3.31-3.23.04-.37.03-.73-.03-1.07h-1.1c.08.31.1.64.06.99-.16 1.17-1.13 2.12-2.31 2.24a2.616 2.616 0 0 1-2.84-3.11c.2-1.04 1.05-1.87 2.1-2.05.96-.17 1.84.19 2.41.83l1.29-.02a3.688 3.688 0 0 0-3.86-1.88 3.688 3.688 0 0 0-3.01 3.01z" />
  </symbol>
  <g id="Layer_x0020_1">
    <g id="_2253618810640">
      <path d="M29.54 44.29h1.66v.25l-4.29 4.5 4.36 7.28v.17h-1.68l-4.34-7.7 4.29-4.5zm-5.89 0h1.36v12.2h-1.36v-12.2zM12.71 48.78l-4.34 7.69H6.69v-.16l4.36-7.29-4.29-4.49v-.25h1.66l4.29 4.5zm1.6 7.69h-1.36V44.28h1.36v12.19zM14.88 51.63a4.16 4.16 0 0 0 4.49 4.84c1.93-.18 3.52-1.72 3.74-3.65.04-.41.03-.82-.04-1.21h-1.24c.09.35.12.73.06 1.12-.17 1.32-1.27 2.39-2.59 2.53-1.96.2-3.58-1.52-3.21-3.5a2.93 2.93 0 0 1 2.37-2.32 2.92 2.92 0 0 1 2.72.94l1.45-.02a4.13 4.13 0 0 0-4.35-2.12c-1.72.27-3.11 1.66-3.4 3.39zM.94 6.11l5.45-4.44 3.64 6.62L8.26.63h6.83L13.6 8.29l3.5-6.76 5.03 4.06-6.49 5.65 3.99 17.71 6.66-8.77 23.17-4.51s-.09 7.57-1.03 9.75c0 0-10.18 1.04-15.24-.52l14.54-.99L49 16.18l-21.88 5.29-8.36 10.99-3.5-21.33s3.79-4.78 4.54-5.33l-2.39-1.92s-3.35 4.97-3.95 5.3c-.6.34-.24-6.81-.24-6.81l-3.25.03s.76 5.22.39 6.68c0 0-2.31-1.79-4.34-5.12L3.37 6.27s3.56 3.2 4.16 4.47c.6 1.28.88 4.74.65 5.8 0 0-3.02 1.69-3.2 1.85l3.2.13s-1.77 4.08-5.23 6.16c0 0 4.55-.86 6.4-.26 0 0 .13-3.38.42-4.45 0 0 1.19 3.46 1.24 5.93 0 0-5.72.16-8.71-1.06 0 0 2.29-3.9 3.15-4.87l-4.66-.52s-.57-.18 0-.44c.58-.26 5.96-3.46 5.96-3.46s.39-4.1.68-4.47L.94 6.11z" />
      <path d="m6.25 25.7-3.96 8.7 9.3 10.24v1.22L.84 34.61l3.8-9.14zM30.78 39.53l-4.42 4.98v1.34l5.83-6.09zM45.37 25.54s-.56 5.15-1.85 8.09c0 0-10.2-.08-17.37-2.8 0 0 11.72.65 16.4 1.31l2.44-6.58.38-.02z" />
      <path d="M41.33 33.48s-.38 5.08-1.28 7.12c0 0-11.96-.76-14.73-2.74 0 0 13.17.94 13.55 1.15l2.02-5.56.44.03z" />
    </g>
  </g>
</svg>