<svg xmlns="http://www.w3.org/2000/svg" xml:space="preserve" width="24" height="24" fill="#ddb788" viewBox="0 0 72 72"><path d="m60.498 61.961-1.997-37.088C58.468 21.078 55.372 18 51.568 18H46.88V9.077C46.881 5.442 43.782 3 39.734 3h-7.136c-4.179 0-6.717 2.499-6.718 6.077V18h-5.448a6.94 6.94 0 0 0-6.932 6.873l-1.997 37.088A6.94 6.94 0 0 0 18.432 69h35.136a6.941 6.941 0 0 0 6.93-7.039zM29.88 9.077C29.88 7.149 31.87 7 32.597 7h7.137c1.834 0 3.146.699 3.146 2.077V18h-13V9.077zM53.568 65H18.432a2.936 2.936 0 0 1-2.932-2.885l1.997-37.076a1.91 1.91 0 0 0 .003-.107A2.936 2.936 0 0 1 20.432 22h31.136a2.936 2.936 0 0 1 2.933 2.932c0 .036.001.071.003.107l1.997 37.076A2.937 2.937 0 0 1 53.568 65z"/><path d="M21.553 40.039c-.58-.025-1.023.426-1.052.977l-.039.809c-.029.552.395 1.175.946 1.175h.054c.528 0 .97-.529.998-1.064l.039-.86a.987.987 0 0 0-.946-1.037zM21.345 43.963a.993.993 0 0 0-1.052.946l-.792 15.038a1 1 0 0 0 .946 1.052l.054.001a1 1 0 0 0 .998-.947l.792-15.037a1 1 0 0 0-.946-1.053z"/></svg>