<svg xmlns="http://www.w3.org/2000/svg" xml:space="preserve" width="24" height="24" viewBox="0 0 72 72" fill="#4f2b1c"><path d="M61.068 11H55V5a2 2 0 0 0-4 0v6H20V5a2 2 0 0 0-4 0v6h-5.068A6.933 6.933 0 0 0 4 17.932v44.136A6.933 6.933 0 0 0 10.932 69h50.136A6.933 6.933 0 0 0 68 62.068V17.932A6.933 6.933 0 0 0 61.068 11zm-50.136 4H16v5a2 2 0 0 0 4 0v-5h31v5a2 2 0 0 0 4 0v-5h6.068A2.932 2.932 0 0 1 64 17.932V28H8V17.932A2.932 2.932 0 0 1 10.932 15zm50.136 50H10.932A2.932 2.932 0 0 1 8 62.068V30h56v32.068A2.931 2.931 0 0 1 61.068 65z"/><path d="M59.896 56.641c-.553 0-1.103.447-1.103 1 0 2.189-.7 2.359-1.69 2.359h-6.31a1 1 0 1 0 0 2h6.31c2.295 0 3.631-1.287 3.779-3.828.011-.057.118-.113.118-.172v-.359c0-.553-.55-1-1.104-1zM59.875 54.411c.26 0 .52-.112.71-.291a1.04 1.04 0 0 0 .29-.709c0-.263-.109-.522-.29-.711-.38-.369-1.05-.369-1.42 0-.181.19-.29.448-.29.711 0 .271.109.521.29.709.189.18.439.291.71.291zM18.795 37h-1a1 1 0 1 0 0 2h1a1 1 0 1 0 0-2zM25.795 37h-1a1 1 0 1 0 0 2h1a1 1 0 1 0 0-2zM32.795 37h-1a1 1 0 1 0 0 2h1a1 1 0 1 0 0-2zM38.795 37h-1a1 1 0 1 0 0 2h1a1 1 0 1 0 0-2zM45.795 37h-1a1 1 0 1 0 0 2h1a1 1 0 1 0 0-2zM51.795 39h1a1 1 0 1 0 0-2h-1a1 1 0 1 0 0 2zM18.795 43h-1a1 1 0 1 0 0 2h1a1 1 0 1 0 0-2zM25.795 43h-1a1 1 0 1 0 0 2h1a1 1 0 1 0 0-2zM32.795 43h-1a1 1 0 1 0 0 2h1a1 1 0 1 0 0-2zM38.795 43h-1a1 1 0 1 0 0 2h1a1 1 0 1 0 0-2zM45.795 43h-1a1 1 0 1 0 0 2h1a1 1 0 1 0 0-2zM51.795 45h1a1 1 0 1 0 0-2h-1a1 1 0 1 0 0 2zM18.795 55h-1a1 1 0 1 0 0 2h1a1 1 0 1 0 0-2zM25.795 55h-1a1 1 0 1 0 0 2h1a1 1 0 1 0 0-2zM32.795 55h-1a1 1 0 1 0 0 2h1a1 1 0 1 0 0-2zM38.795 55h-1a1 1 0 1 0 0 2h1a1 1 0 1 0 0-2zM18.795 49h-1a1 1 0 1 0 0 2h1a1 1 0 1 0 0-2zM25.795 49h-1a1 1 0 1 0 0 2h1a1 1 0 1 0 0-2zM32.795 49h-1a1 1 0 1 0 0 2h1a1 1 0 1 0 0-2zM38.795 49h-1a1 1 0 1 0 0 2h1a1 1 0 1 0 0-2zM45.795 49h-1a1 1 0 1 0 0 2h1a1 1 0 1 0 0-2zM51.795 51h1a1 1 0 1 0 0-2h-1a1 1 0 1 0 0 2z"/></svg>