<svg xmlns="http://www.w3.org/2000/svg" xml:space="preserve" fill-rule="evenodd" viewBox="0 0 300 300">
  <path fill="none" d="M-25.84-25.84h351.68v351.68H-25.84z"/>
  <path fill-rule="nonzero" d="m216.38 150.88-15.53-15.53-71.51 71.5-31.07-31.06-15.53 15.53 46.6 46.6 87.04-87.04zm36.19-118.1h-14.65V3.47h-29.31v29.31H91.39V3.47H62.08v29.31H47.43c-16.27 0-29.16 13.18-29.16 29.3l-.15 205.14c0 16.12 13.04 29.31 29.31 29.31h205.14c16.12 0 29.31-13.19 29.31-29.31V62.08c0-16.12-13.19-29.3-29.31-29.3zm0 234.44H47.43V106.04h205.14v161.18z"/>
</svg>