<svg xmlns="http://www.w3.org/2000/svg" width="24" height="24" fill="none" stroke="#e8cfb0" viewBox="0 0 400 400"><path stroke-linecap="round" stroke-linejoin="round" stroke-opacity=".9" stroke-width="16" d="M252.644 56.915c42.698-18.467 68.046 56.448 19.007 66.607-40.1 8.31-54.806-45.507-24.507-65.468M330.482 265.712c11.429 11.685 15.485 29.852-.148 45.529-24.357 24.43-58.5 1.408-58.578-26.204M192.293 285.199c1.057 8.469-1.691 17.608-10.166 26.03-22.551 22.412-53.406 4.934-58.472-19.417M231 133c-24.388 28.128-36.505 46.606-44 76M231.268 139c-1.19 35.935-.426 61.382 46.732 42.706"/><path stroke-linecap="round" stroke-linejoin="round" stroke-opacity=".9" stroke-width="16" d="M270.454 181.27c7.194 22.477 22.496 52.909 25.982 76.648"/><path stroke-linecap="round" stroke-linejoin="round" stroke-opacity=".9" stroke-width="16" d="M198.698 209.851c-18.898 1.268-51.66 9.576-64.782 24.259-7.791 8.715-33.219 36.604-25.81 51.336 3.964 7.893 55.396 4.216 62.17 3.254 30.442-4.326 70.415.962 100.061-3.254 6.427-.914-2.917-8.248 5.528-8.248 12.604 0 74.199-14.302 63.501-27.075-24.807-29.6-81.973-5.672-73.269 24.623"/><path stroke-linecap="round" stroke-linejoin="round" stroke-opacity=".9" stroke-width="16" d="M200.303 212.449c7.597 17.437 13.754 62.127 14.29 66.254M200.303 208.553c54.742-.244 57.029 25.374 22.991 66.253M169.124 213.748c-27.1 17.02-69.517 7.711-101.33 18.188M60 128.007c8.434 15.569 0 96.327 3.563 100.031M63.897 128.233c41.793-4.958 68.96-6.013 72.117 0 3.156 6.014 3.156 43.425-5.447 90.712"/></svg>