<svg xmlns="http://www.w3.org/2000/svg" width="75" height="75" fill="none">
  <path fill="#DDB688" d="m26.793 45.475-.003-1.585 20.303-.017.002 1.585-20.302.017Z"/>
  <path fill="#DDB688" d="m16.17 45.475-.058-.73c-.037-.457-.35-4.517.02-6.07.33-1.39 1.518-3.48 1.838-4.025l.453-2.655 3.302-.94 4.282-7.218.283-.095c.185-.06 4.65-1.507 12.182-1.507 7.548 0 12.863 1.935 13.085 2.018l.73.272-.612 1.75 3.578 5.785.07.04.5 2.532 1.027.646.09.264c.343.988 1.445 4.295 1.325 5.393-.087.777-.028 2.935.005 3.697l.03.826h-1.813v-1.585h.17c-.024-.933-.047-2.405.03-3.113.056-.487-.542-2.625-1.154-4.438L54.4 35.61l-.487-2.47-3.02-1.63 1.882-.443-2.847-4.602.34-.968c-1.693-.514-6.128-1.68-11.796-1.68-6.224 0-10.342 1.046-11.412 1.35l-4.295 7.238-2.948.84-.334 1.963-.076.127c-.395.655-1.47 2.597-1.735 3.705-.262 1.11-.075 4.403.02 5.58l-.145.01v.845H16.17Z"/>
  <path fill="#DDB688" d="M22.168 40.587a3.83 3.83 0 0 0-3.828 3.828 3.83 3.83 0 0 0 3.828 3.828 3.833 3.833 0 0 0 3.83-3.828 3.831 3.831 0 0 0-3.83-3.828Zm0 9.243a5.42 5.42 0 0 1-5.413-5.415A5.42 5.42 0 0 1 22.168 39a5.42 5.42 0 0 1 5.415 5.415 5.42 5.42 0 0 1-5.415 5.415ZM51.715 40.587a3.83 3.83 0 0 0-3.828 3.828 3.832 3.832 0 0 0 3.828 3.828 3.833 3.833 0 0 0 3.83-3.828 3.831 3.831 0 0 0-3.83-3.828Zm0 9.243a5.42 5.42 0 0 1-5.413-5.415A5.42 5.42 0 0 1 51.716 39a5.422 5.422 0 0 1 5.415 5.415 5.422 5.422 0 0 1-5.415 5.415Z"/>
  <path stroke="#DDB688" stroke-miterlimit="22.926" d="M37.127 64.895c14.47 0 26.2-11.73 26.2-26.2 0-14.47-11.73-26.2-26.2-26.2-14.47 0-26.2 11.73-26.2 26.2 0 14.47 11.73 26.2 26.2 26.2Z"/>
  <path fill="#DDB688" d="M4.052 31.525c.27-1.165 1.225-1.91 2.395-1.665l-.975 4.178c-1.152-.445-1.665-1.46-1.42-2.513Zm4.933-2.575-.393 1.685c.52.425.86 1.067.638 2.025-.268 1.153-1.23 1.865-2.503 1.685l1.348-5.765c-.25-.1-.495-.175-.755-.232-2.218-.52-4.065.652-4.565 2.802-.523 2.23.64 4.117 3.007 4.672 2.37.553 4.278-.69 4.783-2.855.43-1.847-.345-3.284-1.56-4.017ZM8.253 26.3c2.107 1.212 4.26.635 5.367-1.29.945-1.645.65-3.243-.447-4.378l-.863 1.498c.545.655.617 1.378.14 2.205-.645 1.122-1.902 1.387-3.377.537-1.46-.84-1.863-2.06-1.218-3.18.478-.83 1.203-1.127 1.98-.987l.862-1.497c-1.627-.438-3.062.165-4.01 1.81-1.107 1.924-.53 4.075 1.566 5.282ZM19.387 12.797c-1.59-1.837-3.927-1.877-5.597-.434-1.67 1.444-1.967 3.765-.377 5.602 1.59 1.843 3.884 1.938 5.555.495 1.68-1.455 2.012-3.82.42-5.663ZM14.645 16.9c-1.15-1.33-.88-2.675.033-3.467.904-.78 2.317-.888 3.467.442s.817 2.75-.087 3.532c-.916.79-2.263.823-3.413-.507ZM26.852 13.332l1.533-.52-2.08-6.097 1.358-.46-.423-1.24-1.357.465-.178-.52c-.282-.838-.072-1.265.858-1.583l-.43-1.265c-1.918.655-2.533 1.68-1.956 3.37l.175.518-.862.295.42 1.237.865-.292 2.078 6.092ZM31.96 7.71c-.3-1.618.33-2.233 1.492-2.45l.4-.073-.3-1.632c-1.077.2-1.752.81-2.055 1.652L31.293 4.1l-1.575.292 1.407 7.618 1.575-.293-.74-4.007ZM36.48 11.34l1.6.033.157-7.746-1.6-.032-.157 7.745Zm.992-8.753c.563.01 1.023-.43 1.033-1.007a1.012 1.012 0 0 0-.992-1.048 1.016 1.016 0 0 0-1.045 1.008 1.016 1.016 0 0 0 1.004 1.047ZM44.875 5.755c1.165.27 1.91 1.225 1.665 2.395l-4.175-.975c.442-1.152 1.457-1.667 2.51-1.42Zm2.575 4.93-1.685-.393c-.422.52-1.065.863-2.025.64-1.15-.267-1.865-1.23-1.683-2.502l5.765 1.348c.1-.253.173-.495.233-.755.517-2.218-.655-4.066-2.803-4.566-2.232-.522-4.12.64-4.675 3.008-.55 2.37.693 4.277 2.858 4.783 1.847.43 3.282-.345 4.015-1.563ZM53.28 16.567l1.337.855 2.46-3.85c1.168-1.824.63-3.517-.9-4.492-.78-.5-1.71-.643-2.487-.388l.475-.747-1.347-.863-4.17 6.53 1.35.86 2.332-3.65c.763-1.195 1.808-1.397 2.803-.76.982.628 1.242 1.66.477 2.858l-2.33 3.647ZM58.962 15.94c-1.875 1.48-2.165 3.768-.902 5.368.785.992 1.82 1.355 2.677 1.305l-.915.722 1.003 1.27 8.165-6.445-1.002-1.268-2.933 2.316c.207-.918-.08-2.05-.708-2.845-1.272-1.61-3.507-1.903-5.384-.423Zm3.905 4.993c-1.312 1.035-2.757.727-3.505-.223-.742-.938-.695-2.445.618-3.48 1.315-1.035 2.733-.688 3.475.25.748.947.715 2.425-.587 3.453ZM61.65 26.595l.67 1.455 9.455-4.332-.668-1.46-9.457 4.337ZM65.638 32.565l5.27-3.442-.398-1.74-6.748 4.672-4.022-.692.37 1.617 12.157 2.09-.37-1.617-6.26-.888ZM8.452 56.525c2.48-1.295-.212-4.85 1.19-5.532.47-.228.983.024 1.358.797.38.785.19 1.455-.395 1.8l.7 1.442c1.355-.752 1.7-2.2.933-3.782-.798-1.645-2.2-2.245-3.313-1.705-2.555 1.24.192 4.907-1.173 5.57-.482.232-1.05-.038-1.455-.873-.387-.797-.182-1.567.36-1.895l-.722-1.492c-1.235.678-1.65 2.333-.84 4.003.797 1.645 2.18 2.24 3.357 1.667Zm1.628-.502c-1.825 1.547-2.033 3.844-.733 5.377.835.988 1.908 1.295 2.73 1.242l-.88.748 1.046 1.233 5.912-5.01-1.045-1.233-.86.727c.175-.774.065-1.862-.78-2.86-1.32-1.554-3.568-1.77-5.39-.224Zm4.08 4.857c-1.277 1.082-2.732.822-3.515-.1-.773-.913-.778-2.42.498-3.502 1.277-1.08 2.71-.783 3.482.127.783.922.8 2.402-.465 3.475Zm4.052-1.3-2.12 8.013 1.556 1.112 6.91-4.582-1.383-.99-5.457 3.857 1.89-6.41-1.396-1Zm8.52 6.438c1.108.452 1.69 1.512 1.263 2.63l-3.968-1.626c.62-1.07 1.706-1.415 2.706-1.005Zm1.758 5.28-1.6-.658c-.503.45-1.19.683-2.102.31-1.093-.448-1.646-1.51-1.263-2.737l5.478 2.245c.14-.23.25-.46.35-.708.864-2.108 0-4.118-2.043-4.955-2.12-.87-4.17-.023-5.092 2.23-.923 2.25.002 4.332 2.06 5.175 1.755.72 3.297.18 4.212-.903Zm15.512 2.71 1.585-.12-.35-4.558c-.162-2.157-1.625-3.19-3.432-3.052-1.123.087-2.17.76-2.575 1.734-.61-.97-1.675-1.41-2.895-1.317-.925.07-1.738.515-2.208 1.185l-.067-.885-1.598.123.588 7.727 1.6-.123-.33-4.32c-.108-1.415.608-2.202 1.785-2.292 1.165-.09 1.99.58 2.1 1.998l.328 4.317 1.584-.12-.33-4.32c-.107-1.415.608-2.203 1.788-2.293 1.162-.09 1.99.583 2.097 1.998l.33 4.317Zm9.045-7.288c-.86-2.275-3.042-3.12-5.11-2.34-2.064.78-3.145 2.858-2.284 5.133.86 2.274 2.982 3.157 5.047 2.377 2.078-.785 3.205-2.892 2.347-5.17Zm-5.867 2.218c-.623-1.645.093-2.818 1.225-3.246 1.117-.422 2.48-.034 3.102 1.61.62 1.645-.182 2.863-1.3 3.285-1.13.428-2.407-.007-3.027-1.65Zm12.953-2.865 1.247-.985-2.833-3.588c-1.342-1.7-3.12-1.748-4.542-.625-.727.575-1.165 1.405-1.183 2.225l-.55-.695-1.257.992 4.803 6.083 1.257-.995-2.683-3.397c-.882-1.115-.727-2.17.2-2.9.916-.726 1.976-.63 2.855.484l2.685 3.4Zm-.37-8.87c.724-.95 1.9-1.238 2.867-.536l-2.6 3.41c-.87-.877-.925-2.012-.267-2.874Zm5.554-.328-1.05 1.377c.303.6.35 1.328-.247 2.11-.715.94-1.885 1.198-2.97.51l3.59-4.707a5.092 5.092 0 0 0-.593-.523c-1.812-1.38-3.977-1.07-5.314.688-1.39 1.823-1.105 4.02.83 5.495 1.934 1.475 4.184 1.122 5.532-.645 1.15-1.51 1.032-3.138.222-4.305Zm2.438-3.612-6.282-.395-.723 1.632 8.205.292 2.81 2.965.67-1.517-8.495-8.955-.67 1.518 4.485 4.46Z"/>
</svg>