<svg xmlns="http://www.w3.org/2000/svg" width="115" height="117" fill="none"><path fill="#DDB688" stroke="#502C1D" stroke-width="3" d="M113.179 70.047c0 24.577-19.923 44.5-44.5 44.5-24.576 0-44.5-19.923-44.5-44.5s19.924-44.5 44.5-44.5c24.577 0 44.5 19.923 44.5 44.5Z"/><path fill="#502C1D" d="M21.893 57.7c-.13.884-.458 1.644-.983 2.281a4.456 4.456 0 0 1-2.003 1.383c-.823.283-1.71.355-2.66.215-.95-.14-1.765-.456-2.448-.948a4.504 4.504 0 0 1-1.521-1.882c-.32-.76-.414-1.584-.284-2.467.13-.884.459-1.644.984-2.281a4.457 4.457 0 0 1 2.003-1.383c.81-.285 1.69-.357 2.64-.217.95.14 1.771.463 2.465.97a4.32 4.32 0 0 1 1.521 1.881c.321.749.417 1.565.286 2.448Zm-1.232-.14c.093-.634.017-1.218-.227-1.753a3.211 3.211 0 0 0-1.154-1.362c-.526-.361-1.145-.594-1.858-.699-.712-.105-1.372-.06-1.98.133a3.21 3.21 0 0 0-1.498.972c-.389.441-.63.978-.723 1.611a3.019 3.019 0 0 0 .23 1.733c.245.534.63.982 1.157 1.343.513.358 1.125.59 1.838.695.725.107 1.392.064 2-.13a3.261 3.261 0 0 0 1.495-.952 3.02 3.02 0 0 0 .72-1.592Z"/><path fill="#502C1D" d="m20.91 59.981.386.319-.386-.319Zm-2.003 1.383.163.473.003-.001-.166-.472Zm-5.108-.733-.294.404.002.002.292-.406Zm-1.521-1.882-.462.194.002.004.46-.198Zm2.703-6.131.165.472-.165-.472Zm5.104.752-.294.404.005.004.29-.407Zm1.522 1.883-.46.193v.004l.46-.198Zm-1.173.554-.457.203.002.005.455-.208Zm-1.154-1.362-.282.412.282-.412Zm-3.838-.566-.152-.477.152.477Zm-1.498.972.375.33.004-.005-.379-.325Zm-.493 3.344-.455.208.455-.208Zm1.157 1.343.286-.41-.004-.003-.282.413Zm3.838.565.152.477-.152-.477Zm1.495-.952.375.33-.375-.33Zm1.458-1.524c-.118.802-.412 1.475-.875 2.036l.772.637c.588-.713.95-1.56 1.092-2.527l-.99-.146Zm-.875 2.036a3.956 3.956 0 0 1-1.783 1.23l.332.943a4.956 4.956 0 0 0 2.223-1.536l-.771-.637Zm-1.78 1.228c-.74.255-1.545.323-2.424.193l-.145.99c1.02.15 1.988.075 2.895-.237l-.325-.946Zm-2.424.193c-.882-.13-1.62-.42-2.228-.858l-.585.811c.756.545 1.65.886 2.668 1.036l.145-.99Zm-2.226-.856a4.005 4.005 0 0 1-1.357-1.676l-.919.395a5.004 5.004 0 0 0 1.687 2.088l.59-.807Zm-1.355-1.672c-.281-.67-.368-1.4-.25-2.201l-.99-.146c-.142.966-.04 1.881.317 2.734l.923-.387Zm-.25-2.201c.118-.802.412-1.475.874-2.036l-.771-.636c-.588.712-.95 1.56-1.092 2.526l.99.146Zm.874-2.036a3.957 3.957 0 0 1 1.784-1.23l-.332-.943a4.957 4.957 0 0 0-2.223 1.537l.771.636Zm1.784-1.23c.724-.254 1.522-.323 2.4-.194l.146-.989c-1.02-.15-1.983-.075-2.878.24l.332.944Zm2.4-.194c.88.13 1.623.426 2.244.88l.59-.808c-.767-.56-1.667-.91-2.688-1.061l-.145.99Zm2.25.883a3.82 3.82 0 0 1 1.35 1.668l.922-.387a4.82 4.82 0 0 0-1.694-2.096l-.579.815Zm1.35 1.672c.282.655.37 1.376.252 2.177l.99.146c.142-.966.039-1.876-.322-2.718l-.92.395Zm.009 2.182c.106-.72.02-1.402-.267-2.033l-.91.416c.201.44.268.925.187 1.471l.99.146Zm-.265-2.027a3.71 3.71 0 0 0-1.328-1.573l-.565.825c.455.312.776.695.979 1.153l.914-.405Zm-1.328-1.573c-.597-.409-1.29-.666-2.068-.78l-.146.989c.647.095 1.193.304 1.649.616l.565-.825Zm-2.068-.78c-.778-.115-1.516-.069-2.205.15l.303.953c.527-.167 1.11-.21 1.756-.114l.146-.99Zm-2.205.15a3.71 3.71 0 0 0-1.725 1.123l.758.651c.326-.38.745-.654 1.27-.82l-.303-.954ZM13.57 54.52c-.458.52-.736 1.15-.842 1.87l.989.145c.08-.546.284-.991.603-1.354l-.75-.66Zm-.842 1.87a3.519 3.519 0 0 0 .27 2.013l.909-.416a2.52 2.52 0 0 1-.19-1.452l-.99-.145Zm.27 2.013a3.76 3.76 0 0 0 1.328 1.547l.565-.825a2.762 2.762 0 0 1-.984-1.138l-.91.416Zm1.324 1.544c.586.41 1.274.666 2.052.78l.146-.989c-.647-.095-1.184-.302-1.625-.61l-.573.82Zm2.052.78c.79.117 1.534.073 2.225-.147l-.303-.953c-.526.167-1.115.209-1.776.111l-.146.99Zm2.225-.147a3.761 3.761 0 0 0 1.718-1.098l-.75-.661a2.761 2.761 0 0 1-1.271.806l.303.953Zm1.718-1.098c.457-.52.735-1.141.84-1.85l-.99-.146a2.52 2.52 0 0 1-.6 1.335l.75.66ZM17.022 42.846c.12-.296.279-.563.476-.8l1.149.466c-.229.21-.406.469-.531.778a2.885 2.885 0 0 0-.157 1.663c.111.577.394 1.123.847 1.638.446.497 1.052.901 1.818 1.212l4.152 1.683-.511 1.26-8.675-3.517.511-1.26 1.743.706c-.508-.594-.838-1.217-.99-1.869a3.233 3.233 0 0 1 .168-1.96Z"/><path fill="#502C1D" d="m17.498 42.046.188-.463-.34-.137-.233.28.385.32Zm1.149.466.337.369.584-.535-.733-.297-.188.463Zm-.688 2.44-.49.095.49-.094Zm.847 1.639-.375.33.003.004.372-.334Zm5.97 2.895.463.188.188-.464-.464-.187-.188.463Zm-.511 1.26-.188.464.463.188.188-.464-.463-.188ZM15.59 47.23l-.463-.188-.188.464.463.188.188-.464Zm.511-1.26.188-.463-.463-.188-.188.463.463.188Zm1.743.706-.188.464.568-.788-.38.324Zm-.99-1.869-.489.11.002.005.486-.115Zm.631-1.772c.102-.25.235-.473.397-.668l-.769-.64c-.23.279-.415.59-.554.932l.926.376Zm-.175-.524 1.149.465.376-.926-1.15-.466-.375.927Zm1-.367a2.613 2.613 0 0 0-.658.959l.927.375c.1-.245.235-.44.405-.596l-.675-.738Zm-.658.959a3.384 3.384 0 0 0-.184 1.945l.982-.189a2.385 2.385 0 0 1 .13-1.38l-.928-.376Zm-.184 1.945c.131.679.46 1.304.963 1.874l.75-.66c-.404-.46-.639-.927-.73-1.403l-.983.19Zm.966 1.878c.507.565 1.182 1.008 2.002 1.341l.376-.927c-.712-.288-1.25-.653-1.634-1.082l-.744.668Zm2.002 1.341 4.152 1.683.375-.926-4.151-1.684-.376.927Zm3.876 1.032-.51 1.26.926.376.51-1.26-.926-.376Zm.14.985-8.674-3.517-.376.927 8.675 3.517.375-.927Zm-8.398-2.866.51-1.26-.926-.376-.511 1.26.927.376Zm-.14-.985 1.742.707.375-.927-1.742-.706-.376.926Zm2.31-.081c-.464-.544-.752-1.097-.884-1.659l-.974.229c.175.741.547 1.434 1.097 2.08l.76-.65Zm-.883-1.653a2.734 2.734 0 0 1 .144-1.664l-.926-.376a3.733 3.733 0 0 0-.194 2.257l.976-.217ZM28.053 43.66l-8.041-4.79.696-1.169 8.04 4.79-.695 1.169Zm-9.257-6.306a1.061 1.061 0 0 1-.674.506c-.286.063-.56.016-.824-.141a1.005 1.005 0 0 1-.482-.637 1.062 1.062 0 0 1 .124-.834c.15-.252.372-.415.664-.489a.997.997 0 0 1 .817.114c.252.15.415.372.49.664.073.293.035.565-.115.817Z"/><path fill="#502C1D" d="m28.053 43.66-.256.43.43.255.255-.43-.43-.255Zm-8.041-4.79-.43-.256-.256.429.43.256.256-.43Zm.696-1.169.256-.43-.43-.255-.256.43.43.255Zm8.04 4.79.43.256.256-.43-.43-.255-.255.43ZM18.123 37.86l.107.488.008-.001.008-.002-.123-.485Zm-1.306-.778.485-.123-.485.123Zm.788-1.323.123.485.008-.002.008-.002-.139-.48Zm1.306.778-.485.123.485-.123Zm9.399 6.693-8.042-4.79-.511.859 8.041 4.79.512-.859Zm-7.868-4.105.696-1.168-.859-.512-.696 1.169.86.511Zm.01-.995 8.042 4.79.512-.858-8.041-4.79-.512.858Zm7.868 4.105-.696 1.169.86.512.695-1.169-.859-.512Zm-9.953-5.137a.563.563 0 0 1-.367.277l.246.97a1.56 1.56 0 0 0 .98-.735l-.859-.512Zm-.351.274a.599.599 0 0 1-.46-.083l-.513.86c.367.218.77.29 1.187.2l-.214-.977Zm-.46-.083a.507.507 0 0 1-.254-.33l-.97.246c.104.408.35.728.711.943l.512-.859Zm-.254-.33a.563.563 0 0 1 .069-.455l-.86-.512a1.56 1.56 0 0 0-.179 1.213l.97-.246Zm.069-.455a.54.54 0 0 1 .357-.26l-.246-.97c-.417.106-.75.349-.97.718l.859.512Zm.373-.264a.498.498 0 0 1 .422.063l.512-.86a1.496 1.496 0 0 0-1.211-.164l.277.96Zm.422.063a.54.54 0 0 1 .26.357l.97-.246a1.537 1.537 0 0 0-.718-.97l-.512.859Zm.26.357a.54.54 0 0 1-.059.438l.86.512c.22-.37.274-.779.169-1.196l-.97.246ZM29.497 26.472l7.06 5.582c.658.52 1.137 1.12 1.434 1.797.308.685.414 1.39.318 2.113-.095.723-.391 1.398-.888 2.026l-2.406 3.043-.973-.769 2.407-3.043c.504-.638.683-1.338.538-2.1-.138-.771-.563-1.438-1.274-2l-.8-.633c.179.634.214 1.266.108 1.895a3.904 3.904 0 0 1-.796 1.717c-.554.7-1.218 1.196-1.99 1.485a4.457 4.457 0 0 1-2.427.198c-.844-.157-1.648-.538-2.411-1.141-.753-.596-1.303-1.277-1.649-2.043a4.504 4.504 0 0 1-.379-2.39c.104-.82.433-1.58.986-2.28a3.809 3.809 0 0 1 1.515-1.174 3.95 3.95 0 0 1 1.881-.348l-1.098-.868.844-1.067Zm3.73 8.89c.397-.502.623-1.046.678-1.631a3.21 3.21 0 0 0-.32-1.757c-.275-.575-.696-1.086-1.26-1.533-.565-.446-1.16-.738-1.783-.873a3.211 3.211 0 0 0-1.783.094c-.557.189-1.034.534-1.43 1.036a3.019 3.019 0 0 0-.666 1.615 3.26 3.26 0 0 0 .331 1.741c.266.567.681 1.074 1.246 1.52.575.456 1.175.751 1.798.887a3.26 3.26 0 0 0 1.77-.079 3.02 3.02 0 0 0 1.42-1.02Z"/><path fill="#502C1D" d="m29.497 26.472.31-.392-.392-.31-.31.392.392.31Zm8.494 7.379-.458.201.002.004.456-.205Zm-2.976 7.182-.31.393.392.31.31-.392-.392-.31Zm-.973-.769-.392-.31-.31.392.392.31.31-.392Zm2.944-5.142-.492.088.001.006.492-.094Zm-2.073-2.634.31-.392-1.21-.956.419 1.483.481-.135Zm.108 1.895.491.093.002-.009-.493-.084Zm-2.787 3.202.176.468-.176-.468Zm-2.426.198.092-.491-.092.491Zm-4.06-3.184-.457.203.001.002.456-.205Zm-.379-2.39-.496-.063v.004l.496.058Zm2.501-3.454.195.46.013-.005-.208-.455Zm1.881-.348-.026.5 1.57.083-1.233-.975-.31.392Zm-1.098-.868-.392-.31-.31.392.392.31.31-.392Zm5.252 6.192-.497-.053v.006l.497.047Zm-.32-1.757-.45.216.45-.216Zm-3.043-2.407.107-.488-.107.488Zm-1.783.095.16.474.006-.002-.166-.472Zm-2.096 2.651-.498-.046.498.046Zm.331 1.741.453-.212-.002-.004-.45.216Zm3.044 2.407-.107.488.107-.488Zm1.77-.079.16.474-.16-.474Zm-2.621-9.518 7.06 5.582.62-.784-7.06-5.582-.62.784Zm7.06 5.582c.603.477 1.026 1.013 1.286 1.606l.916-.402c-.335-.762-.868-1.424-1.582-1.988l-.62.784Zm1.288 1.61c.271.603.362 1.214.279 1.842l.991.131a4.334 4.334 0 0 0-.358-2.383l-.912.41Zm.279 1.842c-.083.625-.339 1.218-.785 1.782l.785.62c.546-.691.882-1.45.991-2.27l-.991-.132Zm-.785 1.782-2.406 3.043.784.62 2.407-3.043-.785-.62Zm-1.704 2.961-.973-.769-.62.785.973.769.62-.785Zm-.89-.067 2.406-3.043-.785-.62-2.406 3.043.785.62Zm2.406-3.043c.59-.746.811-1.591.636-2.503l-.982.188c.117.61-.02 1.164-.438 1.695l.784.62Zm.638-2.497c-.163-.91-.665-1.68-1.456-2.306l-.62.785c.631.499.978 1.064 1.091 1.697l.985-.176Zm-1.456-2.306-.8-.632-.62.784.8.633.62-.785Zm-1.591-.105c.159.566.19 1.123.096 1.677l.986.167a4.773 4.773 0 0 0-.12-2.114l-.962.27Zm.097 1.668a3.406 3.406 0 0 1-.697 1.498l.785.62c.46-.582.762-1.228.895-1.933l-.983-.185Zm-.697 1.498c-.502.636-1.093 1.073-1.773 1.328l.35.937c.866-.325 1.602-.878 2.208-1.644l-.785-.62Zm-1.773 1.328c-.685.257-1.4.317-2.159.175l-.183.983c.93.174 1.83.102 2.693-.221l-.351-.937Zm-2.159.175c-.754-.14-1.485-.483-2.193-1.043l-.62.785c.818.647 1.695 1.067 2.63 1.241l.183-.983Zm-2.193-1.043c-.7-.553-1.195-1.172-1.503-1.856l-.912.411c.384.85.988 1.592 1.794 2.23l.62-.785Zm-1.502-1.853a4.004 4.004 0 0 1-.34-2.13l-.992-.116c-.107.902.036 1.79.418 2.651l.914-.405Zm-.34-2.125c.091-.721.38-1.397.883-2.032l-.785-.62c-.605.766-.974 1.61-1.09 2.527l.992.125Zm.883-2.032c.373-.472.811-.81 1.317-1.024l-.39-.92c-.67.284-1.241.729-1.712 1.324l.785.62Zm1.33-1.03a3.45 3.45 0 0 1 1.647-.303l.053-.998a4.45 4.45 0 0 0-2.116.392l.416.91Zm1.984-1.194-1.099-.869-.62.785 1.098.868.62-.784Zm-1.017-.166.844-1.067-.784-.62-.844 1.067.785.62Zm4.574 7.823c.452-.57.719-1.204.784-1.895l-.996-.093c-.045.48-.23.935-.572 1.368l.784.62Zm.783-1.889a3.711 3.711 0 0 0-.366-2.025l-.901.432c.239.498.326.99.273 1.488l.994.105Zm-.366-2.025c-.313-.652-.785-1.221-1.401-1.709l-.62.785c.512.405.88.858 1.12 1.356l.901-.432Zm-1.401-1.709c-.617-.488-1.28-.816-1.986-.97l-.213.977c.54.118 1.065.372 1.578.777l.62-.784Zm-1.986-.97a3.71 3.71 0 0 0-2.056.111l.332.944a2.711 2.711 0 0 1 1.51-.078l.214-.977Zm-2.05.11c-.657.222-1.212.628-1.663 1.199l.784.62c.343-.433.742-.717 1.2-.872l-.321-.947Zm-1.663 1.199a3.519 3.519 0 0 0-.771 1.879l.996.093a2.52 2.52 0 0 1 .56-1.352l-.785-.62Zm-.771 1.879a3.76 3.76 0 0 0 .379 2.004l.901-.433c-.24-.5-.33-.99-.284-1.478l-.996-.093Zm.377 2c.303.647.771 1.212 1.388 1.7l.62-.785c-.513-.405-.875-.853-1.103-1.34l-.905.425Zm1.388 1.7c.626.495 1.294.828 2.002.982l.213-.977c-.54-.117-1.07-.375-1.595-.79l-.62.785Zm2.002.982a3.76 3.76 0 0 0 2.037-.093l-.32-.948a2.762 2.762 0 0 1-1.504.064l-.213.977Zm2.037-.093a3.519 3.519 0 0 0 1.65-1.184l-.784-.62a2.52 2.52 0 0 1-1.187.856l.32.948ZM41.181 30.167l-5.616-7.488 1.088-.816 5.616 7.488-1.088.816Zm-6.164-9.352a1.061 1.061 0 0 1-.816.212 1.098 1.098 0 0 1-.708-.444 1.005 1.005 0 0 1-.204-.772c.043-.299.187-.54.432-.724.235-.176.501-.243.8-.2.29.032.528.17.712.416.176.235.243.501.2.8a1.038 1.038 0 0 1-.416.712Z"/><path fill="#502C1D" d="m41.181 30.167-.4.3.3.4.4-.3-.3-.4Zm-5.616-7.488-.3-.4-.4.3.3.4.4-.3Zm1.088-.816.4-.3-.3-.4-.4.3.3.4Zm5.616 7.488.3.4.4-.3-.3-.4-.4.3Zm-8.068-8.324-.087.492.008.002h.008l.071-.494Zm-.912-1.216.495.07-.495-.07Zm1.232-.924-.07.495.007.001h.008l.055-.496Zm.912 1.216-.495-.07.495.07Zm6.148 9.764-5.616-7.488-.8.6 5.616 7.488.8-.6Zm-5.716-6.788 1.088-.816-.6-.8-1.088.816.6.8Zm.388-.916 5.616 7.488.8-.6-5.616-7.488-.8.6Zm5.716 6.788-1.088.816.6.8 1.088-.816-.6-.8Zm-7.252-8.536a.563.563 0 0 1-.445.117l-.142.99a1.56 1.56 0 0 0 1.187-.307l-.6-.8Zm-.43.12a.6.6 0 0 1-.394-.252l-.8.6c.256.341.602.563 1.021.636l.174-.984Zm-.394-.252a.507.507 0 0 1-.109-.401l-.99-.142c-.06.417.047.807.299 1.143l.8-.6Zm-.109-.401a.563.563 0 0 1 .237-.395l-.6-.8c-.35.262-.565.62-.627 1.053l.99.142Zm.237-.395a.54.54 0 0 1 .43-.105l.14-.99a1.538 1.538 0 0 0-1.17.295l.6.8Zm.445-.103a.499.499 0 0 1 .367.219l.8-.6a1.496 1.496 0 0 0-1.057-.613l-.11.994Zm.367.219a.54.54 0 0 1 .105.43l.99.14a1.538 1.538 0 0 0-.295-1.17l-.8.6Zm.105.43a.54.54 0 0 1-.221.382l.6.8c.344-.258.55-.616.611-1.041l-.99-.142ZM45.232 16.595a4.05 4.05 0 0 1 1.765-.533 3.061 3.061 0 0 1 1.729.383c.545.29.99.744 1.337 1.36l3.063 5.459-1.185.666-2.77-4.936c-.908-1.616-2.082-2.02-3.524-1.21-.837.47-1.299 1.118-1.384 1.946-.086.828.152 1.742.713 2.742l2.29 4.081-1.185.666-4.582-8.162 1.186-.666.764 1.36c-.015-.68.126-1.286.423-1.82.302-.552.755-.997 1.36-1.337Z"/><path fill="#502C1D" d="m46.997 16.062.029.5h.005l-.034-.5Zm1.729.383-.243.437.008.005.235-.442Zm4.4 6.819.245.436.436-.245-.244-.436-.437.245Zm-1.185.666-.436.244.244.436.436-.244-.244-.436Zm-4.675 2.623.245.436.436-.245-.244-.436-.437.245Zm-1.185.666-.436.244.244.436.436-.244-.244-.436Zm-4.582-8.162-.245-.436-.435.244.244.436.436-.244Zm1.186-.666.436-.245-.245-.436-.436.245.245.436Zm.764 1.36-.436.245.936-.255-.5.01Zm.423-1.82.437.243.002-.003-.439-.24Zm1.605-.9a3.55 3.55 0 0 1 1.549-.47l-.058-.998c-.688.04-1.35.241-1.98.595l.489.872Zm1.554-.47a2.562 2.562 0 0 1 1.452.321l.486-.874a3.56 3.56 0 0 0-2.005-.445l.067.998Zm1.46.326c.449.239.83.618 1.136 1.163l.871-.49c-.385-.687-.896-1.215-1.537-1.556l-.47.883Zm1.136 1.163 3.063 5.459.873-.49-3.065-5.459-.871.49Zm3.255 4.778-1.186.666.49.872 1.185-.666-.49-.872Zm-.505.857-2.77-4.936-.873.49 2.77 4.935.873-.49Zm-2.77-4.936c-.486-.864-1.087-1.485-1.835-1.743-.763-.262-1.568-.108-2.37.341l.49.872c.64-.359 1.143-.408 1.555-.267.425.146.865.534 1.287 1.287l.872-.49Zm-4.205-1.401c-.954.535-1.532 1.315-1.637 2.33l.995.104c.066-.64.411-1.158 1.132-1.563l-.49-.872Zm-1.637 2.33c-.1.964.182 1.982.775 3.039l.872-.49c-.53-.943-.724-1.752-.652-2.445l-.995-.103Zm.775 3.039 2.29 4.08.873-.489-2.291-4.08-.872.489Zm2.482 3.4-1.186.666.49.872 1.185-.666-.49-.872Zm-.505.857-4.582-8.162-.872.49 4.582 8.161.872-.489Zm-4.773-7.481 1.186-.666-.49-.872-1.185.666.489.872Zm.505-.857.764 1.36.872-.49-.764-1.36-.872.49Zm1.7 1.105c-.013-.602.111-1.12.36-1.567l-.874-.486c-.345.62-.503 1.316-.486 2.074l1-.021Zm.362-1.57c.252-.461.634-.842 1.166-1.14l-.49-.872c-.678.38-1.202.89-1.554 1.532l.878.48ZM62.612 11.76l2.517 9.015-1.31.366-.372-1.33a4.275 4.275 0 0 1-1.028 1.596c-.46.433-1.012.74-1.654.919-.86.24-1.689.25-2.484.029a4.457 4.457 0 0 1-2.078-1.269c-.59-.624-1.015-1.405-1.277-2.342-.258-.925-.3-1.799-.13-2.622a4.505 4.505 0 0 1 1.102-2.156c.566-.6 1.279-1.021 2.14-1.261a3.808 3.808 0 0 1 1.915-.057 3.949 3.949 0 0 1 1.725.826l-.376-1.348 1.31-.366Zm-2.22 9.382c.617-.172 1.12-.478 1.51-.92.401-.444.66-.98.775-1.607.116-.628.077-1.288-.117-1.982-.193-.693-.502-1.278-.926-1.755a3.21 3.21 0 0 0-1.497-.974c-.56-.175-1.15-.177-1.766-.005a3.02 3.02 0 0 0-1.49.914c-.388.44-.64.975-.756 1.603-.12.614-.082 1.268.111 1.962.198.706.508 1.298.932 1.775a3.26 3.26 0 0 0 1.477.979c.562.175 1.144.179 1.748.01Z"/><path fill="#502C1D" d="m62.612 11.76.481-.134-.134-.482-.482.134.135.482Zm2.517 9.015.134.482.481-.135-.134-.481-.481.134Zm-1.31.366-.482.134.134.482.482-.134-.134-.482Zm-.372-1.33.482-.134-.414-1.484-.536 1.445.468.174Zm-1.028 1.596.342.364.007-.006-.35-.358Zm-4.138.948-.134.481.134-.481Zm-2.078-1.269.364-.343-.364.343Zm-1.406-4.964-.489-.105v.003l.489.102Zm1.1-2.156-.363-.342-.003.003.367.34Zm4.056-1.318-.114.487.014.003.1-.49Zm1.725.826-.315.388 1.22.992-.423-1.514-.482.134Zm-.376-1.348-.135-.482-.481.134.134.482.482-.134Zm.6 8.097-.372-.336-.004.005.375.33Zm.775-1.608-.491-.09.491.09Zm-1.043-3.737.374-.332-.374.332Zm-1.497-.974-.149.478.006.001.143-.479Zm-3.255.91-.375-.332.375.331Zm-.757 1.602.49.095.002-.005-.492-.09Zm1.043 3.737-.374.332.374-.332Zm1.477.979-.149.477.15-.478Zm3.485-9.238 2.517 9.016.963-.27-2.517-9.014-.963.268Zm2.864 8.4-1.31.365.269.964 1.31-.366-.269-.963Zm-.694.712-.37-1.329-.964.27.371 1.328.963-.268Zm-1.321-1.368a3.775 3.775 0 0 1-.91 1.411l.699.716c.511-.5.894-1.095 1.148-1.78l-.937-.347Zm-.903 1.405a3.404 3.404 0 0 1-1.446.801l.27.963c.715-.2 1.339-.544 1.861-1.036l-.685-.728Zm-1.446.801c-.78.218-1.515.223-2.215.029l-.268.963c.89.248 1.811.234 2.752-.029l-.269-.963Zm-2.215.029a3.958 3.958 0 0 1-1.848-1.13l-.727.687c.65.688 1.42 1.16 2.307 1.406l.268-.963Zm-1.848-1.13c-.527-.558-.916-1.264-1.159-2.134l-.963.269c.28 1.005.743 1.86 1.395 2.552l.727-.687Zm-1.159-2.134c-.24-.859-.275-1.65-.122-2.385l-.979-.204c-.19.912-.139 1.867.138 2.858l.963-.269Zm-.122-2.382c.163-.757.49-1.393.979-1.92l-.734-.68a5.003 5.003 0 0 0-1.223 2.39l.978.21Zm.976-1.918c.498-.529 1.13-.905 1.91-1.123l-.269-.963c-.94.263-1.736.728-2.37 1.4l.729.686Zm1.91-1.123a3.309 3.309 0 0 1 1.667-.051l.227-.974a4.307 4.307 0 0 0-2.163.062l.269.963Zm1.68-.048a3.45 3.45 0 0 1 1.51.724l.632-.776a4.45 4.45 0 0 0-1.942-.928l-.2.98Zm2.308.202-.377-1.349-.963.27.377 1.348.963-.27Zm-.724-.733 1.31-.365-.269-.964-1.31.366.27.963Zm-.909 9.017c.701-.196 1.29-.55 1.749-1.07l-.75-.662c-.32.362-.736.62-1.268.768l.27.964Zm1.745-1.066a3.71 3.71 0 0 0 .897-1.853l-.983-.18c-.1.542-.32.991-.656 1.362l.742.671Zm.897-1.853c.131-.711.084-1.449-.127-2.206l-.963.269c.175.63.207 1.213.107 1.756l.983.181Zm-.127-2.206c-.212-.757-.554-1.413-1.034-1.953l-.748.664c.367.413.643.928.819 1.558l.963-.27Zm-1.034-1.953a3.71 3.71 0 0 0-1.727-1.12l-.287.957c.48.144.9.415 1.266.827l.748-.665Zm-1.721-1.119c-.662-.207-1.35-.205-2.05-.01l.268.964c.532-.149 1.022-.144 1.483 0l.299-.954Zm-2.05-.01a3.519 3.519 0 0 0-1.73 1.065l.75.662a2.52 2.52 0 0 1 1.248-.763l-.269-.964Zm-1.73 1.065a3.76 3.76 0 0 0-.874 1.843l.983.181c.101-.546.317-.995.64-1.362l-.75-.662Zm-.873 1.838c-.136.702-.09 1.435.12 2.192l.964-.269c-.176-.63-.205-1.204-.102-1.732l-.982-.19Zm.12 2.192c.215.769.559 1.431 1.04 1.973l.748-.664c-.367-.413-.644-.934-.824-1.578l-.963.27Zm1.04 1.973a3.76 3.76 0 0 0 1.702 1.124l.299-.955a2.762 2.762 0 0 1-1.253-.833l-.748.664Zm1.702 1.124c.66.206 1.341.207 2.031.015l-.269-.963a2.52 2.52 0 0 1-1.463-.007l-.299.955ZM69.361 21.635l-.168-14.519 1.36-.015.168 14.519-1.36.015Z"/><path fill="#502C1D" d="m69.361 21.635-.5.006.006.5.5-.006-.006-.5Zm-.168-14.519-.005-.5-.5.006.005.5.5-.006Zm1.36-.015.5-.006-.006-.5-.5.006.006.5Zm.168 14.519.006.5.5-.006-.006-.5-.5.006Zm-.86.01-.168-14.52-1 .012.169 14.52 1-.012ZM69.2 7.616l1.36-.015-.012-1-1.36.015.012 1Zm.854-.51.168 14.52 1-.012-.168-14.52-1 .012Zm.663 14.014-1.36.015.011 1 1.36-.015-.011-1Z"/><path fill="#502C1D" fill-rule="evenodd" d="m74.378 98.544 2.306-36.014c1.345-1.083 2.29-2.219 3.674-3.316 2.47-1.972 2.806-.708 3.99-3.008l1.261-.403c-.565-2.12.142-.882-1.338-2.572-.637-.748-1.034-1.094-1.571-1.633L81 53.597c-1.343.365.204-1.017-1.824 1.06-.475.468-.685.927-1.001 1.403-3.192.694-.611 1.549-4.413 2.291l2.7-11.11-5.335-1.33-1.582 11.164-3.557-4.502-2.185-5.148-2.529 1.03c-.079.03-.246.182-.325.211l-.594.513c-.497.23-2.493 1.308-.888 1.585.045 1.328-.34.171.281 1.24.737 1.317.005.132 1.009.722.636 1.108.756 1.49 1.223 2.324 1.519 2.818-.044.666 1.536 1.78l.394 2.565c-4.539-4.07-7.223-8.694-9.138-10.648 2.147-1.337 8.4-4.583 10.983-5.23l2.795 10.522.303-11.652 11.304 2.56-4.374 10.344 7.428-7.738c1.85 2.023 5.743 6.221 6.591 8.863-2.487.724-10.577 5.056-12.643 6.789-.922 13.36 2.014 26.43-2.782 35.34Z" clip-rule="evenodd"/><path fill="#502C1D" fill-rule="evenodd" d="M64.179 61.809c-.526 1.719-.543 4.683-1.213 6.075-.667 1.458-1.991 1.211-3.4 2.004l-2.06.722 4.216 1.277c-1.157 2.671-4.517 4.66-6.333 6.345-.974-.511-.917-.78-.561.298l-2.663 1.394 9.522 2.104 1.299-5.48 1.423.03-.25 8.541-3.468-.346c-1.495 2.125-6.312 8.87-7.91 9.935-2.386-2.921 1.723-4.764 4.974-11.082l-7.963-3.155c1.691-2.982 4.716-4.668 6.633-7.285-1.479-.48-2.704-.944-4.062-1.402-2.945-.988-2.277-.52-3.242-1.908l11.511-3.387 2.782-7.219c.019.172.22.232.205.551l.56 1.988Z" clip-rule="evenodd"/><path fill="#502C1D" fill-rule="evenodd" d="m64.408 76.58-1.423-.031.053-.4.42-.919c1.5.72.707-.689.95 1.35Z" clip-rule="evenodd"/></svg>