<svg xmlns="http://www.w3.org/2000/svg" width="115" height="109" fill="none"><path fill="#DDB688" stroke="#502C1D" stroke-width="3" d="M113.185 62.392c0 24.577-19.924 44.5-44.5 44.5-24.577 0-44.5-19.923-44.5-44.5s19.923-44.5 44.5-44.5c24.576 0 44.5 19.923 44.5 44.5Z"/><path fill="#502C1D" d="M21.813 51.624c-.21.882-.584 1.615-1.12 2.2a3.86 3.86 0 0 1-1.958 1.137l-.3-1.326c1.139-.236 1.875-1.054 2.21-2.455.16-.674.17-1.261.029-1.76-.141-.5-.471-.812-.99-.936-.532-.127-.97-.04-1.317.261-.343.289-.66.871-.951 1.747-.4 1.22-.893 2.049-1.477 2.485-.581.424-1.248.546-2 .366-.843-.201-1.425-.662-1.746-1.383-.322-.72-.356-1.613-.102-2.677.43-1.802 1.436-2.858 3.017-3.166l.3 1.326c-.57.097-1.03.33-1.379.699-.345.356-.597.865-.755 1.526-.16.675-.161 1.223-.002 1.645.163.409.471.668.925.776.428.102.824-.002 1.186-.314.352-.327.678-.948.979-1.863.38-1.13.869-1.918 1.469-2.364.59-.462 1.26-.604 2.013-.424.61.145 1.093.446 1.45.901.345.453.558.997.639 1.633a5.443 5.443 0 0 1-.12 1.966Z"/><path fill="#502C1D" d="m20.692 53.824.366.341.002-.003-.368-.338Zm-1.957 1.137-.488.11.112.495.493-.12-.117-.485Zm-.3-1.326-.102-.49-.499.103.113.497.487-.11Zm2.239-4.216.481-.136-.481.136Zm-2.307-.674.322.383.007-.005-.329-.378Zm-.951 1.747-.474-.157-.001.001.475.156Zm-1.477 2.485.294.404.005-.003-.3-.4Zm-3.746-1.017.456-.204-.456.204Zm2.915-5.843.488-.11-.107-.473-.476.092.095.491Zm.3 1.326.084.493.521-.088-.117-.515-.487.11Zm-1.379.699.359.348.005-.005-.364-.343Zm-.757 3.17-.467.178.003.008.464-.185Zm2.11.463.326.38.008-.007.007-.006-.34-.367Zm.98-1.863-.474-.16-.001.004.475.156Zm1.469-2.364.298.401.01-.007-.308-.394Zm3.463.477.398-.303-.004-.005-.393.308Zm.639 1.633.496-.063-.496.063Zm-.606 1.85c-.194.81-.532 1.464-1.003 1.977l.736.677c.603-.656 1.012-1.47 1.24-2.422l-.973-.232Zm-1 1.974a3.36 3.36 0 0 1-1.71.992l.235.973a4.36 4.36 0 0 0 2.206-1.282l-.731-.683Zm-1.105 1.368-.3-1.326-.975.221.3 1.326.976-.221Zm-.686-.726a3.027 3.027 0 0 0 1.677-.945c.439-.487.737-1.125.918-1.883l-.973-.232c-.154.644-.39 1.115-.688 1.446a2.028 2.028 0 0 1-1.137.635l.203.98Zm2.595-2.828c.174-.73.195-1.408.024-2.013l-.962.272c.111.395.112.891-.035 1.51l.973.232Zm.024-2.013a1.802 1.802 0 0 0-.491-.836 1.867 1.867 0 0 0-.864-.45l-.232.973c.19.045.318.118.41.204.09.085.165.205.215.381l.962-.272ZM19.8 47.998c-.655-.157-1.269-.058-1.76.37l.656.755c.2-.174.463-.25.872-.153l.232-.972Zm-1.754.365c-.457.383-.809 1.083-1.104 1.971l.948.316c.288-.864.57-1.329.8-1.522l-.644-.765Zm-1.105 1.973c-.39 1.189-.842 1.897-1.301 2.24l.598.802c.708-.53 1.242-1.477 1.653-2.73l-.95-.312Zm-1.297 2.237c-.453.33-.966.432-1.589.284l-.232.973c.883.21 1.701.068 2.41-.449l-.589-.808Zm-1.589.284c-.708-.17-1.154-.537-1.406-1.1l-.913.407c.392.878 1.11 1.432 2.087 1.666l.232-.973Zm-1.406-1.1c-.262-.589-.31-1.36-.071-2.358l-.973-.232c-.27 1.13-.25 2.143.13 2.997l.914-.408Zm-.071-2.358c.2-.838.524-1.466.952-1.914.424-.445.974-.74 1.674-.877l-.191-.982c-.881.172-1.625.558-2.207 1.169-.578.607-.971 1.408-1.201 2.372l.973.232Zm2.043-3.171.3 1.326.976-.221-.301-1.326-.975.22Zm.704.722c-.662.112-1.226.39-1.66.849l.728.686c.263-.279.62-.468 1.1-.549l-.168-.986Zm-1.655.844c-.427.44-.711 1.04-.882 1.758l.972.233c.145-.606.364-1.023.628-1.295l-.718-.696Zm-.882 1.758c-.173.724-.193 1.385.017 1.938l.935-.354c-.11-.29-.129-.726.02-1.352l-.972-.232Zm.02 1.946c.227.57.672.934 1.273 1.077l.232-.973c-.306-.073-.478-.227-.576-.474l-.93.37Zm1.273 1.077c.6.143 1.156-.015 1.627-.42l-.651-.759c-.253.217-.486.268-.744.206l-.232.973Zm1.642-.433c.45-.419.808-1.144 1.114-2.074l-.95-.312c-.296.9-.59 1.417-.845 1.653l.68.733Zm1.113-2.071c.364-1.086.81-1.763 1.293-2.122l-.597-.802c-.717.534-1.25 1.432-1.644 2.606l.948.318Zm1.303-2.13c.466-.364.98-.476 1.589-.33l.232-.973c-.895-.214-1.723-.043-2.438.517l.617.787Zm1.589-.33c.51.12.891.364 1.173.723l.787-.617c-.433-.552-1.018-.91-1.728-1.08l-.232.973Zm1.169.717c.284.374.468.833.54 1.393l.992-.126c-.091-.712-.332-1.342-.737-1.873l-.795.606Zm.54 1.393a4.946 4.946 0 0 1-.11 1.787l.973.232a5.943 5.943 0 0 0 .129-2.145l-.992.126ZM16.943 35.987c.408-.795.963-1.409 1.666-1.842a4.456 4.456 0 0 1 2.341-.664c.86-.008 1.722.21 2.587.655.854.438 1.528 1.01 2.021 1.712.488.685.76 1.44.816 2.263.063.812-.11 1.615-.518 2.41a4.067 4.067 0 0 1-1.25 1.47 4.194 4.194 0 0 1-1.788.68l4.804 2.466-.622 1.21-11.883-6.104.62-1.21 1.228.63a4.074 4.074 0 0 1-.454-1.83 3.768 3.768 0 0 1 .432-1.846Zm7.81 3.967c.287-.557.4-1.129.34-1.714a3.289 3.289 0 0 0-.643-1.635c-.382-.51-.894-.93-1.534-1.26-.652-.335-1.297-.509-1.935-.522a3.261 3.261 0 0 0-1.722.42 3.02 3.02 0 0 0-1.195 1.275 3.154 3.154 0 0 0-.359 1.75c.06.584.28 1.132.662 1.643.382.511.893.931 1.534 1.26.64.33 1.28.5 1.917.513a3.26 3.26 0 0 0 1.722-.42c.517-.304.92-.74 1.213-1.31Z"/><path fill="#502C1D" d="m20.95 33.481-.005-.5.005.5Zm4.608 2.367-.41.287.003.003.407-.29Zm.816 2.263-.498.034v.005l.498-.039Zm-1.768 3.88.28.415.012-.008-.292-.406Zm-1.788.68-.07-.496-1.557.221 1.399.719.228-.445Zm4.804 2.466.445.229.228-.445-.445-.228-.228.444ZM27 46.347l-.228.445.445.228.228-.444-.445-.229Zm-11.883-6.104-.445-.229-.229.445.445.229.229-.445Zm.62-1.21.23-.445-.445-.228-.229.445.445.228Zm1.228.63-.228.445 1.371.705-.697-1.375-.446.226Zm-.454-1.83.5-.003v-.01l-.5.014Zm8.583.407.497-.05-.497.05Zm-.644-1.635.403-.295-.003-.004-.4.3Zm-3.47-1.782.01-.5-.01.5Zm-1.721.42-.25-.434.25.434Zm-1.554 3.024-.498.045v.006l.498-.05Zm.662 1.644.4-.299-.4.3Zm3.451 1.773.01-.5-.01.5Zm1.722-.42.25.434.004-.003-.254-.43Zm-6.152-5.049c.37-.72.865-1.263 1.483-1.645l-.525-.85c-.786.485-1.402 1.17-1.848 2.039l.89.456Zm1.483-1.645a3.957 3.957 0 0 1 2.084-.589l-.01-1a4.956 4.956 0 0 0-2.599.738l.525.851Zm2.084-.589c.768-.007 1.55.187 2.354.6l.457-.89c-.928-.477-1.87-.72-2.82-.71l.01 1Zm2.354.6c.79.405 1.398.925 1.84 1.554l.818-.574c-.545-.777-1.284-1.399-2.201-1.87l-.457.89Zm1.842 1.557a3.85 3.85 0 0 1 .724 2.007l.998-.068a4.849 4.849 0 0 0-.908-2.519l-.814.58Zm.725 2.012c.055.71-.094 1.422-.465 2.142l.89.457c.446-.869.642-1.764.572-2.676l-.997.077Zm-.465 2.142a3.568 3.568 0 0 1-1.097 1.294l.584.812a4.566 4.566 0 0 0 1.403-1.649l-.89-.457Zm-1.086 1.286a3.694 3.694 0 0 1-1.577.597l.14.99a4.694 4.694 0 0 0 1.998-.76l-.56-.827Zm-1.735 1.537 4.803 2.467.457-.89-4.803-2.467-.457.89Zm4.587 1.794-.621 1.21.89.457.62-1.21-.889-.457Zm.052.993-11.884-6.104-.457.89 11.884 6.104.457-.89Zm-11.668-5.43.622-1.21-.89-.457-.621 1.21.89.456Zm-.052-.994 1.228.63.457-.89-1.228-.63-.457.89Zm1.902-.04a3.574 3.574 0 0 1-.4-1.608l-1 .008c.006.712.177 1.398.508 2.052l.892-.452Zm-.4-1.617a3.27 3.27 0 0 1 .377-1.605l-.89-.457a4.268 4.268 0 0 0-.487 2.088l1-.026Zm8.187 2.361a3.52 3.52 0 0 0 .393-1.992l-.995.1a2.52 2.52 0 0 1-.288 1.435l.89.457Zm.393-1.992a3.788 3.788 0 0 0-.738-1.88l-.807.591c.322.438.5.9.55 1.39l.995-.101Zm-.74-1.884c-.434-.58-1.007-1.046-1.707-1.405l-.456.89c.581.298 1.03.671 1.361 1.114l.801-.599Zm-1.707-1.405c-.71-.365-1.429-.563-2.153-.578l-.02 1c.55.011 1.122.162 1.716.467l.457-.89Zm-2.153-.578a3.76 3.76 0 0 0-1.981.486l.497.868a2.762 2.762 0 0 1 1.463-.354l.02-1Zm-1.981.486c-.6.344-1.063.843-1.39 1.48l.889.457a2.52 2.52 0 0 1 .998-1.07l-.497-.867Zm-1.39 1.48a3.652 3.652 0 0 0-.413 2.023l.996-.089a2.654 2.654 0 0 1 .306-1.477l-.89-.456Zm-.412 2.029a3.76 3.76 0 0 0 .759 1.893l.8-.599a2.761 2.761 0 0 1-.564-1.395l-.995.1Zm.759 1.893c.433.58 1.006 1.046 1.705 1.405l.457-.89c-.581-.298-1.03-.671-1.362-1.114l-.8.599Zm1.705 1.405c.7.36 1.413.553 2.136.568l.02-1c-.552-.01-1.117-.159-1.699-.457l-.457.89Zm2.136.568a3.76 3.76 0 0 0 1.981-.486l-.498-.867a2.761 2.761 0 0 1-1.463.353l-.02 1Zm1.986-.489a3.653 3.653 0 0 0 1.404-1.513l-.89-.457a2.654 2.654 0 0 1-1.022 1.109l.508.861ZM30.047 33.22l-7.343-5.806.844-1.067 7.342 5.806-.843 1.066Zm-8.348-7.468c-.19.24-.436.378-.735.413a1.098 1.098 0 0 1-.798-.248 1.005 1.005 0 0 1-.395-.694c-.035-.3.043-.57.233-.81.182-.23.423-.363.723-.398.289-.044.554.03.794.22.23.182.363.423.398.722.035.3-.038.565-.22.795Z"/><path fill="#502C1D" d="m30.047 33.22-.31.392.392.31.31-.392-.392-.31Zm-7.343-5.806-.392-.31-.31.392.392.31.31-.392Zm.844-1.067.31-.392-.392-.31-.31.392.392.31Zm7.342 5.806.392.31.31-.392-.392-.31-.31.392Zm-9.926-5.988.042.499.008-.001.008-.001-.058-.497Zm-1.192-.942.496-.058-.497.058Zm.955-1.208.058.496h.008l.008-.002-.074-.494Zm1.192.942-.497.058.497-.058Zm8.438 7.87-7.342-5.805-.62.784 7.342 5.806.62-.785Zm-7.26-5.103.843-1.067-.784-.62-.844 1.067.785.62Zm.14-.985 7.343 5.806.62-.785-7.342-5.805-.62.785Zm7.261 5.104-.843 1.066.784.62.843-1.066-.784-.62Zm-9.192-6.401a.563.563 0 0 1-.4.227l.116.993a1.56 1.56 0 0 0 1.069-.6l-.785-.62Zm-.384.225a.6.6 0 0 1-.446-.142l-.62.784c.335.265.725.39 1.15.355l-.084-.997Zm-.446-.142a.507.507 0 0 1-.208-.36l-.993.116c.049.418.251.767.58 1.028l.621-.784Zm-.208-.36a.563.563 0 0 1 .128-.443l-.784-.62a1.56 1.56 0 0 0-.337 1.179l.993-.116Zm.128-.443a.54.54 0 0 1 .389-.21l-.116-.994c-.428.05-.79.247-1.057.584l.785.62Zm.405-.213a.499.499 0 0 1 .41.118l.62-.784a1.496 1.496 0 0 0-1.178-.323l.148.99Zm.41.118a.54.54 0 0 1 .211.388l.994-.116a1.538 1.538 0 0 0-.585-1.056l-.62.784Zm.211.388a.54.54 0 0 1-.116.427l.785.62c.267-.337.374-.736.325-1.163l-.994.116ZM36.968 26.255c-.677.602-1.421.98-2.233 1.13a4.456 4.456 0 0 1-2.423-.226c-.804-.302-1.526-.811-2.164-1.528-.638-.717-1.065-1.488-1.282-2.313a4.458 4.458 0 0 1 .057-2.433c.244-.789.7-1.48 1.367-2.074.568-.505 1.172-.82 1.812-.943.64-.142 1.335-.144 2.083-.006l-.229 1.248c-1.117-.273-2.065-.064-2.841.627a3.117 3.117 0 0 0-.951 1.49 3.26 3.26 0 0 0 .024 1.771c.172.615.498 1.19.976 1.729.479.538 1.013.927 1.604 1.17.59.242 1.176.318 1.757.23a3.118 3.118 0 0 0 1.589-.772c.478-.426.8-.855.968-1.29a3.67 3.67 0 0 0 .185-1.476l1.283-.152c.035.7-.08 1.393-.347 2.076a4.586 4.586 0 0 1-1.235 1.741Z"/><path fill="#502C1D" d="m34.735 27.385-.091-.491.091.491Zm-2.423-.226.175-.468-.175.468Zm-3.446-3.841-.485.12.002.007.483-.127Zm3.236-5.45.094.491.014-.003-.108-.488Zm2.083-.006.491.09.09-.491-.49-.09-.092.491Zm-.229 1.248-.119.485.515.126.096-.521-.492-.09Zm-3.792 2.116-.48-.138-.002.006.482.132Zm.024 1.772-.481.135.481-.135Zm2.58 2.899.19-.463-.19.463Zm1.757.23.076.494.006-.001-.082-.494Zm2.557-2.062.466.18.005-.012-.471-.168Zm.185-1.476-.06-.497-.47.056.03.473.5-.032Zm1.283-.152.5-.025-.027-.535-.531.063.059.497Zm-.347 2.076.464.185.002-.003-.466-.182Zm-1.567 1.368c-.616.548-1.28.88-1.992 1.013l.183.983c.91-.17 1.735-.592 2.474-1.249l-.665-.747Zm-1.992 1.013a3.956 3.956 0 0 1-2.157-.203l-.351.936a4.956 4.956 0 0 0 2.69.25l-.182-.983Zm-2.157-.203c-.72-.27-1.375-.729-1.965-1.393l-.747.665c.685.77 1.472 1.33 2.361 1.664l.351-.936Zm-1.965-1.393c-.593-.665-.978-1.367-1.172-2.107l-.967.254c.238.91.708 1.75 1.392 2.518l.747-.665Zm-1.17-2.1a3.958 3.958 0 0 1 .049-2.165l-.956-.296a4.957 4.957 0 0 0-.064 2.701l.97-.24Zm.049-2.165c.215-.695.617-1.31 1.222-1.848l-.665-.747c-.73.649-1.24 1.416-1.513 2.299l.956.296Zm1.222-1.848c.511-.456 1.035-.722 1.573-.826l-.189-.982c-.742.143-1.425.506-2.05 1.06l.666.748Zm1.587-.829c.566-.125 1.192-.13 1.884-.002l.181-.984c-.803-.148-1.566-.149-2.281.01l.216.976Zm1.483-.584-.229 1.247.984.18.228-1.247-.983-.18Zm.382.852c-1.258-.307-2.379-.074-3.293.74l.665.747c.64-.57 1.413-.755 2.39-.516l.238-.971Zm-3.293.74a3.617 3.617 0 0 0-1.099 1.724l.961.276c.139-.48.402-.896.803-1.253l-.665-.747Zm-1.1 1.73a3.76 3.76 0 0 0 .025 2.04l.963-.27a2.762 2.762 0 0 1-.024-1.505l-.964-.265Zm.025 2.04c.195.696.561 1.338 1.084 1.925l.747-.665c-.435-.488-.72-.998-.868-1.53l-.963.27Zm1.084 1.925c.522.587 1.118 1.026 1.787 1.3l.38-.925c-.512-.21-.986-.551-1.42-1.04l-.747.665Zm1.787 1.3a3.76 3.76 0 0 0 2.023.262l-.152-.989a2.762 2.762 0 0 1-1.492-.198l-.38.925Zm2.029.26a3.617 3.617 0 0 0 1.84-.89l-.665-.748c-.401.357-.845.57-1.339.652l.164.987Zm1.84-.89c.516-.46.897-.953 1.101-1.484l-.933-.36c-.13.338-.394.705-.833 1.096l.664.747Zm1.106-1.496a4.166 4.166 0 0 0 .213-1.676l-.998.064c.03.482-.025.905-.157 1.277l.942.335Zm-.228-1.148 1.284-.152-.117-.993-1.284.152.117.993Zm.726-.623a4.481 4.481 0 0 1-.314 1.87l.932.363a5.48 5.48 0 0 0 .38-2.283l-.998.05Zm-.312 1.866c-.236.589-.6 1.106-1.103 1.553l.665.747a5.085 5.085 0 0 0 1.366-1.93l-.928-.37ZM42.618 10.74l1.11-.638 2.283 14.102-1.179.68-.624-4.05-8.089-6.35 1.23-.709 6.56 5.177-1.29-8.211Z"/><path fill="#502C1D" d="m42.618 10.74-.25-.433-.297.172.053.34.494-.078Zm1.11-.638.493-.08-.115-.715-.628.362.25.433Zm2.283 14.102.25.434.298-.173-.055-.34-.493.08Zm-1.179.68-.494.075.111.722.633-.365-.25-.433Zm-.624-4.05.494-.076-.03-.195-.155-.122-.309.393Zm-8.089-6.35-.25-.434-.64.37.581.457.31-.393Zm1.23-.709.31-.392-.265-.21-.294.169.25.433Zm6.56 5.177-.31.393 1.002.79-.198-1.26-.494.077Zm-1.041-7.778 1.11-.639-.5-.866-1.11.638.5.867Zm.366-.992 2.283 14.102.987-.16-2.283-14.102-.987.16Zm2.527 13.59-1.178.678.499.866 1.178-.678-.499-.867Zm-.435 1.035-.624-4.049-.988.152.624 4.05.988-.153Zm-.81-4.366-8.088-6.35-.617.786 8.088 6.35.618-.786Zm-8.147-5.524 1.23-.709-.499-.866-1.23.708.499.867Zm.671-.75 6.56 5.178.619-.785-6.56-5.177-.619.785Zm7.363 4.708-1.29-8.212-.989.155 1.291 8.212.988-.155ZM88.25 43.438v-3.376c-3.355 0-5.974.937-7.771 2.768a8.077 8.077 0 0 0-1.925 3.257c-.858-.59-1.853-.962-2.96-.962-4.258 0-5.868 3.389-5.906 5.695-.001.388-.014.775-.04 1.161-1.133 3.353-3.335 1.13-3.335-3.481-5.44 5.775.421 7.904-2.92 11.245-.712.713-2.413.99-3.476-.315-1.402-1.669 1.451-4.411-1.25-6.462.494 3.087-1.886 2.447-2.69 1.788-1.048-.858-2.954-2.743.21-7.944-3.236 1.477-5.187 4.476-5.062 6.75.337 5.966 9.558 11.146 5.834 14.628-1.879 1.76-5.57-.62-4.147-4.502-1.771.902-3.855 3.052-3.189 6.395.46 2.312 3.82 7.526-1.873 10.48l.073.02-.146 3.355c.112.006.567.02 1.3.02 4.745 0 21.171-.733 31.284-10.415 5.3-5.077 7.989-11.8 7.989-19.98 0-2.334-1.061-6.75-5.063-6.75-.494 0-.955.067-1.39.172.19-.567.52-1.215 1.087-1.794 1.147-1.16 2.946-1.754 5.366-1.754Zm-5.063 6.75c1.595 0 1.688 3.347 1.688 3.374 0 7.218-2.34 13.117-6.94 17.534-7.47 7.16-19.236 8.933-25.624 9.355 1.556-.356 3.428-1.082 5.478-2.465 9.875-5.412 15.07-18.175 15.26-26.671h.013v-.46c.007-.397.166-2.355 2.532-2.355 1.443 0 2.531 2.05 2.531 3.375H81.5c0-.726.177-1.688 1.688-1.688Z"/></svg>