<svg xmlns="http://www.w3.org/2000/svg" width="115" height="101" fill="none"><path fill="#DDB688" stroke="#502C1D" stroke-width="3" d="M113.202 55c0 24.577-19.924 44.5-44.5 44.5-24.577 0-44.5-19.923-44.5-44.5s19.923-44.5 44.5-44.5c24.576 0 44.5 19.923 44.5 44.5Z"/><path fill="#502C1D" d="M15.279 38.906c.39-.711.917-1.202 1.579-1.471.662-.27 1.445-.287 2.348-.053 1.175.304 2.012.9 2.513 1.786.487.884.57 1.945.25 3.184l-1.243 4.802-13.205-3.417L8.65 39.38c.304-1.175.852-2.017 1.646-2.528.78-.514 1.68-.64 2.7-.376.658.17 1.188.466 1.588.887.388.417.62.931.696 1.543Zm-1.748 4.837.797-3.079c.357-1.381-.219-2.267-1.73-2.658-.683-.177-1.264-.114-1.742.19-.478.303-.809.81-.993 1.52L9.117 42.6l4.414 1.143Zm7.187-1.508c.214-.826.149-1.531-.196-2.116-.34-.598-.912-1-1.712-1.208-.8-.207-1.488-.13-2.063.23-.585.345-.985.93-1.198 1.756l-.817 3.156 5.17 1.338.816-3.156Z"/><path fill="#502C1D" d="m15.279 38.906-.496.062.19 1.534.744-1.355-.438-.24Zm1.579-1.471-.189-.463.189.463Zm4.86 1.733.439-.241-.003-.005-.435.246Zm-.992 7.986-.125.484.484.125.125-.484-.484-.125ZM7.521 43.737l-.484-.126-.125.484.484.126.125-.484Zm2.774-6.885.27.42.005-.003-.275-.417Zm4.288.51.367-.34-.005-.004-.362.345Zm-1.052 6.38-.125.485.484.125.125-.484-.484-.125Zm-2.675-5.547-.268-.422.268.422ZM9.116 42.6l-.483-.125-.126.484.485.125.125-.484Zm11.406-2.481-.434.248.003.005.431-.253Zm-3.775-.977.253.43.012-.007-.265-.423Zm-2.015 4.911-.484-.125-.126.484.485.125.125-.484Zm5.17 1.338-.126.484.484.126.125-.484-.484-.126Zm-4.185-6.244c.344-.625.788-1.029 1.33-1.249l-.378-.926c-.782.318-1.39.896-1.828 1.694l.876.48Zm1.33-1.249c.535-.218 1.203-.248 2.034-.032l.25-.968c-.975-.253-1.873-.247-2.662.074l.377.926Zm2.034-.032c1.07.277 1.781.801 2.202 1.548l.871-.492c-.58-1.027-1.544-1.694-2.823-2.024l-.25.968Zm2.2 1.544c.41.744.501 1.667.204 2.817l.968.25c.344-1.328.268-2.527-.296-3.55l-.876.483Zm.204 2.817-1.243 4.802.968.25 1.243-4.801-.968-.25Zm-.634 4.443L7.646 43.252l-.25.969L20.6 47.638l.25-.968ZM8.005 43.862l1.128-4.357-.968-.25-1.128 4.356.968.25Zm1.128-4.357c.282-1.089.772-1.808 1.432-2.233l-.541-.84c-.927.596-1.533 1.563-1.86 2.823l.969.25Zm1.437-2.236c.646-.426 1.397-.542 2.3-.308l.25-.969c-1.137-.294-2.186-.16-3.1.442l.55.835Zm2.3-.308c.583.15 1.025.405 1.351.747l.724-.69c-.475-.5-1.092-.836-1.825-1.026l-.25.969Zm1.347.742c.31.334.502.748.566 1.265l.992-.123c-.088-.707-.36-1.322-.825-1.823l-.733.681Zm-.202 6.165.797-3.079-.968-.25-.797 3.078.968.25Zm.797-3.079c.201-.776.16-1.5-.229-2.098-.383-.588-1.04-.957-1.859-1.169l-.25.968c.69.179 1.077.448 1.27.746.188.289.256.699.1 1.303l.968.25Zm-2.088-3.267c-.782-.203-1.514-.144-2.136.251l.536.844c.333-.211.764-.278 1.35-.127l.25-.968Zm-2.136.251c-.614.39-1.003 1.022-1.209 1.817l.969.25c.161-.624.434-1.005.776-1.223l-.536-.844ZM9.379 39.59l-.746 2.885.968.25.746-2.885-.968-.25Zm-.387 3.494 4.414 1.143.25-.968-4.414-1.143-.25.968Zm12.21-.724c.238-.92.18-1.768-.249-2.495l-.861.507c.26.443.332 1.005.142 1.738l.968.25Zm-.245-2.49c-.422-.737-1.119-1.21-2.021-1.443l-.251.968c.698.18 1.142.514 1.403.971l.869-.495Zm-2.021-1.443c-.903-.233-1.738-.158-2.455.29l.531.848c.435-.272.975-.35 1.673-.17l.25-.968Zm-2.443.284c-.727.428-1.19 1.141-1.428 2.061l.968.25c.19-.732.524-1.189.967-1.45l-.507-.861Zm-1.428 2.061-.817 3.156.968.25.817-3.155-.969-.251Zm-.458 3.765 5.17 1.338.25-.968-5.17-1.338-.25.968Zm5.779.98.816-3.157-.968-.25-.817 3.156.968.25ZM21.36 25.483c.564-.584 1.2-.92 1.91-1.006.71-.086 1.47.102 2.28.565 1.054.602 1.706 1.396 1.956 2.384.238.98.04 2.026-.595 3.138l-2.46 4.307-11.844-6.764 2.231-3.907c.602-1.054 1.353-1.723 2.252-2.008.888-.291 1.79-.176 2.704.346.59.338 1.024.762 1.3 1.273.265.504.354 1.061.266 1.672Zm-2.955 4.208 1.577-2.762c.707-1.239.384-2.245-.971-3.018-.614-.35-1.191-.443-1.732-.275-.54.167-.993.569-1.356 1.206l-1.478 2.588 3.96 2.26Zm7.33.432c.424-.741.546-1.44.367-2.094-.172-.667-.617-1.205-1.335-1.615-.718-.41-1.402-.516-2.052-.32-.655.18-1.194.64-1.617 1.38l-1.616 2.832 4.637 2.648 1.616-2.831Z"/><path fill="#502C1D" d="m21.36 25.483-.494-.071-.22 1.53 1.074-1.112-.36-.347Zm1.91-1.006-.06-.496.06.496Zm4.236 2.949.486-.118-.002-.005-.484.123Zm-3.054 7.445-.248.434.434.248.248-.434-.434-.248Zm-11.845-6.764-.434-.248-.248.434.434.248.248-.434Zm4.483-5.915.151.477.005-.002-.156-.475Zm4.005 1.619.442-.233-.003-.005-.44.238Zm-2.69 5.88-.248.434.434.248.248-.434-.434-.248Zm-1.126-6.055-.148-.478.148.478Zm-2.834 3.794-.434-.248-.248.434.434.248.248-.434Zm11.657.599-.484.125.002.006.482-.131Zm-3.387-1.934.132.482.013-.004-.145-.478Zm-3.233 4.21-.435-.247-.248.434.435.248.248-.434Zm4.637 2.649-.248.434.434.248.248-.434-.434-.248ZM21.72 25.83c.496-.513 1.03-.786 1.61-.856l-.12-.993c-.839.102-1.577.5-2.21 1.154l.72.695Zm1.61-.856c.575-.07 1.227.077 1.972.502l.496-.868c-.875-.5-1.743-.73-2.588-.627l.12.993Zm1.972.502c.96.549 1.509 1.242 1.72 2.072l.969-.245c-.29-1.144-1.046-2.04-2.193-2.695l-.496.868Zm1.718 2.068c.2.825.046 1.74-.543 2.772l.869.496c.68-1.192.922-2.369.646-3.505l-.972.237Zm-.543 2.772-2.46 4.307.869.496 2.46-4.307-.869-.496Zm-1.777 4.12-11.845-6.763-.496.868 11.845 6.764.496-.868Zm-11.659-6.08 2.232-3.909-.869-.495-2.231 3.907.868.496Zm2.232-3.909c.557-.976 1.22-1.541 1.968-1.778l-.302-.954c-1.05.333-1.89 1.106-2.535 2.236l.869.496Zm1.973-1.78c.736-.241 1.491-.157 2.3.306l.496-.869c-1.02-.582-2.067-.728-3.108-.387l.312.95Zm2.3.306c.524.299.884.66 1.109 1.076l.88-.476c-.328-.606-.835-1.093-1.493-1.469l-.496.869Zm1.106 1.07c.212.404.287.853.214 1.369l.99.142c.1-.706-.001-1.37-.319-1.976l-.885.465Zm-1.813 5.896 1.577-2.762-.869-.496-1.576 2.762.868.496Zm1.577-2.762c.398-.697.548-1.406.33-2.085-.215-.668-.752-1.196-1.487-1.616l-.496.869c.62.354.922.715 1.03 1.053.106.328.064.741-.245 1.283l.868.496Zm-1.157-3.7c-.702-.402-1.423-.537-2.128-.32l.296.956c.377-.116.81-.068 1.336.232l.496-.869Zm-2.128-.32c-.694.216-1.235.723-1.643 1.437l.869.496c.32-.56.683-.857 1.07-.977l-.296-.955Zm-1.643 1.437-1.477 2.587.868.496 1.478-2.587-.869-.496Zm-1.291 3.27 3.96 2.26.496-.867-3.96-2.262-.496.869ZM26.17 30.37c.47-.825.636-1.66.414-2.474l-.965.264c.136.495.057 1.057-.318 1.714l.869.496Zm.416-2.467c-.213-.823-.761-1.462-1.571-1.924l-.496.869c.626.357.967.795 1.099 1.305l.968-.25Zm-1.571-1.924c-.81-.462-1.636-.609-2.445-.364l.29.957c.49-.148 1.032-.082 1.659.276l.496-.869Zm-2.432-.367c-.813.222-1.448.789-1.92 1.614l.87.496c.375-.657.818-1.01 1.314-1.146l-.264-.965Zm-1.92 1.614-1.616 2.83.869.497 1.616-2.831-.868-.496Zm-1.43 3.513 4.638 2.648.496-.869-4.637-2.648-.496.869Zm5.32 2.462 1.616-2.831-.868-.496-1.616 2.83.868.497ZM34.42 11.372c.753.775 1.335 1.604 1.746 2.487.403.873.621 1.748.655 2.626l1.655.01-.032 1.23-1.725-.025c-.205 1.09-.723 2.04-1.555 2.848-.813.79-1.749 1.28-2.808 1.473-1.058.173-2.145.049-3.261-.373-1.107-.43-2.138-1.139-3.095-2.124-.957-.985-1.635-2.037-2.034-3.155-.398-1.137-.49-2.228-.277-3.271.213-1.063.726-1.989 1.54-2.779.812-.79 1.748-1.27 2.807-1.444 1.058-.192 2.146-.068 3.261.373 1.116.422 2.157 1.13 3.123 2.124Zm-.217 8.186a3.72 3.72 0 0 0 1.045-1.851l-2.376-.035.018-1.244 2.447.021c-.056-.67-.254-1.352-.593-2.045a7.867 7.867 0 0 0-1.428-1.987c-.77-.794-1.597-1.376-2.478-1.747-.88-.371-1.732-.502-2.554-.39a3.59 3.59 0 0 0-2.108 1.015 3.674 3.674 0 0 0-1.091 2.092c-.125.809-.015 1.659.33 2.55.346.892.904 1.734 1.675 2.528s1.597 1.376 2.478 1.747c.872.362 1.714.492 2.526.39a3.742 3.742 0 0 0 2.109-1.044Z"/><path fill="#502C1D" d="m36.166 13.859.455-.21-.001-.001-.453.21Zm.655 2.626-.5.02.02.477.477.003.003-.5Zm1.655.01.5.013.013-.51-.51-.003-.003.5Zm-.032 1.23-.007.5.494.007.013-.494-.5-.013Zm-1.725-.025.007-.5-.421-.006-.078.414.492.092Zm-4.363 4.32.081.494.009-.001-.09-.492Zm-3.261-.372-.182.466.005.002.177-.468Zm-5.128-5.28-.472.166v.003l.471-.168Zm-.278-3.27.49.1v-.002l-.49-.098Zm4.347-4.223.08.494.009-.002-.09-.492Zm3.261.373-.183.465.007.003.176-.468Zm3.95 8.459.487.114.143-.605-.622-.01-.007.5Zm-2.375-.035-.5-.007-.007.5.5.007.007-.5Zm.018-1.244.005-.5-.498-.005-.007.498.5.007Zm2.447.021-.005.5.549.005-.046-.547-.498.042Zm-.593-2.045.45-.22-.002-.002-.448.222Zm-3.906-3.734.194-.461-.194.46Zm-2.554-.39.062.495h.005l-.067-.496Zm-3.2 3.107-.493-.082v.005l.494.077Zm.331 2.55-.466.18.466-.18Zm4.153 4.275-.194.461.003.001.191-.462Zm2.526.39.062.497.011-.002-.073-.494Zm1.968-8.881c.718.739 1.266 1.522 1.651 2.349l.907-.422c-.438-.94-1.054-1.813-1.84-2.624l-.718.697Zm1.65 2.347c.378.82.578 1.63.61 2.437l.999-.04c-.037-.949-.273-1.888-.7-2.815l-.909.418Zm1.106 2.917 1.655.01.006-1-1.655-.01-.006 1Zm1.158-.503-.032 1.23 1 .026.032-1.23-1-.026Zm.475.743-1.725-.025-.014 1 1.725.025.014-1Zm-2.224.383c-.184.984-.65 1.842-1.411 2.582l.697.717c.902-.877 1.473-1.918 1.697-3.115l-.983-.184Zm-1.411 2.582c-.746.724-1.593 1.166-2.549 1.339l.179.984c1.162-.21 2.186-.751 3.067-1.606l-.697-.717Zm-2.54 1.337c-.963.158-1.961.048-3.005-.347l-.353.936c1.189.449 2.364.587 3.52.398l-.162-.987Zm-3-.345c-1.03-.4-2.003-1.065-2.918-2.006l-.717.697c1 1.028 2.09 1.78 3.272 2.241l.363-.932Zm-2.918-2.006c-.914-.942-1.55-1.934-1.92-2.975l-.942.336c.426 1.195 1.146 2.307 2.145 3.335l.717-.696Zm-1.92-2.973c-.372-1.063-.452-2.061-.26-3.005l-.98-.2c-.233 1.143-.128 2.325.297 3.536l.943-.33Zm-.26-3.007c.194-.959.655-1.795 1.399-2.518l-.697-.717c-.882.857-1.447 1.872-1.681 3.038l.98.197Zm1.399-2.518c.744-.723 1.588-1.154 2.54-1.31l-.162-.986c-1.165.19-2.193.722-3.075 1.579l.697.717Zm2.548-1.31c.957-.174 1.95-.065 2.989.345l.367-.93c-1.192-.47-2.374-.61-3.535-.4l.179.984Zm2.996.348c1.037.392 2.018 1.054 2.94 2.005l.718-.697c-1.009-1.039-2.11-1.792-3.305-2.244l-.353.936Zm3.43 10.201a4.22 4.22 0 0 0 1.183-2.096l-.973-.23a3.22 3.22 0 0 1-.907 1.609l.697.717Zm.704-2.71-2.376-.035-.014 1 2.375.035.015-1Zm-1.883.472.018-1.244-1-.014-.018 1.244 1 .014Zm-.486-.751 2.446.021.01-1-2.447-.021-.01 1Zm2.95-.52c-.063-.741-.28-1.483-.643-2.224l-.898.44c.316.645.493 1.267.544 1.867l.996-.084Zm-.644-2.226a8.366 8.366 0 0 0-1.517-2.113l-.717.696a7.367 7.367 0 0 1 1.338 1.86l.896-.443Zm-1.517-2.113c-.81-.835-1.69-1.46-2.643-1.86l-.388.922c.81.34 1.582.881 2.314 1.634l.717-.696Zm-2.643-1.86c-.95-.4-1.892-.55-2.815-.425l.134.99c.72-.096 1.482.015 2.293.357l.388-.922Zm-2.81-.426a4.089 4.089 0 0 0-2.395 1.153l.697.718a3.09 3.09 0 0 1 1.822-.879l-.124-.992Zm-2.395 1.153a4.174 4.174 0 0 0-1.236 2.37l.987.162c.117-.713.43-1.313.946-1.814l-.697-.718Zm-1.236 2.374c-.14.91-.014 1.849.358 2.808l.933-.361c-.32-.824-.413-1.585-.303-2.294l-.988-.153Zm.358 2.808c.373.963.972 1.861 1.782 2.695l.718-.696c-.732-.754-1.25-1.54-1.567-2.36l-.933.36Zm1.782 2.695c.81.835 1.691 1.46 2.643 1.86l.388-.921c-.81-.342-1.582-.882-2.313-1.635l-.718.696Zm2.645 1.861c.94.39 1.87.538 2.78.425l-.124-.992c-.714.089-1.468-.023-2.272-.356l-.384.923Zm2.791.423a4.241 4.241 0 0 0 2.384-1.18l-.697-.717a3.243 3.243 0 0 1-1.833.908l.146.99Z"/><path stroke="#502C1D" stroke-linecap="round" stroke-linejoin="round" stroke-width="3" d="M59.439 62.519 51.34 79.872m6.942-37.021s2.314-2.455 2.314-4.628c0-3.084-2.314-4.627-2.314-4.627m9.255 9.255s2.314-2.455 2.314-4.628c0-3.084-2.314-4.627-2.314-4.627m9.256 9.255s2.313-2.455 2.313-4.628c0-3.084-2.313-4.627-2.313-4.627"/><path stroke="#502C1D" stroke-linejoin="round" stroke-width="3" d="M77.95 69.46H57.124"/><path stroke="#502C1D" stroke-linecap="round" stroke-linejoin="round" stroke-width="3" d="m75.636 62.519 4.859 10.412m2.082 6.941a3.47 3.47 0 1 0 0-6.941 3.47 3.47 0 0 0 0 6.941Z"/><path stroke="#502C1D" stroke-width="3" d="M67.537 63.676a16.197 16.197 0 0 0 16.14-14.809 1.301 1.301 0 0 0-1.331-1.388H52.729a1.302 1.302 0 0 0-1.33 1.388 16.197 16.197 0 0 0 16.138 14.809Z"/></svg>