<svg width="32" height="32" viewBox="0 0 34 34" fill="none" xmlns="http://www.w3.org/2000/svg">
<path d="M7.57978 10.0298L7.57976 10.0298L7.57643 10.0332L6.71135 10.9149C5.55347 12.0747 5.54904 13.991 6.71448 15.1383C7.46999 15.8945 7.91316 16.9314 8.03626 18.0541C8.18117 19.3938 8.76112 20.6849 9.77963 21.6868C10.4164 22.3353 11.1914 22.8317 12.0468 23.1389C12.9037 23.4466 13.8191 23.5566 14.7245 23.4604C15.6299 23.3643 16.5019 23.0646 17.275 22.5838C18.0467 22.1039 18.7 21.456 19.1863 20.6885C20.4763 18.7404 20.4928 16.1305 19.2564 14.1669L19.2565 14.1669L19.2507 14.158C18.1332 12.4638 16.43 11.5166 14.6644 11.3523C13.5778 11.2449 12.6305 10.8869 11.9225 10.1823L11.916 10.1727L11.8909 10.1349L11.8593 10.1023C10.6682 8.87145 8.74713 8.86244 7.57978 10.0298ZM6.68269 16.1727L6.28329 15.5735L5.86146 16.1571C4.80446 17.6193 4.16667 19.3872 4.16667 21.3333C4.16667 24.2341 5.58248 26.7964 7.75262 28.402L7.88515 28.5H8.05H29.6667H30.1667V28V26.3333C30.1667 20.1069 26.0334 14.8342 20.3796 13.1052L19.0853 12.7094L19.8114 13.8516C21.1887 16.0181 21.1578 18.922 19.7492 21.0581L19.7492 21.0581L19.7455 21.0638C18.5046 23.0027 16.3638 24.1667 14.0667 24.1667C12.2483 24.1667 10.562 23.4689 9.3085 22.1848C8.21573 21.0608 7.53473 19.6634 7.36387 18.1471C7.30844 17.5964 7.14151 16.8609 6.68269 16.1727ZM26.9667 14.6667V15.1667H27.4667H29.55H30.05V14.6667V13C30.05 10.1746 27.5574 8.10001 24.75 8.10001H22.6333C22.1102 8.10001 21.5957 7.84017 21.2016 7.40571C20.807 6.97082 20.5667 6.39599 20.5667 5.83334C20.5667 4.74575 21.4884 3.90001 22.6333 3.90001H23.1333V3.40001V1.33334V0.833344H22.6333C19.7905 0.833344 17.5 3.12387 17.5 5.96668C17.5 8.80948 19.7905 11.1 22.6333 11.1H24.75C25.3586 11.1 25.9091 11.3126 26.3046 11.6949C26.6959 12.0731 26.9667 12.6472 26.9667 13.4333V14.6667ZM5.14769 10.9381L5.60046 11.3877L5.92875 10.8406C6.00376 10.7156 6.11059 10.579 6.24639 10.4274L7.10355 9.57023C7.21776 9.45602 7.34842 9.36311 7.52006 9.24296L8.00482 8.90363L7.58937 8.48229L5.46204 6.32479C5.60589 5.7565 5.44844 5.12729 5.02799 4.68773L5.02182 4.68128L5.01543 4.67506C4.68341 4.35186 4.23835 4.17102 3.775 4.17102C3.31165 4.17102 2.86659 4.35186 2.53457 4.67506L2.53454 4.67503L2.52978 4.67979C2.31202 4.89755 2.16582 5.15028 2.08642 5.41976C1.81694 5.49917 1.56421 5.64536 1.34645 5.86312C0.664611 6.54496 0.673075 7.65707 1.34051 8.34752L1.34731 8.35456L1.35439 8.36133C1.79725 8.78493 2.41692 8.93902 2.98891 8.79445L5.14769 10.9381ZM29.4435 5.17274C30.1215 4.30358 30.5333 3.22134 30.5333 2.03334V1.53334H30.0333H27.95H27.45V2.03334C27.45 3.14053 26.5072 4.08334 25.4 4.08334H24.9V4.58334V6.65001V7.15001H25.4C28.2122 7.15001 30.4333 9.44772 30.4333 12.2833V16.3333V16.8333H30.9333H33H33.5V16.3333V12.2842C33.5085 10.7364 33.0779 9.21803 32.2581 7.90517C31.5536 6.77691 30.5866 5.84024 29.4435 5.17274ZM33.5 29.6667V29.1667H33H3H2.5V29.6667C2.5 30.6833 2.90387 31.6584 3.62276 32.3772C4.34165 33.0961 5.31667 33.5 6.33333 33.5H29.6667C31.7928 33.5 33.5 31.7928 33.5 29.6667Z" fill="#C7893E" stroke="#502C1D"/>
</svg>
