<svg xmlns="http://www.w3.org/2000/svg" width="24" height="24" fill="none"><path fill="#c68739" d="m4.68 7.863.657-.67c.733-.733 1.946-.733 2.704.05l.025.039c.619.631 1.44.934 2.337 1.023 1.225.114 2.413.77 3.196 1.958.86 1.364.847 3.184-.05 4.535a4.196 4.196 0 0 1-6.544.695 4.146 4.146 0 0 1-1.213-2.527c-.101-.922-.468-1.793-1.112-2.438-.733-.72-.733-1.933 0-2.665ZM9.986 18.02a5.364 5.364 0 0 1-3.878-1.617c-.885-.91-1.44-2.047-1.58-3.285a2.918 2.918 0 0 0-.454-1.326 6.272 6.272 0 0 0-1.213 3.701c0 2.072 1.01 3.904 2.565 5.053H21.81v-1.263c0-4.548-3.02-8.4-7.15-9.664 1.124 1.768 1.098 4.13-.051 5.874a5.485 5.485 0 0 1-4.624 2.527ZM16.48 7.357h1.604c1.1 0 2.06.771 2.06 2.148v.935h1.578V9.177c0-1.895-1.68-3.336-3.638-3.336H16.48c-1.049 0-1.946-1.036-1.946-2.097 0-1.06.897-1.844 1.946-1.844V.333a3.505 3.505 0 0 0-3.513 3.512 3.505 3.505 0 0 0 3.513 3.512ZM3.493 7.345a2.53 2.53 0 0 1 .29-.38l.657-.656c.114-.114.24-.202.366-.29l-1.78-1.807a.946.946 0 0 0-.165-1.074.969.969 0 0 0-1.352 0 .932.932 0 0 0-.278.619.932.932 0 0 0-.619.278.969.969 0 0 0 0 1.352c.29.278.72.34 1.074.164l1.807 1.794ZM21.04 3.353A3.505 3.505 0 0 0 22.09.863h-1.58a1.958 1.958 0 0 1-1.932 1.934v1.566c2.35 0 4.194 1.92 4.194 4.27v3.07h1.566v-3.07a5.825 5.825 0 0 0-3.297-5.28ZM4.124 24.336h17.687a2.518 2.518 0 0 0 2.526-2.526H1.597a2.527 2.527 0 0 0 2.527 2.526Z"/></svg>