<svg width="32" height="32" viewBox="0 0 32 32" fill="none" xmlns="http://www.w3.org/2000/svg">
<path d="M10.436 2.82812L10.2118 2.69734L9.97583 2.80539C7.9248 3.74458 6.12024 5.14782 4.70469 6.90425L4.54874 7.09775L4.60884 7.3389L5.86084 12.3629L5.92517 12.621L6.1752 12.7119L9.2952 13.8459L9.54064 13.9351L9.75408 13.7847L15.2921 9.88066L15.504 9.73127V9.472V6.072V5.78483L15.256 5.64012L10.436 2.82812ZM1.73628 17.0099L1.54558 17.179L1.57037 17.4326C1.81086 19.893 2.67984 22.2502 4.09387 24.278L4.2431 24.492H4.504H9.47H9.73724L9.88573 24.2698L11.3197 22.1238L11.4533 21.9238L11.3805 21.6946L9.29054 15.1146L9.216 14.88L8.98455 14.796L5.89255 13.674L5.61288 13.5725L5.39027 13.7699L1.73628 17.0099ZM12.276 29.7905L12.3679 30.0438L12.6299 30.1063C14.8484 30.636 17.1602 30.6338 19.3781 30.1043L19.6401 30.0418L19.732 29.7886L21.362 25.2986L21.4484 25.0605L21.3076 24.85L19.8856 22.724L19.7371 22.502H19.47H12.536H12.2687L12.1202 22.7243L10.7002 24.8503L10.5597 25.0607L10.646 25.2985L12.276 29.7905ZM27.496 24.492H27.7569L27.9061 24.278C29.3202 22.2502 30.1891 19.893 30.4296 17.4326L30.4544 17.1794L30.2642 17.0104L26.6163 13.7664L26.3942 13.5689L26.1147 13.6695L22.9807 14.7975L22.7467 14.8818L22.6727 15.1191L20.6227 21.6931L20.5515 21.9215L20.6846 22.1202L22.1246 24.2702L22.2731 24.492H22.54H27.496ZM27.4011 7.35331L27.416 7.29358V7.232V7.23V7.05398L27.3057 6.91678C25.8899 5.155 24.083 3.74736 22.0284 2.80548L21.7922 2.69721L21.5678 2.82825L16.7498 5.64225L16.502 5.78699V6.074V9.474V9.73208L16.7124 9.88157L22.2064 13.7856L22.4194 13.9369L22.6653 13.8485L25.8333 12.7085L26.0843 12.6181L26.1491 12.3593L27.4011 7.35331ZM5.03984 5.03984C7.94666 2.13303 11.8891 0.5 16 0.5C20.1109 0.5 24.0533 2.13303 26.9601 5.03984C29.867 7.94666 31.5 11.8891 31.5 16C31.5 20.1109 29.867 24.0533 26.9601 26.9601C24.0533 29.867 20.1109 31.5 16 31.5C11.8891 31.5 7.94666 29.867 5.03984 26.9601C2.13303 24.0533 0.5 20.1109 0.5 16C0.5 11.8891 2.13303 7.94666 5.03984 5.03984Z" fill="#C7893E" stroke="#502C1D"/>
</svg>
