<svg xmlns="http://www.w3.org/2000/svg" width="24" height="24" ><path d="M12 0a12 12 0 1 0 0 24 12 12 0 0 0 0-24ZM7.638 2.445l3.615 2.109v2.55l-4.154 2.928-2.34-.85-.939-3.769a10.538 10.538 0 0 1 3.818-2.968ZM1.551 13.038l2.74-2.43 2.32.841 1.567 4.935-1.076 1.61H3.378a10.44 10.44 0 0 1-1.827-4.956Zm8.008 9.177-1.222-3.369 1.065-1.595h5.2l1.067 1.595-1.223 3.367c-1.606.384-3.28.386-4.886.002Zm11.063-4.221h-3.717l-1.08-1.613 1.538-4.93 2.35-.846 2.736 2.433a10.44 10.44 0 0 1-1.827 4.956Zm-.435-12.57-.939 3.754-2.376.855-4.12-2.927v-2.55l3.613-2.111a10.536 10.536 0 0 1 3.822 2.978v.001Z"/></svg>