<svg xmlns="http://www.w3.org/2000/svg" xml:space="preserve" width="32" height="32" viewBox="0 0 72 72"><path d="M61.568 4.5H10.432A6.933 6.933 0 0 0 3.5 11.432v49.136a6.933 6.933 0 0 0 6.932 6.933h51.136a6.933 6.933 0 0 0 6.932-6.933h.001V11.432A6.933 6.933 0 0 0 61.568 4.5zM7.5 60.568v-9.591l14.159-20.253c.437-.625 1.046-1.002 1.716-1.061.677-.067 1.337.206 1.876.745l12.44 12.439-15.372 20.654H10.432A2.933 2.933 0 0 1 7.5 60.568zm57.001 0a2.933 2.933 0 0 1-2.933 2.933H24.811l17.733-23.823c.464-.621 1.112-.998 1.828-1.061.722-.061 1.419.195 1.981.727l10.938 10.318c.4.379 1.034.359 1.414-.041a1.002 1.002 0 0 0-.041-1.414L47.727 37.889c-.984-.928-2.242-1.38-3.531-1.264-1.291.113-2.447.773-3.256 1.859l-2.041 2.742-12.233-12.232c-.966-.966-2.196-1.432-3.466-1.323-1.27.111-2.4.789-3.18 1.907L7.5 47.487V11.432A2.932 2.932 0 0 1 10.432 8.5h51.136a2.932 2.932 0 0 1 2.932 2.932h.001v49.136z"/><path d="M61.076 50.48a1 1 0 1 0-1.373 1.453l1.195 1.129a.999.999 0 0 0 1.413-.041.998.998 0 0 0-.039-1.412l-1.196-1.129zM44.771 12.372c-4.766 0-8.642 3.876-8.642 8.641 0 4.765 3.876 8.642 8.642 8.642 4.764 0 8.642-3.877 8.642-8.642s-3.877-8.641-8.642-8.641zm0 15.284c-3.662 0-6.642-2.979-6.642-6.642s2.979-6.641 6.642-6.641 6.642 2.978 6.642 6.641-2.979 6.642-6.642 6.642z"/></svg>