<!-- <svg xmlns="http://www.w3.org/2000/svg" xml:space="preserve" fill-rule="evenodd" clip-rule="evenodd" image-rendering="optimizeQuality" shape-rendering="geometricPrecision" text-rendering="geometricPrecision" viewBox="0 0 50 64.71"><path fill="#c68739" fill-rule="nonzero" d="M28.11 62.65c-.88.01-1.69-.36-2.26-.96-.33-.33-.58-.73-.73-1.17h-.5c-.14.45-.39.83-.73 1.17-.56.59-1.39.95-2.27.95-1.75 0-3.19-1.45-3.17-3.19 0-1.66 1.27-3.02 2.87-3.17.1-.01.21-.01.32-.02.46.01.88.11 1.28.28l.04-14.66c.61.25 1.27.38 1.97.38.68 0 1.35-.12 1.97-.36l-.04 14.65c.39-.17.82-.27 1.28-.26.11-.01.2 0 .31.02 1.61.15 2.87 1.52 2.86 3.18 0 1.75-1.44 3.17-3.2 3.16zm-13.25-48.7c-.21-1.12-.1-2.33.3-3.43a7.549 7.549 0 0 1 1.89-2.98c.85-.83 1.9-1.47 3.02-1.84 1.1-.37 2.31-.48 3.43-.24-1.12.22-2.17.54-3.13 1a10.031 10.031 0 0 0-4.46 4.37c-.48.96-.82 2-1.05 3.12zm18.05 45.53c.01-2.53-1.97-4.6-4.46-4.77l.04-13.8c.51-.43.92-.97 1.24-1.61l8.63-17.14a14.92 14.92 0 0 0-2.75-17.28A14.87 14.87 0 0 0 25.05.47c-4-.02-7.76 1.53-10.6 4.35a14.97 14.97 0 0 0-2.86 17.27l8.55 17.18c.31.63.74 1.18 1.23 1.62l-.04 13.79c-2.5.16-4.47 2.24-4.48 4.76 0 2.64 2.14 4.79 4.77 4.79 1.25 0 2.39-.47 3.25-1.27.85.8 1.98 1.29 3.24 1.28a4.78 4.78 0 0 0 4.8-4.76z"/></svg> -->
<svg xmlns="http://www.w3.org/2000/svg" xml:space="preserve" fill-rule="evenodd" clip-rule="evenodd" image-rendering="optimizeQuality" shape-rendering="geometricPrecision" text-rendering="geometricPrecision" viewBox="0 0 24 8"><path fill="#c68739" fill-rule="nonzero" d="M23.21 3.2c.01.23-.13.44-.35.58-.13.09-.27.15-.44.19v.12c.17.04.31.1.44.19.21.14.35.35.35.58 0 .44-.54.81-1.18.81-.62 0-1.12-.33-1.18-.74 0-.02 0-.05-.01-.08.01-.11.04-.22.11-.32l-5.44-.01c.1-.16.14-.33.14-.5 0-.18-.04-.35-.13-.51l5.43.01c-.06-.1-.1-.21-.09-.32a.11.11 0 0 1 0-.08c.06-.41.57-.73 1.18-.73.65 0 1.18.37 1.17.81zM5.16 6.58c-.42.05-.87.02-1.28-.08-.41-.09-.79-.26-1.1-.48-.31-.21-.55-.48-.68-.77-.14-.28-.18-.58-.09-.87.08.28.2.55.37.8.18.24.4.46.68.65.27.2.59.35.94.48.35.12.74.21 1.16.27zm16.88-4.6c-.94 0-1.71.5-1.77 1.14l-5.12-.01c-.16-.13-.36-.24-.59-.32L8.2.59C6.06-.15 3.49.14 1.79 1.3.74 2.01.16 2.97.16 3.99.15 5 .73 5.96 1.77 6.68c1.68 1.17 4.26 1.46 6.4.73l6.38-2.17c.23-.08.43-.19.59-.32l5.12.01c.06.64.83 1.14 1.76 1.14.98 0 1.78-.54 1.78-1.21 0-.32-.18-.61-.47-.83.3-.22.47-.5.47-.83.01-.67-.78-1.21-1.76-1.22z"/></svg>