<svg xmlns="http://www.w3.org/2000/svg" xml:space="preserve" width="16" height="16" viewBox="0 0 512 512" fill="#4f2b1c">
  <path d="M480.201 31.805C439.33-9.066 301.065-17.08 236.997 47.004c-17.78 17.78-22.839 46.434-27.741 74.149-4.723 26.749-9.614 54.406-25.453 70.25-10.979 10.974-35.078 14.527-58.379 17.964-29.295 4.319-59.576 8.78-78.427 27.636C-17.07 301.082-9.062 439.341 31.8 480.202 51.532 499.929 93.957 512 139.783 512c49.09 0 102.074-13.855 135.21-46.996 18.851-18.851 23.322-49.132 27.636-78.416 3.443-23.306 7.001-47.411 17.969-58.384 15.838-15.838 43.496-20.73 70.25-25.458 27.71-4.896 56.364-9.961 74.144-27.741 64.079-64.074 56.071-202.333 15.209-243.2zm-30.407 228.001c-12.994 12.989-37.135 17.256-62.693 21.774-30.029 5.306-61.077 10.795-81.701 31.425-16.007 16.001-19.901 42.446-24.036 70.444-3.81 25.826-7.746 52.533-21.569 66.356-53.603 53.609-178.433 49.552-212.797 15.198C12.655 430.655 8.593 305.81 62.196 252.202c13.823-13.823 40.536-17.759 66.356-21.57 28.004-4.13 54.443-8.03 70.45-24.031 20.635-20.63 26.114-51.677 31.425-81.706 4.513-25.558 8.775-49.704 21.769-62.693 28.518-28.518 77.198-40.714 121.691-40.714 39.14 0 75.036 9.441 91.116 25.516 34.343 34.348 38.405 159.193-15.209 212.802z"/>
  <path d="M58.911 376.91c-3.149-4.125-1.816-25.327 2.75-43.627 1.428-5.757-2.078-11.593-7.83-13.031-5.773-1.422-11.598 2.063-13.026 7.82-3.684 14.705-10.758 50.365 2.823 63.947a10.816 10.816 0 0 0 7.662 3.17c2.75 0 5.49-1.039 7.578-3.123 4.2-4.198 4.241-10.962.043-15.156zM180.203 427.412c-4.083 0-7.63 2.272-9.446 5.615-7.148 2.797-31.593 5.127-55.041 5.133-5.941 0-10.748 4.812-10.748 10.748s4.807 10.748 10.748 10.748c75.236 0 75.236-13.986 75.236-21.496-.001-5.935-4.808-10.748-10.749-10.748zM180.203 362.924c-5.941 0-10.748 4.812-10.748 10.748 0 8.381-20.614 18.221-34.858 21.821-5.752 1.449-9.247 7.29-7.809 13.041 1.228 4.876 5.605 8.129 10.412 8.129.861 0 1.742-.1 2.614-.32 8.544-2.136 51.137-14.228 51.137-42.672 0-5.934-4.807-10.747-10.748-10.747zM168.899 316.532a10.724 10.724 0 0 0-13.592-6.796c-14.548 4.849-24.057 12.48-28.287 22.682-5.153 12.443-.021 23.359.577 24.566a10.749 10.749 0 0 0 14.422 4.807c5.311-2.656 7.463-9.111 4.807-14.422-.021-.031-1.354-3.327.053-6.728 1.69-4.067 7.095-7.798 15.23-10.512 5.625-1.878 8.669-7.966 6.79-13.597zM140.612 266.744c-32.485-10.843-50.843 5.82-56.007 16.138-2.656 5.311-.504 11.766 4.807 14.422a10.75 10.75 0 0 0 14.422-4.807c.063-.131 6.833-13.089 29.977-5.358a10.72 10.72 0 0 0 13.592-6.796c1.879-5.633-1.165-11.72-6.791-13.599zM244.691 309.185c-5.941 0-10.748 4.812-10.748 10.748 0 48.728-7.295 56.579-7.599 56.889-4.198 4.198-4.198 11 0 15.198 2.099 2.099 4.849 3.149 7.599 3.149s5.5-1.049 7.599-3.149c5.962-5.967 13.897-19.927 13.897-72.087 0-5.936-4.807-10.748-10.748-10.748zM233.943 223.201c-5.941 0-10.748 4.812-10.748 10.748 0 10.103-21.118 10.743-21.527 10.748-5.92.016-10.716 4.823-10.716 10.748 0 5.936 4.807 10.748 10.748 10.748 14.873 0 42.992-6.738 42.992-32.244-.001-5.936-4.808-10.748-10.749-10.748zM309.179 223.201c-28.444 0-40.536 42.593-42.666 51.132-1.438 5.757 2.057 11.582 7.809 13.026.871.22 1.753.325 2.624.325 4.807 0 9.184-3.254 10.412-8.124 3.6-14.248 13.435-34.863 21.821-34.863 5.941 0 10.748-4.812 10.748-10.748s-4.807-10.748-10.748-10.748zM306.114 161.951c-3.149-4.125-1.816-25.327 2.75-43.627 1.428-5.757-2.078-11.593-7.83-13.031-5.763-1.443-11.588 2.063-13.026 7.82-3.684 14.705-10.758 50.365 2.823 63.947a10.816 10.816 0 0 0 7.662 3.17c2.75 0 5.49-1.039 7.578-3.123 4.2-4.198 4.241-10.963.043-15.156zM384.415 94.225c-25.222 0-48.072 22.12-50.591 24.645-4.188 4.193-4.188 10.979-.01 15.177 2.099 2.104 4.86 3.159 7.61 3.159s5.49-1.039 7.589-3.123c5.143-5.106 21.538-18.363 35.403-18.363 5.941 0 10.748-4.812 10.748-10.748s-4.809-10.747-10.749-10.747zM398.563 51.785c-19.638-6.555-32.37-7.032-40.053-1.485-5.878 4.235-6.34 10.013-6.34 11.682 0 5.936 4.807 10.748 10.748 10.748 3.716 0 7.001-1.889 8.922-4.76 2.697-.042 8.344.352 19.922 4.209 1.134.378 2.277.556 3.401.556 4.503 0 8.691-2.85 10.192-7.353 1.878-5.631-1.166-11.719-6.792-13.597zM459.661 94.231h-.01c-5.93 0-10.737 4.807-10.748 10.732 0 .299-.157 30.029-9.614 48.943-2.656 5.311-.504 11.766 4.807 14.422a10.75 10.75 0 0 0 14.422-4.807c11.745-23.496 11.882-57.125 11.882-58.547-.002-5.931-4.809-10.738-10.739-10.743zM435.005 204.854c-4.198-4.198-11-4.198-15.198 0-.168.157-16.437 15.807-30.585 8.733-5.311-2.65-11.756-.504-14.422 4.807-2.656 5.311-.504 11.766 4.807 14.422 6.004 3.002 11.924 4.188 17.529 4.188 20.614 0 37.009-16.085 37.87-16.951 4.198-4.199 4.198-11.001-.001-15.199zM395.467 137.391c-5.71-.042-10.706 4.477-11.042 10.286-.042.583-1.113 14.406-24.907 22.336-5.626 1.879-8.67 7.966-6.791 13.598a10.748 10.748 0 0 0 10.192 7.353c1.123 0 2.267-.179 3.401-.556 39.14-13.046 39.591-41.244 39.591-42.441-.001-5.817-4.629-10.409-10.444-10.576z"/>
</svg>