<svg xmlns="http://www.w3.org/2000/svg" width="25" height="30" fill="#c68739"><path d="M6.866 1.93a1.091 1.091 0 1 0-2.152-.358L.347 27.77a1.092 1.092 0 1 0 2.153.358l1.463-8.776c1.76.257 3.66.342 5.159 1.392a7.203 7.203 0 0 0 3.126 1.273c2.109.32 3.995-.84 6.078-.51l2.814.423c.567.087 1.157-.35 1.242-.917l1.93-12.955.009-.009a1.131 1.131 0 0 0-.933-1.23l-2.814-.424c-2.102-.313-3.993.814-6.075.502a6.112 6.112 0 0 1-2.596-1.042C10.289 4.727 8.368 4.54 6.476 4.273l.393-2.345-.003.002ZM5.578 9.654l.72-4.305c1.308.179 2.693.282 3.904.805l-.644 4.29c-1.244-.508-2.65-.607-3.98-.79Zm-1.434 8.624.72-4.31c1.354.188 2.788.284 4.057.803l.655-4.314c1.436.59 2.53 1.6 4.132 1.836l.655-4.322c1.612.242 2.945-.387 4.493-.511l-.655 4.292c-1.55.131-2.89.786-4.497.546l-.624 4.318c-1.607-.24-2.703-1.255-4.146-1.842l-.655 4.313c-1.3-.521-2.757-.613-4.135-.81Zm8.938-1.66c1.602.24 2.95-.419 4.5-.548l.62-4.318c1.43-.13 2.892.242 4.296.456l-.611 4.314c-1.407-.211-2.874-.587-4.303-.452l-.655 4.314c-1.548.105-2.915.786-4.502.546l.653-4.314.002.002Z"/></svg>