<svg width="32" height="32" viewBox="0 0 32 36" fill="none" xmlns="http://www.w3.org/2000/svg">
<path d="M9.31467 2.21868C9.34924 2.04358 9.34831 1.86333 9.31193 1.68859C9.27555 1.51386 9.20446 1.34822 9.10288 1.20147C9.00129 1.05472 8.87128 0.929866 8.72054 0.834298C8.56981 0.73873 8.40142 0.674398 8.22536 0.645114C8.0493 0.61583 7.86916 0.622192 7.6956 0.663821C7.52205 0.70545 7.35861 0.781499 7.215 0.887461C7.07138 0.993423 6.95049 1.12714 6.85951 1.28069C6.76853 1.43423 6.7093 1.60448 6.68534 1.78134L1.352 33.7814C1.31743 33.9564 1.31836 34.1367 1.35474 34.3114C1.39112 34.4862 1.46221 34.6518 1.56379 34.7986C1.66538 34.9453 1.79539 35.0702 1.94613 35.1657C2.09686 35.2613 2.26525 35.3256 2.44131 35.3549C2.61737 35.3842 2.79752 35.3778 2.97107 35.3362C3.14463 35.2946 3.30806 35.2185 3.45167 35.1126C3.59529 35.0066 3.71618 34.8729 3.80716 34.7193C3.89814 34.5658 3.95737 34.3955 3.98134 34.2187L5.768 23.4987C7.91734 23.8133 10.24 23.9173 12.0693 25.2C13.2012 26.0133 14.51 26.5462 15.888 26.7547C18.464 27.144 20.768 25.728 23.312 26.1307L26.7493 26.648C27.4427 26.7547 28.1627 26.2213 28.2667 25.528L30.624 9.70401L30.6347 9.69335C30.6709 9.34501 30.5734 8.99592 30.362 8.71671C30.1507 8.43749 29.8411 8.24899 29.496 8.18935L26.0587 7.67201C23.4907 7.29068 21.1813 8.66668 18.6373 8.28535C17.4963 8.11208 16.4111 7.67668 15.4667 7.01335C13.496 5.63468 11.1493 5.40535 8.83734 5.08001L9.31734 2.21601L9.31467 2.21868ZM7.74134 11.6533L8.62133 6.39468C10.2187 6.61335 11.9093 6.73868 13.3893 7.37868L12.6027 12.6187C11.0827 11.9973 9.36534 11.8773 7.74134 11.6533ZM5.98934 22.1867L6.86934 16.9227C8.52267 17.152 10.2747 17.2693 11.824 17.904L12.624 12.6347C14.3787 13.3547 15.7147 14.5893 17.672 14.8773L18.472 9.59735C20.44 9.89335 22.0693 9.12535 23.96 8.97335L23.16 14.216C21.2667 14.376 19.6293 15.176 17.6667 14.8827L16.904 20.1573C14.9413 19.864 13.6027 18.624 11.84 17.9067L11.04 23.176C9.45333 22.5387 7.672 22.4267 5.98934 22.1867ZM16.9067 20.16C18.864 20.4534 20.5093 19.648 22.4027 19.4907L23.16 14.216C24.9067 14.056 26.6933 14.512 28.408 14.7733L27.6613 20.0427C25.944 19.784 24.152 19.3253 22.4053 19.4907L21.6053 24.76C19.7147 24.888 18.0453 25.72 16.1067 25.4267L16.904 20.1573L16.9067 20.16Z" fill="#C7893E"/>
<path d="M23.16 14.216L23.96 8.97335C22.0693 9.12535 20.44 9.89335 18.472 9.59735L17.672 14.8773C15.7147 14.5893 14.3787 13.3547 12.624 12.6347L11.824 17.904C10.2747 17.2693 8.52267 17.152 6.86934 16.9227L5.98934 22.1867C7.672 22.4267 9.45333 22.5387 11.04 23.176L11.84 17.9067C13.6027 18.624 14.9413 19.864 16.904 20.1573M23.16 14.216C21.2667 14.376 19.6293 15.176 17.6667 14.8827L16.904 20.1573M23.16 14.216L22.4027 19.4907C20.5093 19.648 18.864 20.4534 16.9067 20.16L16.904 20.1573M23.16 14.216C24.9067 14.056 26.6933 14.512 28.408 14.7733L27.6613 20.0427C25.944 19.784 24.152 19.3253 22.4053 19.4907L21.6053 24.76C19.7147 24.888 18.0453 25.72 16.1067 25.4267L16.904 20.1573M9.31467 2.21868C9.34924 2.04358 9.34831 1.86333 9.31193 1.68859C9.27555 1.51386 9.20446 1.34822 9.10288 1.20147C9.00129 1.05472 8.87128 0.929866 8.72054 0.834298C8.56981 0.73873 8.40142 0.674398 8.22536 0.645114C8.0493 0.61583 7.86916 0.622192 7.6956 0.663821C7.52205 0.70545 7.35861 0.781499 7.215 0.887461C7.07138 0.993423 6.95049 1.12714 6.85951 1.28069C6.76853 1.43423 6.7093 1.60448 6.68534 1.78134L1.352 33.7814C1.31743 33.9564 1.31836 34.1367 1.35474 34.3114C1.39112 34.4862 1.46221 34.6518 1.56379 34.7986C1.66538 34.9453 1.79539 35.0702 1.94613 35.1657C2.09686 35.2613 2.26525 35.3256 2.44131 35.3549C2.61737 35.3842 2.79752 35.3778 2.97107 35.3362C3.14463 35.2946 3.30806 35.2185 3.45167 35.1126C3.59529 35.0066 3.71618 34.8729 3.80716 34.7193C3.89814 34.5658 3.95737 34.3955 3.98134 34.2187L5.768 23.4987C7.91734 23.8133 10.24 23.9173 12.0693 25.2C13.2012 26.0133 14.51 26.5462 15.888 26.7547C18.464 27.144 20.768 25.728 23.312 26.1307L26.7493 26.648C27.4427 26.7547 28.1627 26.2213 28.2667 25.528L30.624 9.70401L30.6347 9.69335C30.6709 9.34501 30.5734 8.99592 30.362 8.71671C30.1507 8.43749 29.8411 8.24899 29.496 8.18935L26.0587 7.67201C23.4907 7.29068 21.1813 8.66668 18.6373 8.28535C17.4963 8.11208 16.4111 7.67668 15.4667 7.01335C13.496 5.63468 11.1493 5.40535 8.83734 5.08001L9.31734 2.21601L9.31467 2.21868ZM7.74134 11.6533L8.62133 6.39468C10.2187 6.61335 11.9093 6.73868 13.3893 7.37868L12.6027 12.6187C11.0827 11.9973 9.36534 11.8773 7.74134 11.6533Z" stroke="#502C1D"/>
</svg>
