<svg xmlns="http://www.w3.org/2000/svg" xml:space="preserve" fill="#4f2b1c" width="24" height="24" viewBox="0 0 507.965 507.965"><path d="M507.083 238.166c-2.7-7.3-10.8-11-18.1-8.3-20 7.4-40.4 13.7-61 19.1l-35.7-172.3c-8-40.8-50.9-67.6-93.8-52.7-28.7 10.3-60.3 10.3-89 0-40.6-13.9-84 8.8-93.9 52.7l-35.6 172.3c-20.7-5.4-41-11.7-61-19.1-7.3-2.7-15.4 1-18.1 8.3-2.7 7.3 1 15.4 8.3 18.1 160.5 57.6 328.9 57.8 489.6 0 7.3-2.7 11-10.8 8.3-18.1zm-399.6 17.4 13.1-63.2h35.6c7.8 0 14.1-6.3 14.1-14.1s-6.3-14.1-14.1-14.1h-29.7l5.8-28.2h59.2c7.8 0 14.1-6.3 14.1-14.1s-6.3-14.1-14.1-14.1h-53.3l5.2-25.3c4.4-22.1 29-41.2 56.7-31.8 34.8 12.5 73.2 12.5 108 0 29.3-9.5 52.5 10.7 56.7 31.8l35.8 173.1c-96.1 20.9-197.1 20.9-293.1 0zM450.183 399.566c-8.2-34.8-46.9-61.3-93.3-61.3-44.3 0-81.4 24-91.9 56.4-7.7-1.8-14.1-1.8-21.8 0-10.5-32.4-47.7-56.5-92-56.5-46.5 0-85.2 26.5-93.3 61.3-6.2 1.5-10.9 7-10.9 13.7s4.7 12.2 10.9 13.7c8.2 34.8 46.9 61.3 93.3 61.3 48 0 87.7-28.3 94-64.8 7-2.4 10.7-2.5 17.6-.1 6.2 36.6 46 64.9 94.1 64.9 46.5 0 85.1-26.5 93.3-61.3 6.2-1.5 10.9-7 10.9-13.7 0-6.5-4.7-12.1-10.9-13.6zm-299 60.5c-36.2 0-66.8-21.4-66.8-46.7 0-25.3 30.6-46.8 66.8-46.8s66.8 21.4 66.8 46.8-30.6 46.7-66.8 46.7zm205.6 0c-36.2 0-66.8-21.4-66.8-46.7 0-25.3 30.6-46.8 66.8-46.8 36.2 0 66.8 21.4 66.8 46.8s-30.6 46.7-66.8 46.7z"/></svg>