<svg xmlns="http://www.w3.org/2000/svg" xml:space="preserve" fill="#c68739" viewBox="0 0 155 290">
  <g>
    <g>
      <path d="M74.04 216.86c26.07-11.23 46.46-2.27 47.21-36.12-29.05 0-42.74 4.68-63.09 11.92-11.03 3.92-14.94 5.82-26.97 10.52-38.34 14.99-39.83 49.29 42.85 13.68zM137.75 73.84l.17-1.43c-3.94-1.14-69.51-37.5-137.5-37.5C14.08 60.73 71.85 71.69 99.9 81.27c19.61 6.71 36.29 10.05 37.85-7.43z"/>
      <path d="M104.58 288.42c20.97-3.3 45.16-28.56 50-49.34-18.77.42-22.28 3.51-32.39 13.44-9.16 9-34.9 29.03-17.61 35.9z" />
      <path d="M112.92 143.24c-6.02-22.53-43.61-20.83-66.67-20.83 5.51 20.61 45.73 20.83 66.67 20.83z" />
      <path d="M137.92 34.91c-9.13-17.25-15.86-28.29-37.5-33.33 5.46 10.31 3.96 11.47 13.44 19.88 6.81 6.04 14.83 10.99 24.06 13.45z" />
    </g>
  </g>
</svg>