<svg xmlns="http://www.w3.org/2000/svg" xml:space="preserve" fill="#c68739" viewBox="0 0 172 297">
  <g>
    <g>
      <path d="M28.66 194.87c1.49 2.36 142.76 64.39 142.76 34.95 0-15.15-14.96-17.37-25.73-20.11-13.94-3.54-23.85-5.85-36.75-9.08-23.54-5.9-71.44-13.89-79.19-12.48l-1.09 6.72z" />
      <path d="M12.89 104.82C24.26 106.87 64.4 91 79.79 84.03l58.29-29.21c2.93-10.52.64-20.82-16.04-18.96L22.57 85.23c-.03.02-7.55 4.24-7.84 4.5-6.03 5.38-3.91 7.7-1.84 15.09z" />
      <path d="M54.75 146.48c22.42 0 61.07-1.64 75-8.33-13.08-17.85-35.97-11.93-54.05-8.21-16.34 3.35-17.08 2.05-20.95 16.54zM.58 46.48c14.11 11.79 25.24-6.64 34.39-15.61C46.95 19.12 50.1 22.17 50.58.65 31.46 2.24 11.36 30.39.58 46.48z" />
      <path d="M79.75 295.21c1.22.43 5.6 4.8 2.68-7.06-9.38-21.37-30.1-25.55-52.68-37.5 1.33 15.97 6.53 19.08 18.24 27.59 12.01 8.72 19.42 12.68 31.76 16.97z" />
    </g>
  </g>
</svg>