<svg xmlns="http://www.w3.org/2000/svg" width="24" height="24" fill="#d09d5c"><path stroke="#502C1D" d="m15.887 6.275-2.561-4.84c-.564-1.064-2.088-1.064-2.652 0l-2.561 4.84a.5.5 0 0 1-.356.259l-5.395.94c-1.186.208-1.657 1.658-.819 2.522l3.81 3.932a.5.5 0 0 1 .137.419l-.772 5.42c-.17 1.193 1.064 2.089 2.145 1.559l4.917-2.41a.5.5 0 0 1 .44 0l4.917 2.41c1.081.53 2.315-.366 2.145-1.559l-.772-5.42a.5.5 0 0 1 .136-.419l3.811-3.932c.838-.864.367-2.314-.82-2.521l-5.393-.941a.5.5 0 0 1-.357-.259Z"/><path stroke="#502C1D" stroke-width=".5" d="M5.325 9.809a.329.329 0 0 1-.053-.653l.219-.036a.327.327 0 0 1 .377.272.329.329 0 0 1-.272.377l-.218.036a.32.32 0 0 1-.053.004Zm1.207-.196a.329.329 0 0 1-.062-.652l3.558-.686 1.342-3.078a.329.329 0 0 1 .603.263L10.56 8.696a.33.33 0 0 1-.239.192l-3.728.72a.312.312 0 0 1-.062.005Z"/></svg>