<svg xmlns="http://www.w3.org/2000/svg" xml:space="preserve" fill-rule="evenodd" viewBox="0 0 300 300">
  <path d="M46.02 13.73c1.71-5.98 7.18-10.1 13.4-10.11h181.22c6.22.01 11.69 4.13 13.4 10.11 3.16 11.46 6.28 23.19 9.03 34.8 4.75 19.66 10.17 44.79 12.31 65.15.65 6.38 1.11 13.24 1.39 20.24 2.18 52.97-42.66 92.73-93.54 92.73l-19.26.02v41.82h41.82c7.7 0 13.94 6.25 13.94 13.95 0 7.69-6.24 13.94-13.94 13.94H94.27c-7.7 0-13.94-6.25-13.94-13.94 0-7.7 6.24-13.95 13.94-13.95h41.82v-41.82h-19.32c-50.87 0-95.7-39.76-93.54-92.73.29-7 .74-13.86 1.41-20.24 2.13-20.35 7.55-45.49 12.29-65.15 2.71-11.64 5.95-23.35 9.06-34.81l.03-.01zm18 41.36c2.26-9.35 4.4-17.59 6.01-23.59h159.98c1.6 6 3.75 14.22 5.99 23.59 4.7 19.45 9.76 43.09 11.67 61.51.6 5.64 1 11.9 1.28 18.48 1.44 35.04-28.46 63.71-65.67 63.71h-66.51c-37.22 0-67.11-28.67-65.66-63.71.26-6.58.67-12.84 1.25-18.48 1.94-18.4 6.97-42.06 11.67-61.51h-.01zM214.63 95c1.62-.63 3.35-.96 5.09-.96 7.1 0 13.07 5.34 13.86 12.4l1.82 16.51c.23 2.04.34 4.09.34 6.14 0 30.78-24.95 55.75-55.73 55.76h-59.33c-30.79 0-55.76-24.97-55.76-55.76 0-2.3.14-4.6.42-6.88l1.16-9.2c.63-5.08 4-9.42 8.78-11.27 7.05-2.64 14.27-5.08 21.52-7.15 11.83-3.45 27.96-7.32 41.62-7.32 13.8 0 23.77 3.73 32.68 8.25 8.89 4.52 15.51 6.52 23.47 5.41 6.85-.95 13.65-3.43 20.08-5.93h-.02zm-92.48 48.03c0 7.7-6.24 13.94-13.94 13.94-7.7 0-13.94-6.24-13.94-13.94 0-7.7 6.24-13.94 13.94-13.94 7.7 0 13.94 6.24 13.94 13.94z"/>
</svg>