<svg xmlns="http://www.w3.org/2000/svg" xml:space="preserve" style="fill-rule:evenodd;clip-rule:evenodd;stroke-linejoin:round;stroke-miterlimit:2" viewBox="0 0 120 96">
  <path d="m30.233 22.177 7.487-6.104 5.008 9.109-2.433-10.54h9.396l-2.051 10.54 4.817-9.3 6.915 5.58-8.918 7.774 5.484 24.369 9.157-12.065 36.006-7.011s-1.24 10.969-2.527 13.974c0 0-17.026 1.669-23.989-.477L96.952 46.5l3.672-11.494-34.385 8.298-11.493 15.118-4.817-29.33s5.21-6.581 6.248-7.332l-3.291-2.647s-4.614 6.832-5.437 7.297c-.822.465-.322-9.371-.322-9.371l-4.471.035s1.037 7.19.537 9.193c0 0-3.183-2.468-5.973-7.046l-3.649 3.183s4.9 4.4 5.723 6.152c.823 1.753 1.216 6.51.894 7.976 0 0-4.149 2.325-4.399 2.54l4.399.179s-2.432 5.615-7.189 8.477c0 0 6.259-1.181 8.799-.358 0 0 .179-4.65.572-6.116 0 0 1.646 4.757 1.717 8.155 0 0-7.869.215-11.982-1.467 0 0 3.147-5.365 4.328-6.688l-6.403-.716s-.787-.25 0-.608c.787-.357 8.191-4.757 8.191-4.757s.537-5.651.93-6.152l-8.918-6.844Z" style="fill:#fff;fill-rule:nonzero"/>
  <path d="m37.54 49.127-5.447 11.966 15.771 17.595-.714.676-17.06-17.985 5.231-12.566M71.28 68.15l-9.416 10.626.993.478L73.21 68.466M93.006 48.907s-.775 7.083-2.54 11.137c0 0-14.03-.121-23.893-3.857 0 0 16.12.9 22.558 1.806l3.35-9.058" style="fill:#fff;fill-rule:nonzero"/>
  <path d="M85.783 59.828s-.515 6.988-1.755 9.802c0 0-16.453-1.05-20.269-3.768 0 0 18.123 1.288 18.647 1.574l2.777-7.652" style="fill:#fff;fill-rule:nonzero"/>
  <path d="M32.631 73.174h1.579v21.911h-1.579zM75.236 78.689h1.579v16.35h-1.579z" style="fill:#fff"/>
  <path d="M73.134 92.481v1.932a5.198 5.198 0 0 1-7.674-4.571V78.688h1.579v11.154a3.62 3.62 0 0 0 6.095 2.639M85.758 78.689v1.762h-2.777v1.605h-1.579v-1.605H79.68v-1.762h1.722v-5.47h1.579v5.47h2.777Z" style="fill:#fff;fill-rule:nonzero"/>
  <path d="M81.402 84.704h1.579v10.335h-1.579z" style="fill:#fff"/>
  <path d="M30.457 84.59a8.747 8.747 0 0 1-8.617 10.258 8.747 8.747 0 1 1 7.697-12.905h-1.943a7.1 7.1 0 1 0 1.184 2.647h1.679ZM63.31 84.702a8.747 8.747 0 1 1-17.363 1.511 8.747 8.747 0 0 1 16.443-4.158h-1.942a7.099 7.099 0 1 0 1.183 2.647h1.679ZM104.145 86.29l-12.826.062v-1.65h11.002a7.1 7.1 0 1 0-6.923 8.69 7.103 7.103 0 0 0 6.891-5.394h1.691a8.748 8.748 0 0 1-8.582 7.039 8.749 8.749 0 0 1-8.748-8.747 8.75 8.75 0 0 1 17.352-1.588 8.84 8.84 0 0 1 .143 1.588M43.925 83.634v11.405h-1.579V83.634a3.369 3.369 0 0 0-3.369-3.366 3.358 3.358 0 0 0-2.728 1.398l.003-2.157a4.945 4.945 0 0 1 7.673 4.125" style="fill:#fff;fill-rule:nonzero"/>
  <path d="M10.653 75.642h2.636v.395l-6.816 7.135 6.924 11.568v.264h-2.67L3.834 82.779l6.819-7.137Zm-9.35 0h2.153v19.362H1.303V75.642ZM115.953 75.642h2.636v.395l-6.816 7.135 6.924 11.568v.264h-2.67l-6.893-12.225 6.819-7.137Zm-9.35 0h2.153v19.362h-2.153V75.642Z" style="fill:#fff;fill-rule:nonzero"/>
  <path d="M37.657 11.594s-.054.21.55-.729c.604-.939 1.941-4.767 3.865-4.863 1.924-.095 2.127-1.925 2.978-2.473.85-.547 2.765.677 4.184.007 1.42-.67 3.315-3.622 6.795-2.273 3.481 1.348 4.435-1.417 10.365 3.239 5.929 4.657 7.394 10.031 15.095 9.314-.601.748-4.722 6.363-3.851 3.731.872-2.632-4.779.994-9.479-.302-1.443-.397-3.436-.412-4.313.658-.878 1.069-1.65-.401-1.946.936-.297 1.338-1.402 1.789-1.386 2.31.017.52-1.25 3.269-2.046 4.44-.797 1.172-13.367-1.732-17.311-6.246-3.945-4.514-3.5-7.749-3.5-7.749" style="fill:#ee2e28;fill-rule:nonzero"/>
  <path d="M78.238 15.363s-6.883 1.323-13.011-.831a9.157 9.157 0 0 0-1.645-.429c-1.587-1.616-4.724-5.605-2.346-10.046-2.198 2.448-2.581 6.553.427 10.235a1.78 1.78 0 0 0-.739.685c-.822 1.367-6.574-1.57-8.272-5.543.553 2.961 3.912 6.241 5.941 6.983 2.03.744 1.172 2.186.303 2.682-.87.497-6.256.222-11.711-9.218 1.158 3.606 3.473 7.622 7.072 9.409 3.599 1.787 2.786 2.438 1.758 2.861-.987.406-16.382-4.362-17.759-11.367a2.457 2.457 0 0 1-.049.081l-.127.194-.032.049-.077.115-.026.039-.081.116-.009.013-.055.075-.016.021-.037.047-.01.012-.033.038-.003.003a.245.245 0 0 1-.02.018l-.004.002a.042.042 0 0 1-.013.007c.013 2.816 3.083 7.05 10.326 11.26 1.466.853 2.734 1.493 3.842 1.97a35.129 35.129 0 0 0 1.413.37l.134.032a32.5 32.5 0 0 0 1.177.257l.15.029.33.061.141.024c.197.034.389.065.573.091l.127.019a49.78 49.78 0 0 0 .428.053c.083.009.167.018.247.025l.139.012a9.595 9.595 0 0 0 .527.029c.065.001.127.002.187.001l.125-.002c.057-.002.114-.003.167-.007.076-.005.148-.012.214-.021a4.69 4.69 0 0 0 .514-.189c.013-.014.033-.025.042-.039.797-1.171 2.064-3.92 2.047-4.44-.016-.521 1.09-.972 1.386-2.31.296-1.337 1.068.133 1.946-.936.878-1.07 2.87-1.055 4.313-.657 4.049 1.115 8.799-1.417 9.482-.459.807-.428 1.533-.771 1.866-.782l-1.269-.642Z" style="fill:#e21e25;fill-rule:nonzero"/>
  <path d="M38.207 10.865s-2.634.709-4.913 4.401c-2.279 3.693.161 6.741 6.314 10.218 6.152 3.477 14.041 6.665 17.61 5.875 3.569-.79 5.282-5.898 3.296-10.21-.328 1.964-3.555 4.514-12.611-.173-9.055-4.688-10.216-8.428-9.696-10.111" style="fill:#dfdfdf;fill-rule:nonzero"/>
  <path d="M60.453 23.102s-5.001 7.937-20.358-4.913c.794 2.29 11.222 11.506 18.043 8.909 2.663-1.979 2.315-3.996 2.315-3.996" style="fill:#cbd3d4;fill-rule:nonzero"/>
  <path d="M60.514 21.149c-.079.475-.33.984-.791 1.418-.112 2.949-2.977 4.675-5.422 5.217-3.569.79-10.164-1.558-16.317-5.035-3.759-2.125-5.137-4.374-5.123-6.644-1.44 3.323 1.067 6.169 6.747 9.379 6.152 3.477 14.041 6.665 17.61 5.875 3.569-.791 5.282-5.897 3.296-10.21" style="fill:#cbd3d4;fill-rule:nonzero"/>
  <path d="M85.541 14.449a4.579 4.579 0 1 1-8.245 3.986 4.579 4.579 0 0 1 8.245-3.986" style="fill:#dfdfdf;fill-rule:nonzero"/>
  <path d="M80.779 11.909a3.964 3.964 0 0 1 2.719 2.149 3.977 3.977 0 0 1-1.85 5.312 3.972 3.972 0 0 1-3.973-.3 4.575 4.575 0 0 0 7.866-4.621 4.58 4.58 0 0 0-4.762-2.54" style="fill:#cbd3d4;fill-rule:nonzero"/>
</svg>