<svg xmlns="http://www.w3.org/2000/svg" xml:space="preserve" fill-rule="evenodd" clip-rule="evenodd" image-rendering="optimizeQuality" shape-rendering="geometricPrecision" text-rendering="geometricPrecision" viewBox="0 0 121 102.33">
  <defs>
    <clipPath id="a">
      <path d="M-9.69-19.03h140.38v140.39H-9.69z"/>
    </clipPath>
  </defs>
  <path d="m48.39 10.46.03.04c0-.01-.04-.03-.03-.04zm-5.05-.22.13.22-.13-.22zm0 0c-.19-.23.08.12-.15-.18-.04-.06-.11-.15-.14-.2-.12-.19-.18-.35-.27-.52-.19-.38-.38-.65-.56-1.01L39.5 3.32c-.22-.42-.41-.54-.53-1.04-.56.13-1.42.97-1.88 1.37L33.5 6.56c-.52.51-1.19 1.1-1.82 1.43.25.37.56.57.94.86l2.11 1.59c.22.17.23.21.49.4l4.27 3.25c.34.26.18.3.6.41l-.46 2.9c-.1.94-.32 1.98-.32 3.04-2.27 1.2-4.38 2.7-6.65 3.89-.22.11-.35.16-.53.26-.21.12-.21.16-.48.3-.39.2-.3.06-.53.37.32.48.63.4 1.35.45 1.57.11 3.51.56 5.04.56l-2.08 3.07c-.38.62-1.78 2.67-1.95 3.32.48.24 2.33.79 3.02.79l-2.46 5.94c-.41 1-2.21 4.96-2.47 6.06.27.4.63.68.98 1.03l6.06 6.4c.19.19.31.3.5.5l7.63 8.07c.34.35.85.68.98 1.15.42-.22.52-.28.78-.67-.26-.5-.91-1.15-1.31-1.6l-11.28-12.5c-.65-.72-1.83-1.98-2.32-2.72.08-.35.15-.4.3-.71l1.27-2.76c.11-.25.16-.44.3-.72.31-.63 3.13-6.61 3.17-7.14.45.04.24.09.68.12l5.6.22c0-2.51-.62-5.11-1.44-7.42-.06-.17.01-.06-.09-.24-.08-.14-.08-.11-.15-.19l-.56 5.72c-.63-.05-1.23-.23-1.9-.22-2.03 0-4.07.09-6.06.56.28-.39 2.23-1.71 2.89-2.5l.85-1.05c.66-.88 2.68-3.54 2.76-4.53-1.49 0-2.6-.11-4.03-.11.66-.57 2.77-1.62 3.62-2.09.3-.16.28-.21.53-.38 0-.78-.01-1.57 0-2.35 0-.83-.14-1.51-.23-2.25-.42-3.75-2.29-5.02-4.79-7.53-.4-.4-.95-.74-1.26-1.21.19-.29.41-.51.71-.74.66-.48 1.06-.96 1.67-1.47l.87-.7c.42.31.97 1.28 1.28 1.74.26.4.4.53.67.9l1.44 1.7c.29.29.5.5.78.79.54.54.98 1.12 1.66 1.48l-.01-4.48c-.08-.66-.14-1.38-.22-2.13-.04-.31-.24-1.94-.33-2.13h4.15c0 2.04-.44 7.49.22 8.85.56-.04 1.17-1.02 1.53-1.5l3.85-5.34c1.06.71 1.97 1.65 3.03 2.36-.21.32-.47.53-.76.81l-1.51 1.74c-.15.18-.22.2-.38.41l-2.2 2.73c-.15.18-.22.2-.37.41-.26.34-.51.65-.72.96.64 2.75 1.68 10.48 2.31 13.95l1.71 10.4c.18 1.13.48 2.43.58 3.57.29-.19.67-.77.91-1.1.16-.21.29-.38.43-.58l3.97-5.22c1.74-2.36 3.63-4.63 5.34-7 .59-.82 1.76-.8 3.03-1.12 8.78-2.2 17.76-4.22 26.55-6.42 1.02-.25 2.37-.74 3.38-.76-.21.94-.52 1.74-.82 2.65l-1.71 5.35c-.17.51-.26.88-.42 1.38-.15.43-.37.95-.41 1.39-.61 0-.8.05-1.24.1l-4.03.23c-.62 0-.66.11-1.23.12l-13.46.89c-.66-.01-.77.11-1.34.11.61.54 4.69.98 5.71 1.02l6.73.1c1.62 0 2.85-.11 4.49-.11-.32 1.37-1.77 4.68-2.29 6.24-.25.76-.67 1.37-.74 2.17-1.04 0-2.17-.22-3.15-.33L66.33 40.4c.24.33 1.38.65 1.82.76 4.45 1.18 6.12 1.64 10.95 2.28l4.84.55c-.26 1.1-.8 2.41-1.24 3.47-.35.86-1.17 2.82-1.23 3.59-1.82 0-4.67-.54-6.62-.55-.57-.01-.55-.12-1.11-.12-.59-.01-.72-.06-1.14-.11-.75-.08-1.47-.08-2.24-.11-.49-.02-.51-.12-1.11-.12l-5.61-.44c.11.3.31.38.59.52.27.13.51.21.8.33.61.24 1.16.42 1.77.58.66.18 1.22.31 1.89.47.56.14 1.34.34 2.01.34-.15.23-.26.43-.47.65-.22.23-.4.36-.6.63l-7.78 8.81c.22.31.54.37.89.56l6.76-7.04c.81-.85 1.78-1.61 2.48-2.56.23-.31.42-.4.63-.72.73.35 8.91 1.13 10.43 1.13.43-1.84.62-1.94 1.03-4.35.13-.73.25-1.53.31-2.38l.14-1.21c.07-.46.09-.75.09-1.37 1.42 0 3.05.22 4.48.22.29-.6.65-1.67.86-2.4.66-2.38 1.4-5.72 1.61-8.25 1.97 0 3.88-.34 5.27-.34.16-.66.53-1.62.85-3.07.4-1.78 1.54-8.22 1.54-10.11L65.8 26.3c-.76.15-.84.06-1.26.64-.27.37-.53.71-.82 1.1l-6.58 8.66c-.2.27-.67.95-.9 1.12-.27-.56-2.37-10.27-2.6-11.41-.18-.88-.47-1.92-.64-2.84l-.66-2.93c-.18-.71-1.35-5.51-1.26-5.81.11-.36.71-.65.98-.92.26-.26.31-.24.56-.45l6.39-5.6c.22-.22.32-.3.48-.54-.12-.08-.27-.16-.4-.27L54.92 3.7c-.21-.17-.19-.17-.43-.35-.18-.13-.2-.19-.36-.31-.4-.31-.87-.85-1.37-.99-.12.51-.76 1.63-1.01 2.13-.35.71-.7 1.3-1.08 2.06l-1.09 2.05c-.2.37-.35.71-.52 1.05l-.56 1.01c0-.98 1.05-5.66 1.26-6.7l.48-2.46c.05-.4-.04-.37-.5-.38h-7.97c-.94.02-.27.87.11 2.82.27 1.39 1.44 5.55 1.46 6.61zM83.49 101.18c6.13 0 4.4.33 4.75-1.53l.29-5.65c.23.16.12.03.25.32l2.39 6.23c.16.38.21.58 1.49.38l4.06-.43c0-.64.11-.77.11-1.45l.56-11.11c0-1.11.63-1.51-1.7-1.14-1.02.16-2.96-.24-3.11.26l-.12 3.13c-.1.86 0 2.42 0 3.36l-.23-.33c-.09-.16-.14-.3-.21-.47-.14-.38-.24-.56-.42-.92l-1.68-3.48c-.31-.61-.67-1.18-.83-1.86-.37 0-.87-.03-1.23-.01l-3.6.22c-.65.04-.44.37-.44 2.03l-.11 2.46c-.03.8 0 1.67 0 2.47 0 .99-.11 1.56-.11 2.47l-.11 3.7c-.03.39 0 .93 0 1.35zM6.23 93.66h-.56c0-.93-.04-1.86.09-2.71.13-.87-.32-.99.81-.99 2.36 0 2.26 3.7-.34 3.7zm-5.05-6.39c0 .71-.11 1-.11 1.57v3.59c.01.71-.12.93-.11 1.68.01 2.5-.11 4.65-.11 7.07h4.48c0-1.55.11-2.7.11-4.27h1.24l.74 2.07c.15.39.24.75.36 1.09.14.4.31.62.35 1.11.83 0 1.85-.3 2.59-.44 2.36-.47 2.48-.02 1.41-1.76-.3-.49-1.54-2.62-1.64-3.07 1.13-.31 2.35-2.22 2.35-3.71 0-1.3.1-2.1-.67-3.25-1.91-2.83-5.31-2.83-8.41-2.35-1.54.23-1.57.44-2.58.67zM62.41 93.66h-.68c0-.8.12-1.24.12-1.9 0-2.02-.25-1.8 1-1.8.44 0 .98.33 1.18.62.92 1.37.02 3.08-1.62 3.08zm-5.16-6.28c0 4.65-.23 9.06-.23 13.8h4.38c0-.58.08-.59.11-1.01l.11-3.26h1.23c.07.81 1.26 3.41 1.46 4.27.7 0 1.59-.28 2.29-.41l2.31-.38c-.04-.53-.26-.62-.49-1.08-1.77-3.6-2.39-2.92-.9-4.01 1.51-1.1 1.99-4.32.94-6.12-.39-.68-.75-1.05-1.31-1.49-2.34-1.79-5.93-1.47-8.69-.78-.55.14-.82.21-1.21.47zM76.09 92.54c.36.42.65 2.47.78 3.03h-1.34c.01-.73.56-2.21.56-3.03zm-2.81-5.49L70.3 97.18c-.22.74-.93 2.84-.94 3.43l4.83.46c.5-.03.43-.18.69-1.55.16-.88-.11-.7 2.44-.7.04.51.26 1.1.38 1.64.21.92.14.59 1.41.49 1.22-.09 2.53-.45 3.82-.45-.02-.79-3.15-10.93-3.77-13.28-.23-.86-.03-.39-1.62-.4-.46 0-.97-.04-1.41.05-.48.09-.86.07-1.39.06-.68 0-.89.12-1.46.12zM47.49 94.56c0-3.39 3.82-2.82 3.82-.45 0 .81.03 1.18-.49 1.87-.85 1.1-3.33.78-3.33-1.42zM43.01 94c0 1.29.04 2.1.63 3.29.56 1.12.46.76.94 1.42 1.01 1.39 3.2 2.24 5.04 2.24 3.42 0 6.28-3.19 6.28-6.39 0-1.66-.12-2.95-1.12-4.38-1.84-2.61-5.49-3.23-8.11-1.94-1.93.95-3.66 3.35-3.66 5.76zM20.47 90.97c0 1.76.32 3.12 1.91 4.04 1.45.84 4.03.04 4.03 1.23 0 .78-1.18.67-1.79.67-1.47 0-2.73-.49-3.7-1-.16.67-.13 1.35-.25 2.1-.09.61-.2 1.42-.2 2.16.36.08.38.15.72.29.34.14.46.19.81.31 2.32.79 4.68 1.12 6.81-.33 3.13-2.13 3.01-6.75.3-8.01-1.45-.68-4.16.07-4.16-1.12 0-.6 1.57-.67 2.02-.67 2.47 0 2.98 1.04 3.04.12.03-.58.03-1.32.13-1.9.06-.39.2-1.36.2-1.81-2.22-1.17-6.12-1.15-8.16.59-.76.64-1.71 1.98-1.71 3.33zM110.4 101.29c2.38 0 4.42-.11 6.73-.11 2.57 0 2.1.23 2.12-1.35l.23-3.25h-4.26v-1.35l2.04-.09c.6-.09 1.02.2 1.1-.35.07-.4.02-.96.09-1.37.06-.4.02-1.12.02-1.55h-2.91v-1.12l4.37-.23c0-.88.12-1.28.11-2.13 0-.54.03-.66.09-1.03.07-.41.1-.76-.31-.76-11.17 0-8.78-.51-9.11 1.55-.15.98-.07 3.41-.08 4.62-.01.53-.09.47-.12.89-.08 1.12-.01 2.65 0 3.82 0 .76-.12 1.02-.11 1.79v2.02zM31.57 86.82v3.48c0 .95-.53 1.35.56 1.35l2.36-.12v9.53l3.25-.1c.5-.02.52-.12 1.12-.12l.38-4.78c.13-.68.15-1.68.18-2.4.01-.5.11-.52.11-1.12 0-.62.11-.66.11-1.23.53-.01.62-.12 1.91-.11 1.76 0 .9.16 1.12-2.92.14-1.91 1.07-1.57-4.04-1.57-2.48 0-4.58.11-7.06.11zM98.4 86.82c0 .71-.11.94-.11 1.68v3.14c1.1 0 1.78-.11 2.91-.11v9.2c0 .67 1.6.23 2.02.22.4-.02.84.02 1.24.01.5-.02.52-.12 1.12-.12l.44-4.72c.09-.77.02-1.69.14-2.43.09-.59.2-1.68.2-2.38.53-.01.41-.12 1.68-.11 1.28 0 1.34.14 1.36-.56.02-1.29.1-2.27.1-3.59 0-.26-.08-.34-.34-.34l-10.76.11zM85.39 68.88c0 2.42.8 4.48 2.38 6.14.25.26.31.26.56.46 1.79 1.4 3.04 2.04 5.7 2.04 1.17 0 2.47-.4 3.25-.79.45-.23.88-.41 1.3-.72.5-.36.72-.57 1.14-.99a8.13 8.13 0 0 0 1.71-2.44c.76-1.67.67-1.9.01-1.91-.37-.01-.77.01-1.13.01-.38 1.59-1.14 2.58-2.16 3.56-2.92 2.81-8.75 1.8-10.44-2.18-2.26-5.34 1.98-9.57 5.53-9.57 2.63 0 3.05.21 4.98 1.64.47.34.9.96 1.23 1.45.66.98.65 1.53.86 1.96H89.88v1.68h12.22c0-3.45-1.76-6.15-4.71-7.63-2.48-1.24-5.47-1.03-7.92.38-2.34 1.34-4.08 4.17-4.08 6.91zM15.31 68.99c0 1.16.37 2.37.69 3.24l.7 1.32c.46.69 1.01 1.3 1.66 1.81 2.15 1.69 3.25 1.93 6.03 1.93 1.49 0 3.33-.81 4.4-1.66 1.08-.86.71-.58 1.52-1.51l1.14-1.89c.47-1.29.83-2.65.6-4.16-.12-.76.24-.65-1.71-.65.16 1.96.19 3.41-.99 5.18-.21.31-.47.71-.72.97-2.62 2.73-7.07 2.77-9.76.05-.25-.25-.48-.57-.69-.88-1.63-2.41-1.56-5.63.25-7.92 1.41-1.78 3.26-2.55 5.63-2.55 2.02 0 3.15.98 4.26 1.79 1.28.93-.25 1.01 2.8 1.01-.67-1.27-1-1.5-1.93-2.44-2.16-2.18-6.11-2.62-9.06-1.26-2.72 1.24-4.82 4.41-4.82 7.62z"/>
  <path d="M46.6 69.11c0 1.17.35 2.34.7 3.21.13.31.16.46.31.71.36.62 1.23 1.85 1.77 2.26 1 .79 1.95 1.45 3.25 1.8 3.15.84 5.52.15 8-1.8.65-.5 1.8-2.12 2.1-2.94.48-1.3.84-2.65.6-4.17-.12-.76.25-.64-1.71-.64.13 1.52.23 1.43-.06 2.96-.16.81-.5 1.54-.92 2.22-.99 1.56-2.96 3-5.07 3-1.65 0-2.09.08-3.67-.71-.71-.35-1.28-.79-1.8-1.33-1.69-1.77-2.33-4.78-1.3-7.19 1-2.33 3.36-4.11 5.87-4.11 1.62 0 2.37.12 3.77.93l1.64 1.39c.56.68.7.48 2.33.48-.99-1.85-2.68-3.38-4.7-4.05-2.08-.7-4.32-.54-6.29.35-2.72 1.22-4.82 4.43-4.82 7.63zM14.08 87.27v13.79l3.25-.1c.5-.02.52-.12 1.12-.12l1-12.01c.05-.41-.03-.75.06-1.18.18-.93.28-.59-1.62-.6-.63-.01-.73.1-1.23.11-.43.02-.93-.03-1.35 0-.45.03-.61.11-1.23.11zM6.57 65.85c.25.48.51.97.8 1.44l5.7 10.23h2.69c-.03-.41-.13-.52-.31-.81-1.95-3.05-4.43-7.72-6.31-10.52.33-.49 1.19-1.24 1.66-1.71.33-.33.44-.55.78-.9.31-.3.54-.53.84-.84.31-.3.55-.53.85-.84l.78-.9c2.36-2.34 2.23-2.1-.76-2.1-.38 0-1.47 1.3-1.72 1.64-.38.51-1.55 1.57-2.12 2.15-.24.24-.21.26-.4.49-.54.71-1.74 1.56-2.48 2.67zM106.81 65.85c.18.27.24.38.41.72.17.34.25.4.41.7l5.8 10.25H116c-.01-.62-.21-.69-.67-1.46l-5.83-9.76c0-.47 1.2-1.48 1.54-1.82l1.63-1.74c.49-.49 1.28-1.18 1.67-1.69.17-.21.13-.22.34-.44.17-.17.28-.27.46-.45 1.52-1.52.72-1.26-1.6-1.26-.3 0-.74.55-.93.76-.2.22-.15.23-.33.45-.14.16-.29.29-.45.45-.59.58-4.66 4.75-5.02 5.29zM104.34 59.24v17.94c0 .52.63.34 1.91.34.26 0 .34-.08.34-.34V59.24c0-.52-.63-.34-1.91-.34-.26 0-.34.08-.34.34zM4.1 59.24v18.28h2.13V58.9h-1.8c-.25 0-.33.08-.33.34zM33.93 56.88v20.41c0 .47.38.34 1.34.34.26 0 .34-.08.34-.34V56.88c0-.46-.39-.33-1.35-.33-.26 0-.33.08-.33.33zM37.4 62.6v2.13c.37-.24.49-.48.92-.76 1.75-1.15 4.91-.4 4.91 3.12v10.43h1.57V66.41c0-1.74-1.29-3.46-2.8-4.15-1.15-.52-2.15-.51-3.35-.2-.88.23-.78.42-1.25.54zM65.21 62.15v10.43c0 .71.18 1.41.41 1.95.29.67.55.97 1.02 1.44 1.36 1.36 3.14 1.92 4.98 1.34.37-.12.65-.27.99-.35v-1.91c-.47.12-.19.19-1.01.56-2.27 1.04-4.82-.58-4.82-3.36V61.82c-1.1 0-1.57-.15-1.57.33zM74.52 62.15v15.37h1.57v-15.7h-1.24c-.26 0-.33.08-.33.33zM80.35 57v4.82h-1.57v1.79h1.57c0 1.89-.33 1.57 1.68 1.57v-1.57h2.58v-1.79h-2.58v-5.16c-1.16 0-1.68-.16-1.68.34zM80.35 67.87v9.31c0 .5.52.34 1.68.34v-9.65c0-.47-.39-.33-1.35-.33-.25 0-.33.07-.33.33z"/>
</svg>