<svg xmlns="http://www.w3.org/2000/svg" xml:space="preserve" fill-rule="evenodd" clip-rule="evenodd" image-rendering="optimizeQuality" shape-rendering="geometricPrecision" text-rendering="geometricPrecision" viewBox="0 0 1344 1264.01"><path fill="#F4E62A" d="M95.67 462.98h74.84l38.91-22.55s3-84.89-17.21-140.59h-25.44l8.23 7.29s-3.74 37.14-3.74 43.77c0 6.63 2.24 64.33 2.24 64.33l-77.83 47.75zm318.81 0h18.71l-35.17-156.51 7.48-6.63h-14.22l-2.99 3.98 26.19 159.16zm595.73 0h97.29l211.05-51.07-16.47 51.07h16.47l8.98-63.67-317.32 63.67z"/><path fill="#242323" d="M220.65 1103.62h30.68L105.4 941.14H66.48l154.17 162.48zm485.71 0h35.17l74.09-77.6 198.33 21.22s17.21-39.12 17.96-66.31l3.74-39.79h-27.69l-23.95 66.31s-64.36-7.29-148.18-14.59C752.01 986.23 642 978.27 642 978.27s27.69 14.59 49.39 21.89c21.7 7.29 88.31 20.56 88.31 20.56l-73.34 82.9z"/><path fill="#892D7F" d="M66.48 941.14h38.92l-44.91-50.41 51.64-112.08H72.47L23.82 896.04l42.66 45.1zm941.48 0h27.69l10.48-73.62h87.56s5.99-15.25 21.71-70.3l5.23-18.57h-32.93l-20.2 55.05s-10.48-4.64-172.88-16.58c-162.4-11.94-240.98-16.58-240.98-16.58s44.9 21.22 153.42 41.78c108.51 20.56 187.84 24.54 187.84 24.54l-26.94 74.28zM524.5 778.65h-58.38l10.48 63.01 47.9-63.01z"/><path fill="#DE2226" d="M67.98 142.66h63.61l23.2-19.89 11.23 19.89h41.16l-43.41-78.25-95.79 78.25zm166.89 0h26.94l-7.48-59.68 82.32-.67-2.24 50.4v9.95h29.18L383.8 38.54H210.92l23.95 104.12zm156.41 0h34.43l16.46-21.88 27.7 21.88 65.85.66-101.03-82.23-43.41 81.57z"/><path fill="#315FA9" d="M72.47 778.65h39.66l49.4-107.43 118.99 5.3-6.74-55.7h-33.67l-1.5 17.9s-34.43-8.62-77.08-3.98c-42.66 4.65-83.82 10.62-83.82 10.62l33.67-24.54H79.2l-17.96 28.51 58.38 15.92-47.15 113.4zm393.65 0h58.38l119.74-157.17h-46.4L497.55 750.14l-29.18-129.32h-27.69l25.44 157.83zm661.58 0h32.93c12.73-51.72 17.97-111.41 17.97-111.41l102.53-7.3s4.49-5.3 11.97-38.46h-41.16l-.75 1.33-410.87 28.51s43.41 18.57 169.89 19.9c126.48 1.33 157.91-1.99 157.91-1.99l-40.42 109.42z"/><path fill="#683E24" d="M741.53 1103.62h-35.17l-99.54 112.07 18.71 8.62 116-120.69zm-490.2 0h-30.68L337.4 1226.3l12.72-12.6-98.79-110.08z"/><path fill="#F0851E" d="M166.77 299.84h25.44c-5.24-13.27-10.48-24.54-18.71-33.16l-83.82-87.54 41.91-36.48H67.98l-41.17 33.82 139.96 123.36zm224.51 0h14.22l155.67-135.96-25.45-20.56-65.85-.66 32.92 26.53-111.51 130.65zm34.43-157.18h-34.43l-44.15 84.23 16.46-84.23h-29.18c0 49.08 8.23 111.42 8.23 111.42l83.07-111.42zm-163.9 0h-26.94l19.46 86.22-47.15-86.22h-41.16c6.73 11.28 15.71 23.88 26.19 33.82 21.7 19.9 72.59 75.61 72.59 75.61s2.25-32.5.75-66.98l-3.74-42.45z"/><path fill="#108442" d="M79.95 620.15h32.18c15.72-13.26 35.93-31.83 53.14-56.37 37.42-53.71 44.15-73.61 44.15-73.61l-80.82-3.32 41.91-23.87H95.67l-71.85 39.13c-20.21 5.97-.75 11.27-.75 11.27l117.5 13.27-60.62 93.5zm160.16 0h33.67l-1.49-10.61c-6.74-37.13-23.2-82.89-23.2-82.89l-8.98 93.5zm199.82 0h28.44l-35.18-157.17h-18.71l25.45 157.17zm158.66 0h46.4l42.66-55.7 419.85-101.47h-97.29l-343.52 68.97-68.1 88.2zm653.35 0h41.16l5.99-28.51 19.46-128.66h-16.47l-50.14 157.17z"/><path fill="#227A70" d="M1293.1 620.15h-41.16v1.33h41.16v-1.33zm-648.11 0h-46.4l-.75 1.33h46.4l.75-1.33zm-176.62 0h-28.44l.75.67h27.69v-.67zm-194.59 0h-33.67v.67h33.67v-.67zm-161.65 0H79.95l-.75.67h32.18l.75-.67z"/></svg>