<svg xmlns="http://www.w3.org/2000/svg" xml:space="preserve" width="200" height="259" style="shape-rendering:geometricPrecision;text-rendering:geometricPrecision;image-rendering:optimizeQuality;fill-rule:evenodd;clip-rule:evenodd" viewBox="0 0 200 258.82"><defs><style>.fil0{fill:#1e1328}.fil5{fill:#331e49}.fil9{fill:#60270f}.fil19{fill:#c84917}.fil7{fill:#eb5c27}.fil16{fill:#f59d19}.fil22{fill:#fbfafb}.fil20{fill:#ddb788}.fil1{fill:#ddb788}.fil3{fill:#ddb788}</style></defs><g id="Layer_x0020_1"><g id="_1831670663936"><path d="m70.17 73.36 1.64.79 7.1 1.81c1.06.23 2.11.54 3.15.8 1.15.29 2.16.54 3.16.94 1.4.38 4.65.34 6.21.31.96-.03 2.31-.11 3.2-.34.25-.83.4-2.52.56-3.46.63-3.85 1.27-6.12 2.36-9.81.97-3.26-.52-7.73-.49-10.98.01-1.56.35-2.17 1.24-2.86 2.08-1.6 6.66-2.53 8.03-4.07.71-.8-.03-1.4.87-3.25.57-1.17 1.79-2.6 2.86-3.17.63-.34 1.15-.11 1.7.15 1.19.56 2.89 1.82 4.06 1.97.96.12.97-.11 1.05-.87-.33-.16-.43-.24-.69-.49-.8-.73-3.49-2.62-4.36-3.09-2.95-1.61-3.56-1.27-6.18.32-2.14 1.3-3.6 1.69-6.48 2.1-2.58.38-5.18.55-7.86.6-1.48.03-2.39-.3-3.37.93-1.09 1.38-1.94 4.58-2.97 5.5-2.66 2.39-4.68 1.54-6.42 6.36-.51 1.41-1.11 3.49-1.31 5.02-.12.91.03 1.33.01 2.1-.17.7-2.13 1.28-3.21 1.97-3.03 1.94-.88 6.75-1.31 8.15-.15.5-.86 1.11-1.2 1.41-.54.47-1.4.86-1.35 1.16zM53.13 87.41c.58.3 1.18.7 1.84 1.04 2.24 1.15 3.7 1.83 6.13 2.83 10.69 4.42 28.21 8.62 39.86 6.83 2.99-.47 7.34-1.79 6.62-5.18-.19-.9-.75-1.76-1.22-2.41l-2.21-2.22c-2.33-1.91-7.15-4.72-9.92-5.77l-.07 2.67-2.19.39c-2.24.41-5.33.25-7.64.06-1.69.95-1.86.61-3.82.12-.65-.17-3.56-.8-3.86-1.08-.71.02-3.87-.92-4.79-1.15-1.8-.45-3.32-.56-3.6-2.35-.51-.21-1.28-.61-1.74-.87-.5-.29-1.12-.77-1.63-.88-.52.17-.68 1.17-2.68 2.29-1.15.64-2.31 1.03-3.83 1.09-3.96.17-5.75.6-5.25 4.59z" class="fil0"/><path d="M95.63 132.16c1.11-1.66 4.75-6.26 6.16-8.14.27-.35.46-.61.73-.98l4.66-6.11c.22-.28.65-.77.74-1.08l3.52-.8c.46-.12 3.08-.8 3.54-.81l.08-2.38c.1.08.15-.21.15.56 0 .44-.09 1.64.06 1.79.25-.27.01-.1.46-.21l1.95-.47c.5-.12 2.2-.6 2.62-.56.91-.52 1.69-1.65 1.86-2.71.19.22.16-.05.17.34l-.61 1.93c.73-.07 8.03-1.96 9.49-2.28l23.79-5.72c.82-.2 1.54-.41 2.35-.57.8-.15 1.62-.41 2.42-.59-.01.58-.47 1.58-.64 2.17l-3.45 10.85c-.31.94-1.11 3.65-1.45 4.29l-3.12.2c-.34.04-.76-.03-1.1.01-1.34.16-2.79.24-4.24.29l-22.95 1.62c-.82.03-1.37.1-2.22.1.33.45 2.24.68 2.74.78l8.24.83c.49 0 .54.1 1.71.1 1.47 0 8.52.1 9.87 0 .37-.03.32-.1.8-.1 1.29-.02 2.3-.1 3.53-.1-.14.6-.4 1.18-.59 1.73l-3.76 10.14c-.13.35-.56 1.34-.59 1.72-1.28-.1-4.86-.69-6.14-.7l-3.52-.3c-.39-.03-.26-.09-.71-.11-.36-.01-.4.01-.74-.06l-2.78-.24c-.22-.01-.49.02-.71 0-.38-.02-.25-.09-.7-.1-.26-.01-.52.02-.79-.02l-3.64-.28c-.58 0-.76-.1-1.41-.1-.58 0-.87-.1-1.55-.1.17.56.66 2.31.94 2.67.58.26 1.2.26 1.88.39 2.87.53 4.94.73 7.71 1.15l.99.11c.17.02.33 0 .49.02 1.45.16 3.08.39 4.64.39l-1.77 4.97c-.12.34-.17.39-.28.73-.19.55-.32.87-.5 1.41-.11.33-.18.44-.28.73l-1.3 3.64c-.34 0-.98-.1-1.35-.16-.39-.07-1-.12-1.37-.14-.41-.02-.31-.06-.61-.1-.25-.03-.51.02-.77-.02-1.36-.22-3.44-.3-4.96-.48-.26-.03-.56.01-.81-.01-.66-.04-.27-.1-1.51-.1-.14 1.49-.17 1.72.22 3.12.63 0 7.18.9 8.34.91.42.01 1.34.08 1.76.16l1.77.14c.66 0 1.05.1 1.81.1.13-.57.77-2.15 1-3.33.23-1.19.51-2.4.7-3.62.1-.64.14-1.2.25-1.87.11-.62.22-1.34.27-1.95l.4-4.03c.49 0 .42.08.8.1.29.02.63-.02.91 0 .38.03.33.1.8.11l4.54.09c1.15-2.18 2.28-7.33 2.81-9.97.27-1.34 1.01-5.91 1.01-6.84 1.77 0 3.58-.24 5.34-.3l3.12-.31.75-2.37c1.28-5.15 1.79-9.47 2.55-14.56.08-.54.09-.91.19-1.43l.34-2.78-15.2 2.93c-1.65.32-3.4.66-5.05.99-3.4.67-6.7 1.27-10.12 1.96-7.52 1.52-15.31 2.93-22.84 4.45-1.66.34-1.15.1-2.56 1.97l-10.47 13.8c-.24.31-.42.52-.66.84-.24.32-.42.56-.65.87-.18.24-.52.74-.72.89l-1.84-8.14c-.26-1.31-.62-2.64-.9-4.02-.65-3.19-1.7-7.1-2.3-10.19-.14-.7-.28-1.32-.46-2.06l-1.8-8.12-1.16-.21c.17.78.28 1.7.41 2.52.13.81.27 1.63.42 2.5l2.07 12.54c.15.88.25 1.77.42 2.6.4 1.95.86 5.31 1.24 7.52l1.22 7.53c.15.88.27 1.62.42 2.5l.32 1.9c.08.53-.11.33.23.58.08-.32.27-.46.56-.85l4.37-5.7z" class="fil1"/><path d="m86.99 183.82 2.3.03 3.26-.02 2.33.01 1.26-.03c.15.11.15-.17.11.19.24-.29.1-.19.61-.19a7.868 7.868 0 0 1-1.02 3.03c-2.88 4.91-8.13 2.84-7.74 2.61-.21-.14-.57-.29-.81-.41-1.65-.8-2.92-3.4-3.12-5.23l2.82.01zm4.24-2.29c-.16.34.33.16-.42.24l-1.44-.02c.13-.4.72-1.71 1.04-1.9-.06-.18-.06-.16.09-.38.24.26 1.26 2.3 1.31 2.61-.62 0-2.19.15-2.6-.08.18-.3-.14-.15.37-.18h1.75c.01-.54.02-.12-.1-.29zm1.57-1.22c-.4-2.35 2.13-5.14 5.04-4.14.23.08.31.11.46.24.29.25-.06.09.34.27.49.19 1.67 1.56 1.47 2.44l-7.33 1.6.02-.41zm-11.84-1.34c-.15-1.13 1.16-2.31 1.92-2.67.91-.42 1.94-.45 2.91-.06.44.18.34.26.68.44 1.23.52 1.93 2.41 1.76 3.98-.55.07-6.35-1.32-7.3-1.54-.11-.14-.1-.02.03-.15zm-4.45 10.59c-.06-.39-.05-.1.08-.22.28.74 1.95 3.67 2.93 3.69.57.02 1.02-.6 1.08-1.18.07-.79-1.32-4.65-1.2-7.86l.16.59c.24 1.73 1.1 5.69 1.88 6.89.39.59 2.77 3.01 2.98-.51.04-.82-1.07-4.51-.82-8.64.32 2.69.8 4.99 1.87 7.23.84 1.76 2.52 4.17 4.92 4.25 3.58.12 5.59-4.65 6.33-7.48.36-1.34.43-2.53.69-3.89.4 3.62-.91 7.64-.77 8.84.39 3.3 2.85.45 3.1-.12 1.5-3.27 1.45-6.18 1.91-7.75.12 3.89-1.21 7.54-1.22 8.17-.02.73.28 1.3.9 1.44.56.13 1.1-.58 1.35-.84.35-.36 1.63-2.31 1.81-2.95l.09.13c.47-.59 1.09-4.46 1.12-5.13.02-.42.06-.31.1-.61.02-.25-.02-.55 0-.8.03-.39.09-.26.11-.7l-.1-3.03c-.03-.25.01-.55-.01-.8-.25-2.17-.84-5.54-2.72-6.65-.95-.56-1.75-.04-2.41.41-.07-.77-.42-1.57-.81-2.22-1.34-2.27-4.3-3.03-6.34-2.01l.01.08.6.3c1.23-.12 1.52-.27 2.69.24.74.32 1.44.78 1.83 1.24-.92-.33-1.84-.17-2.59.48l-.17.15c-.01-.02-.04.03-.07.05-.12.41-.05.08-.35.41-.15.17-.2.33-.29.52-.31-.19-.1.03-.32-.3-.96-1.4-2.26-3-4.36-2.99-2.63.02-3.71 2.31-4.53 3.25l-.51-.51c-.19-.22-.29-.31-.49-.53-.84-.68-1.43-.93-2.61-.52.56-.51.92-.88 1.82-1.24.86-.36 1.63-.52 2.63-.24.3-.07.24-.12.51-.24.12-.05.19-.04.3-.09.15-.07.14-.1.21-.16-.9 0 .12.17-1.18-.19-1.94-.53-4.26.38-5.4 2.12-.33.5-.81 1.53-.82 2.29-.92-.07-1.47-1.47-3.3.43-.83.86-1.57 3.34-1.73 4.62-.06.47-.08.96-.17 1.44-.09.48.02.98-.06 1.45-.15.96 0 2.74.12 3.75.19 1.74.41 4.06 1.07 5.67.14.34.06.15.15.27z" style="fill:#eb611d"/><path d="m67.64 94.37-.81-.24.12.16c-.1.36-.23.7-.29 1.04-.37 1.79-1.03 6.44-1.03 8.24-.57.15-1.11.64-1.61.9-.57.29-1.06.67-1.65.98l-3.23 1.9c-1.53.94-4.19 2.51-5.7 3.27-1.14.57-.84 1.02.2 1.1l3.89.44c.36.07.92.15 1.25.17 1.34.06 2.7.4 4.03.4-.45.84-1.16 1.64-1.69 2.44l-3.99 6.38c-.21.34-.68 1.02-.77 1.35.27.06.3.11.52.19 1 .37 1.92.57 2.99.84.38.09.91.18 1.33.28-.38.71-.67 1.57-.98 2.34-.34.84-.64 1.5-.98 2.35l-2.96 7.1c-.17.42-.32.73-.48 1.14l-1.48 3.55c-.34.78-.79 1.64-.98 2.45.53.78 3.49 3.64 4.36 4.6.2.22.18.29.4.51.56.59 1.13 1.02 1.63 1.69l11.26 11.9c.49.58 1.17 1.08 1.66 1.66l3.98 4.28c.49.58 1.19 1.06 1.64 1.68.27.36.5.63.85.86l1.08-1.03c-.11-.17-.15-.17-.29-.36-.17-.21-.15-.23-.36-.45l-8.53-9.49c-.13-.19-.23-.27-.38-.42l-8.97-9.97c-.19-.21-.16-.24-.35-.46l-1.86-2.06c-.13-.14-.22-.21-.36-.35l-1.11-1.3c-.43-.56-1.14-1.12-1.53-1.7.12-.51.26-.69.47-1.13l1.01-2.22c1.01-2 2.06-4.7 3.09-6.78l3.59-7.89c.55 0 .71.08 1.11.1 2.02.14 4.06.3 6.14.3h2.62c0-2.38-.43-4.62-.91-6.54l-.76-2.96c-.16-.55-.28-1.01-.43-1.48-.1-.27-.15-.42-.22-.7-.03-.14-.05-.26-.11-.39-.01-.02-.01-.05-.02-.07l-.17-.24c-.09.39-.15.55-.2 1-.13 1.16-.4 2.27-.41 3.43 0 .55-.04.71-.09 1.11l-.11 2.41c.01.59-.06.78-.1 1.21-1.1-.09-1.71-.41-3.12-.4-1.23 0-2.27.02-3.42.1l-4.76.58c-.46.08-1.16.22-1.59.23.07-.06.03-.04.17-.14l.66-.45c1.45-.96 2.65-2.15 3.88-3.37.89-.88 1.92-2.15 2.63-3.21 1.87-2.84 1.61-2.45 3.24-5.52l-3.16-.16c-.53-.1-1.13-.04-1.68-.04-.58 0-.91-.1-1.61-.1.39-.54 1.67-1.04 2.3-1.43l3.27-1.86c.33-.17.51-.35.88-.44.01-.67.26-2.13.2-2.92-.03-.38-.09-.26-.11-.7-.06-1.76-.15-1.98-.29-3.63-.05-.56-.13-.91-.21-1.41-.07-.48-.19-.93-.28-1.33-.1-.53-.22-.82-.32-1.32z" class="fil1"/><path d="M127.65 212.41c0-.69.1-.92.1-1.61 0-.65 0-1.12.08-1.63.32-1.98-.77-2.5 1.23-2.5.76 0 1.43.3 1.84.68 1.12 1.03 1.85 5.06-3.25 5.06zm-6.54-9.66c0 .59-.1.69-.11 1.2l.01 2.63c-.01.51-.11.61-.11 1.2.01.87 0 1.75 0 2.62 0 1.01-.1 1.63-.1 2.62 0 3.41-.2 7.1-.2 10.47h6.35c.48 0 .3-.95.3-1.41l.09-2.62c.02-.45.1-.35.11-.8.07-1.72-.55-1.52 1.91-1.52l2.22 6.45 3.46-.67c.61-.12 1.13-.22 1.68-.33l1.81-.31c-.13-.46-2.59-4.64-3.06-5.5-.09-.16-.11-.24-.2-.41-.55-1.05-.24-.36 1.12-1.67 2.45-2.35 2.83-6.25 1.5-8.9-.08-.17-.11-.19-.19-.32l-.61-.9c-1.7-2.02-4.18-3.14-6.92-3.14-2.84 0-6.57.11-9.06 1.31zM11.25 212.41c0-.69.04-1.07.1-1.62.06-.51-.05-1.18.01-1.7.06-.54.1-.92.09-1.61 0-.55-.22-.81 1.21-.81 2.93 0 3.22 3.66 1.84 4.76-.92.72-1.78.98-3.25.98zm-6.54-9.77c0 .51-.11.62-.1 1.21l-.1 3.93c0 5.12-.3 10.59-.3 15.71h6.54l.2-3.12c0-1.21.1-2.04.1-3.23h1.82l.86 2.36c.12.35.19.45.31.8l1.14 3.29 6.95-1.31-3.63-6.55c.33-.08.45-.23.69-.42 2.67-2.02 2.94-3.64 2.94-6.93 0-1.1-.46-2.2-.87-2.95-.25-.44-.49-.75-.82-1.1l-.7-.7c-.47-.4-.79-.68-1.4-1.02-2.83-1.56-7.26-1.36-10.25-.81l-3.38.84zM110.13 206.47c0 2.95-.23 12.08-2.72 12.08-.44 0-.87-.86-.99-1.21-.16-.43-.36-1.34-.41-1.81-.07-.6-.04-1.5-.15-2.07-.13-.73.17-5.03.38-6.24l.57-3.97c-2.51 0-4.68-.2-7.15-.2l-.57 3.86c-.18 1.03-.24 3.85-.24 5.1 0 3.71.76 8.93 3.99 11.12 1.86 1.26 2.76 1.26 4.98 1.26 1.01 0 1.93-.36 2.61-.7.5-.25 1.12-.59 1.54-.98.97-.89 1.23-1.16 2.01-2.32.53-.8.78-1.43 1.19-2.24.67-1.33 1.26-3.65 1.57-5.18.1-.53.18-.93.24-1.46.15-1.33.4-3.34.4-4.74l-.2-4.23h-7.15c0 1.43.1 2.5.1 3.93zM86.87 210.4c.37.27.13.08.38 1.13l.55 2.47c.07.3.16.97.28 1.23h-2.22c.12-.24 1.01-4.43 1.01-4.83zm-4.13-8.06-1.9 6.26c-1.15 3.48-2.29 7.91-3.42 11.48-.16.52-.71 2.16-.72 2.6.61 0 .92.08 1.52.1l2.91.31c1.13.01 2.27.27 2.93.31.44.02.42.01.5-.31l.57-2.65c.06-.31-.01-.48.33-.48h3.22c.02.68.8 2.85.81 3.43.77 0 1.71-.21 2.42-.3l4.83-.61c.54-.06.41-.08.19-.79l-4.61-15.94c-.22-.73-.44-1.44-.63-2.18-.08-.29-.2-.68-.3-1.01-.17-.59.01-.63-.79-.62-.59 0-.71.1-1.21.1-.41.01-1.01-.04-1.39.02l-2.53.19c-1.05.01-1.73.09-2.73.09zM150.81 210.3h.1c0 .71.93 4.04 1.01 4.93h-2.12c.01-.53 1.01-4.64 1.01-4.93zm-4.23-7.96c-.19.82-.49 1.65-.74 2.48l-5.3 17.86c1.61 0 6.39.71 7.85.71.01-.52.22-1.16.33-1.69l.38-1.74h3.42l.8 3.13c.18.58.57.21 1.92.09 1.22-.1 4.62-.7 5.74-.7-.01-.59-3.92-13.67-4.39-15.34l-.73-2.6c-.18-.55-.68-2.1-.72-2.6-.85 0-1.36.1-2.12.1-1.69-.01-4.65.3-6.44.3zM42.17 208.38c0 1.29-.05 1.27.28 2.54.33 1.33 1.38 2.67 2.6 3.34 2.69 1.47 6.08.09 6.08 1.88 0 1.99-5.77.96-8.02-.36-.38-.22-.29-.23-.43 1.07l-.51 5.13 1.84.77c.61.25 1.29.48 1.94.68.63.18 1.46.43 2.16.46.78.04 1.26.18 2.47-.04 1.62-.29 3.61-.84 4.7-1.85.14-.13.15-.16.32-.29 1.29-.95 2.37-3.27 2.48-4.87.01-.19-.02-.41-.01-.6.03-.43.11-.21.11-.61l-.12-1.19c-.47-3.04-2.92-4.56-6.03-4.55-.4.01-.92.03-1.31.01-3.42-.24-2.12-3.46 4.52-1.7.37.1.64.27 1.12.28l.28-3.04c.07-.42.11-1.18.12-1.59.02-.57.11-.34.11-1.61-1.38-.32-1.99-.97-4.74-1-1.12-.01-1.02-.17-2.61 0-.87.1-1.56.35-2.31.61-.82.29-1.15.52-1.84.98-.18.11-.25.15-.41.29-.68.6-.82.63-1.45 1.48l-.8 1.41c-.26.64-.54 1.54-.54 2.37zM181.22 223.69h3.73c.51 0 .61-.11 1.2-.1h2.52l5.04-.1c.8.01.65.25.8-1.81.03-.38-.04-.84 0-1.21.05-.42.1-.63.1-1.21l.1-2.52h-6.34l.1-2.11c.82 0 1.32-.1 2.21-.1.39 0 .83.01 1.21 0 .45-.02.54-.1 1.11-.1l.4-4.74h-4.53l.08-1.23c.12-.84-.27-.66 1.43-.68.51 0 .5-.1 1-.1.34-.01.68.01 1.02 0 .5 0 .49-.1 1-.1l2.01-.1c0-.54.08-.89.1-1.52.02-.52.11-.28.1-1.5l.15-2.29c.05-.26.1-.43-.24-.43h-13.8c0 1.87-.1 3.5-.1 5.44 0 1.03-.1 1.67-.1 2.71 0 .79.08 2.09-.01 2.82-.16 1.39-.07 2.71-.09 4.14 0 .51-.11.68-.1 1.3v2.82c0 .95-.1 1.68-.1 2.72zM25.25 223.69h3.83c.51 0 .61-.11 1.2-.1h2.52c.91 0 1.53-.1 2.52-.1h2.52c.71 0 .58-.05.6-.71.01-.44.1-.62.1-1.21-.01-1.52.17-3.26.3-4.83H32.4c0-.85.1-1.28.1-2.11.49 0 4.46-.1 4.6-.34l.23-3.39c0-.58.09-.76.1-1.21H32.9c0-.37.08-1.79.24-1.88.12-.07.88-.03 1.07-.03l3.12-.21c.36-.01.75.02 1.11.01.44 0 .57-.1 1.01-.1.03-.39.09-.27.1-.7l.09-2.33c.02-.55.11-.27.11-1.51 0-.67.34-1.2-.2-1.2h-13.8c0 3.72-.2 7.24-.2 10.97l-.14 5.5c-.18.98-.01 2.98-.06 4.17-.01.46-.1.7-.1 1.31zM171.05 223.49c2.14 0 3.06-.06 5.15-.79.37-.13.72-.33 1.09-.42l.3-3.63c.03-.37.1-.32.11-.8 0-.48.02-.59.07-.93l.12-1.89c-1.07.57-2.91 1.41-4.53 1.41-2.04 0-3.42-1-3.42-3.02 0-3.1 2.51-4.83 5.64-4.83.77 0 1.18.14 1.81.2 0-.6.14-1.09.2-1.62l.61-4.83c-2.75-1.45-7.67-.9-10.46.93-2.77 1.81-4.45 4.89-4.96 8.12-.39 2.47-.39 5.38 1 7.59 1.56 2.48 4.18 4.51 7.27 4.51zM138.73 180.69c0 1.73.42 3.82 1.1 5.34l1.15 2.08c.25.36.43.62.67.94l1.16 1.26c2.06 2.06 5.49 3.68 8.4 3.68 3.6 0 5.01-.35 8.05-2.12.26-.15.58-.38.83-.58l.81-.7.71-.71c1.04-1.03 1.98-2.45 2.53-3.81.31-.76.79-1.82.87-2.76h-2.62c-.61 2.62-2.09 4.57-4.15 6.13-3.9 2.95-9.91 2.61-13.29-.67-.21-.2-.21-.15-.4-.3l-1.16-1.36c-1.02-1.31-2.05-3.85-2.05-5.71v-1.11c0-5.37 5-10.17 10.17-10.17 1.74 0 3.12.09 4.7.84.27.13.52.2.76.35.93.58 1.85 1.13 2.63 1.91.25.25.26.36.5.6l.75.96c.47.61 1.46 2.62 1.54 3.6h-16.62v2.52l19.44-.1c0-3.1-.84-5.57-2.52-7.86-.12-.17-.2-.27-.34-.46-.72-.97-1.95-2.03-2.94-2.7l-1.01-.6c-.45-.28-.57-.32-1.08-.54-.25-.1-.28-.15-.56-.24l-1.86-.55c-2.93-.75-5.73-.23-8.28.8-1.84.75-3.44 2.08-4.7 3.56-1.35 1.59-2.4 3.42-2.81 5.54-.17.84-.38 1.9-.38 2.94zM60.19 209.19l3.42-.1c.4-.03.55-.1 1.11-.1v14.4l2.32-.1c.37-.03.32-.1.8-.11 1.19-.01 2.11-.1 3.32-.1l.2-1.71c.03-.28-.02-.62 0-.9l1.01-11.78 4.53-.21.1-6.54H60.69c-.35 0-.31.25-.3.6v1.01c0 .66-.1 1.05-.1 1.81v1.92c0 .76-.1 1.12-.1 1.91z" class="fil3"/><path d="m94.63 77.67-.4 4.86c2.77 1.05 7.59 3.86 9.92 5.77l2.21 2.22c.47.65 1.03 1.51 1.22 2.41.72 3.39-3.63 4.71-6.62 5.18-11.65 1.79-29.17-2.41-39.86-6.83-2.43-1-3.89-1.68-6.13-2.83-.66-.34-1.26-.74-1.84-1.04-2.83-1.47-10.16-6.48-7.1-10.29 2.57-3.19 11.95-3.03 15.9-2.75.44-.82.75-1.62 1.23-2.37.33-.53 1.26-1.73 1.85-1.76l-.03-.22c.29-.11 3.3-2.12 3.53-2.34 1.15-1.13 1.62-2.08 1.91-3.8.62-3.67-.46-6.31 2.67-8.83.97-.78 2.2-2.29 2.95-2.89.61-.48 2.39-2.61 2.78-2.96.33-.29.42-.52.71-.81l6.05-6.83a9.81 9.81 0 0 1 1.9-1.02c1.35-.55 2.79-1.07 4.3-1.43 5.05-1.21 9.46-1.85 14.39-2.83 1.61-.33 3.08-1.04 4.78-.6 1.34.35 2.96 1.38 3.59 2.16.27.32.49.38.76.75.21.29.38.47.61.8.41.58.67 1.11.96 1.93-.08.76-.09.99-1.05.87-1.17-.15-2.87-1.41-4.06-1.97-.55-.26-1.07-.49-1.7-.15-1.07.57-2.29 2-2.86 3.17-.9 1.85-.16 2.45-.87 3.25-1.37 1.54-5.95 2.47-8.03 4.07-.89.69-1.23 1.3-1.24 2.86-.03 3.25 1.46 7.72.49 10.98-1.09 3.69-1.73 5.96-2.36 9.81-.16.94-.31 2.63-.56 3.46zm-27.8 16.46.81.24c.28.19.58.25.91.34.36.09.63.19.99.31 2.67.89 5.26 1.52 7.97 2.2 1.26.32 5.6 1.27 6.44 1.3l1.16.21 4.62.57c.33.06.55.01.86.04 1.86.21 3.99.2 5.95.2 3.25 0 10.52-.89 11.56-4.35 1.42-4.71-4.63-8.77-7.98-10.82-2.14-1.3-3.55-1.87-4.43-4.43-.31-.92-.38-2-.27-2.96.07-.57.01-1.1.09-1.63.25-1.57.13-2.78.71-4.62.65-2.07 2.55-5.33 2.53-8.04 0-.55.07-1.15-.03-1.68-.07-.33-.12-.41-.23-.68-.64-1.62-.77-7.66-.15-8.73.14-.23.84-.51 1.15-.66l2.38-1.14c1.28-.64 3.63-1.54 4.7-2.35.77-.58.66-3.02 1.21-4.03.21-.4.2-.23.46-.45.45-.38.7-1.08 1.07-1.55.73-.94 1.46-.4 2.36-.01.23.09.32.16.54.27.25.12.42.16.64.26 1.39.63 4.59 1.76 4.54-.9-.02-1.26-3.22-5.93-5.73-6.57-1.69-.43-15.83 2.77-19.11 3.59l-4.11 1.13c-2.54.86-3.62 1.08-5.47 3.28l-.81.91c-.16.17-.29.28-.45.45-.2.22-.18.28-.4.51l-3.72 4.13c-.16.16-.31.27-.46.45l-2.86 3.28c-.2.24-.17.25-.41.49l-1.21 1.41c-.23.23-.21.28-.41.5-.28.35-.55.63-.81 1-.72.98-.78 1.25-1.03 2.5-.16.77-.32 1.47-.34 2.27-.02.48-.08.43-.11.8-.12 1.74.13 3.16-.48 4.75-.31.81-.99 1.42-1.73 1.8-1.16.6-2.34 1.17-3.38 1.95-.79.59-1.43 1.52-2.03 2.31-.39.5-.84 1.03-1.13 1.58-1.58 0-3.93-.11-5.44 0l-2.56.26c-.28.05-.61.09-.79.12-1.48.25-3.17.54-4.47 1.16-.92.44-1.74.88-2.38 1.66-.11.13-.12.11-.23.26-1.07 1.43-.59 3.58.32 4.94l.77 1.04c.35.36.54.64.91 1.01.34.35.6.5.95.86l1.52 1.19c.18.14.36.24.54.37 1.86 1.41 4.4 2.78 6.53 3.75 2.07.94 8.44 3.66 9.96 3.95z" style="fill:#4b3472"/><path d="M65.01 70.24c.99.9 3.55 2.39 4.98 3.02l.18.1c-.05-.3.81-.69 1.35-1.16.34-.3 1.05-.91 1.2-1.41.43-1.4-1.72-6.21 1.31-8.15 1.08-.69 3.04-1.27 3.21-1.97.02-.77-.13-1.19-.01-2.1.2-1.53.8-3.61 1.31-5.02 1.74-4.82 3.76-3.97 6.42-6.36 1.03-.92 1.88-4.12 2.97-5.5.98-1.23 1.89-.9 3.37-.93 2.68-.05 5.28-.22 7.86-.6 2.88-.41 4.34-.8 6.48-2.1 2.62-1.59 3.23-1.93 6.18-.32.87.47 3.56 2.36 4.36 3.09.26.25.36.33.69.49-.29-.82-.55-1.35-.96-1.93-.23-.33-.4-.51-.61-.8-.27-.37-.49-.43-.76-.75-.63-.78-2.25-1.81-3.59-2.16-1.7-.44-3.17.27-4.78.6-4.93.98-9.34 1.62-14.39 2.83-1.51.36-2.95.88-4.3 1.43-.65.26-1.38.65-1.9 1.02l-6.05 6.83c-.29.29-.38.52-.71.81-.39.35-2.17 2.48-2.78 2.96-.75.6-1.98 2.11-2.95 2.89-3.13 2.52-2.05 5.16-2.67 8.83-.29 1.72-.76 2.67-1.91 3.8-.23.22-3.24 2.23-3.53 2.34l.03.22z" class="fil5"/><path d="M27.67 179.79c0 2.64.16 4.26 1.34 6.61l.89 1.53c1.29 1.96 3.68 3.91 5.88 4.79.8.32 1.58.58 2.47.76.56.11 2.39.35 2.95.24 1.25-.24 1.83.07 4.1-.73 1.79-.63 4.35-2.21 5.44-3.62 2.12-2.72 3.41-5.1 3.41-8.88 0-.89-.19-1.92-.2-2.31h-2.62c.13 1.56.2.91.2 3.02 0 3.21-2.45 7.06-5.27 8.52-.99.52-1.54.81-2.7 1.13-2.31.62-5.22.32-7.23-.69-.61-.3-1.09-.58-1.66-.97-1.29-.86-2.31-2.14-3.08-3.46-.21-.37-.25-.39-.44-.87-1.7-4.23-1.13-8.58 2.13-11.84l1.39-1.23c4.02-2.7 8.43-2.63 12.45.02.8.53 1.96 1.62 2.4 2.44h3.02c-.1-.37-.62-1.12-.87-1.45-1.76-2.37-3.7-3.91-6.67-4.91-.54-.18-1.25-.36-1.85-.46-3.82-.65-7.48.31-10.53 2.71-1.47 1.16-2.77 2.77-3.61 4.45-.63 1.26-1.34 3.36-1.34 5.2z" class="fil3"/><path d="m117.18 150.76.91.09c1.03.19 1.48.47 2.06 1.18-.93-.8-2.64-.6-3.9.04-.46.24-.57.51-.95.71v-1.51c.56-.36 1.1-.46 1.88-.51zm2.92.26c.24.33.19.41.26.86-.42-.57-.49-.43-.84-.72-.22-.17-.05-.04-.18-.17-.26-.08-.48-.2-.77-.28-1.74-.47-1.63-.02-3.2-.02v-2.62c.48-.25.91-.46 1.71-.4.82.06 2.39.76 2.62 1.61.12.45.38 1.22.4 1.74zm-4.73-3.25v-3.02c.59-.32 2.08-.96 2.91-.6.31.15.39 1.01.59 1.83.22.86.43 1.66.62 2.49-1.23-.82-2.39-1.53-4.12-.7zm7.45-3.12.11.19-.11-.19zm-2.04 6.44-.04.98c-.06-.08-.1-.08-.16-.24l-.16-.74c-.13-.82-.32-.95-.32-2.01 0-.86-.02-1.61.09-2.33.17-1.09.72-2.94 1.42-3.41.25.18.6.91.8 1.21-.12.55-.35.92-.54 1.47-.51 1.51-.96 3.41-1.09 5.07zm1.94-6.64.1.2-.1-.2zm-14.6.1c.07-.14.27-.52.37-.63.68-.75 3.26.1 4.29.9.76.59.5.31 1.25 1.06.41.4.72.92 1.03 1.39v1.61c-.21-.26-1.17-3.25-4.44-4.11-.44-.12-.69-.21-1.19-.22-.37-.01-.46-.07-.63-.08-.31-.03-.25.07-.68.08zm10.17-.71h.1l-.09.12-.01-.12zm0 0c-1.39 0-1.77.05-2.92.61v-2.62c2.26 0 2.47-.02 2.7.92.09.39.21.68.22 1.09zm-6.15-1.61h.41c1.18 0 2.04.5 2.51 1.21v3.22c-.2-.13-1.24-1.5-2.39-2.24-1.3-.82-2.15-.98-3.65-.98.81-.7 1.99-1.21 3.12-1.21zm7.66 6.14h-.1c0-.38-.12-.68-.22-.99l-.49-1.93c-.26-1.04-.52-1.13.44-2.57.32-.47.69-1.02 1.27-1.15 1.24 2.34.72.12-.44 3.58-.28.84-.46 2-.46 3.06zm-10.78-5.33c.56-.84.41-.86 1.41-1.31 1.56-.71 3.11-.91 4.63-.1v1.31c-.39-.27-.62-.5-1.1-.71-2.32-1.01-4.76.76-4.94.81zm.91-1.41v.1l-.12-.09.12-.01zm8.66 2.21c-.49-2.08-.8-1.75.27-3.15.28-.36.34-.56.84-.67.28.54.71 1.09.8 1.51-.98.26-1.46 1.65-1.78 2.14-.15.25-.01.03-.13.17zm-3.22-2.19c.23-.34 1.44-1.03 2.01-1.03.24 0 .38.94.4 1.21-.83-.4-1.56-.29-2.41-.18zm5.13-.83.12.2-.12-.2zm-.1-.2.1.2-.1-.2zm-10.47 1.01c.62-1.17.53-1.3 2.05-1.58.46-.08 1.29-.07 1.78-.04.64.05.92.35 1.3.61v.71c-.66-.35-1.57-.67-2.66-.45-1.8.36-1.54.53-2.47.75zm5.44-.41v-1.1c.57-.3.96-.79 1.81-.81.09.38.2.63.2 1.11-.75 0-1.55.49-2.01.8zm-4.43-1.2v.1l-.12-.09.12-.01zm7.04 1.51c-.05-.66-.38-1.25-.4-1.92.73-.48.69-.4 1.61-.4.13.24.24.34.3.6-.33.09-.24.09-.47.33l-.71.9c-.09.13-.08.13-.16.25l-.17.24zm-7.04-1.51c.25-.95 2.49-1.01 3.18-.77.46.16.62.35.94.56v.51c-.29-.2-.31-.32-.76-.45-.81-.22-1.5-.19-2.27-.07-.44.07-.71.18-1.09.22zm4.99-2.32c.24-.27.28-.37.76-.4l.14.6c.09.42.22.72.25 1.11-.64.31-.55.02-1.71.8 0-1.2-.22-1.73.56-2.11zm-4.49 1.51c.07-.28-.02-.18.26-.34 1.13-.65 2.13-.87 3.36-.77v1.31c-.33-.09-.32-.2-.67-.33-.78-.31-2.24-.21-2.95.13zm6.17-1.21c.23-.26.3-.24.69-.25l.28.45c.15.26.28.45.41.71-.35 0-.55.02-.81.1-.43.11-.34.2-.7.3-.14-.29-.22-.66-.3-1.01.2-.13.2-.17.43-.3zm-5.67.41v.1l-.11-.09.11-.01zm-10.27-.51c.76-.17.28-.2 1.31-.2 2.55 0 4.17 1.4 4.87 3.49.55 1.61.8 2.07.27 2.85l-.41.61c-.21-.94-.4-1.45-.87-2.25l-3.01-3.43c-1.63-1.21-1.8-.57-2.16-1.07zm10.27.51c.18-.78.61-.84 1.33-.99.39-.08.63-.16 1.09-.13.94.07.7.24.7.51-2.31 0-1.92.33-3.12.61zm-6.14-2.02c1.19 0 2.61 1.14 3.29 2.05.4.54 1.09 1.91 1.04 2.28l-1.33 2.2c-.01.02-.03.04-.04.06-.18.23-.02.02-.14.16-.02-.98-.85-3.16-1.58-3.96-.92-1-1.97-1.68-3.86-1.68.22-.29.18-.19.57-.34l2.05-.77zm11.38 1.59-.13-.08-.16-.9c.23-.24.26-.36.59-.53l.26.27c.06.1.06.12.14.26.18.29.16.17.26.5-.16.07-.4.14-.54.22-.23.13-.17.14-.42.26zm-1.61-.38c-.11.18-.06.12-.23.2-.27-.54.37-1.18 1.13-1.44l.15.64c-.03.01-.06.03-.07.04l-.23.11c-.55.26-.44.29-.75.45zm-2.71-.81c.11-.3.25-.41.36-.7.58.1 1.34.53 1.57 1.02h-1.14c-.38.01-.71.16-1.1.19.12-.19.19-.3.31-.51zm-.82.1.12.2-.12-.2zm5.77-1.1c-.15-1.36.07-2.55.07-3.83h.1c0 2.69.32 2.75.41 3.99l.51 2.26c-.3-.26-.5-.73-.73-1.1-.27-.44-.37-.67-.36-1.32zm-1.13-.04c.09-.29.02-.19.3-.26.07.28-.01.07.1.29l.3.41-.64.55c-.04-.22-.28-.99-.06-.99zm-10.27.34c.74-.02.21-.2.8-.2 1.27 0 2.39 1.14 2.96 2.28.34.7.36 1.07.36 1.85 0 .27-.07.24-.3.3-.04-.53-.32-.95-.54-1.38-.36-.74-1.18-1.62-1.88-2.04-.33-.21-.93-.57-1.4-.61v-.2zm8.91.15c.34-.24.69-.37 1.06-.15l-.29.22c-.56.31-.43.36-.8.57l.03-.64zm-1.67-.7c.17-.49.76-.36 1.41-.36l.03.51-.01 1.32c-.47-.34-.74-.89-1.68-1.08l.25-.39zm-4.02.25c1.12.26 2.41 1.26 2.41 1.71 0 .25-.2.44-.3.61l-.26.44c-.18.23-.02.02-.14.16 0-.67-.34-1.27-.62-1.7-.35-.52-.78-.76-1.09-1.22zm-3.12 0v.1l-.12-.09.12-.01zm2.92-.1.03.03c-.01-.01-.04-.02-.03-.03zm5.94-.31c.15.08.15.06.29.12l-.29.19v-.31zm-7.66.21c1.02-.09.15-.67 2.08.74.61.45 1.35 1.63 1.35 2.68 0 .33-.09.08-.2.5-.49-.35-.02-1.24-1.13-2.39-.53-.54-.81-.87-1.52-1.2-.39-.18-.36-.04-.58-.33zm-1.2-.31v.1l-.12-.08.12-.02zm9.86-.1c0-.34 0-.1.07-.23s.07-.1.13-.17c.14.51.19.25.04.54-.07.13-.07.09-.14.17-.03-.12-.1-.28-.1-.31zm-1-.3c.74 0 .79.14.8.61-.27-.15-.43-.28-.8-.31v-.3zm-3.83.57c.33.23.43.71.51 1.14l-.01.3-.4-.4-.1-.05c-.33-.22-.56-.39-.9-.56-.31-.17-.65-.32-.9-.5-.03-.01-.06-.06-.07-.03l-.65-.27c.95 0 1.33-1.06 2.3.02.19.22.1.09.22.35zm8.06.57.9 2.59c.13.55.34.96.52 1.49.15.48.35.95.56 1.46l.57 1.44c.21.51.45.92.57 1.45-.87-.64-2.43-5.13-2.78-5.84l-.66-2.72c-.01-.47-.19-.88-.19-1.41h.1c0 .53.3 1.02.41 1.54zm-4.74-1.14c.1-.09.37.13.13.06-.01 0-.3.11-.13-.06zm-.9.1c.22-.3.17-.2.7-.2v.1c-.34 0-.39.07-.7.1zm1.91-.9c.06.23.09.29.1.6-.24-.06-.3-.09-.6-.1.01-.5 0-.49.5-.5zm-.81-.61v1.21c-.31-.15-.36-.1-.8-.1.1-.37.43-1.01.8-1.11zm-6.04 1.01v.1l-.11-.08.11-.02zm7.15-.1c0-.23.17-.05.07 0 0 0-.07.29-.07 0zm-2.87 1.21c-.11.23-.24.42-.35.6l-.4.55c-.07.23-.02.13-.2.26l-.04-.31-.41-1.2c-.57-1.03-.62-.61-.96-1.11 1.34-.31 1.78-1.21 2.58.13.28.48-.04.73-.22 1.08zm-4.18-1.31-.1.2.1-.2zm-1.81 1.21.91-1.21c-.11.45-.46 1.08-.91 1.21zm11.68-1.21c0-.23.17-.05.07 0 0 0-.07.29-.07 0zm-9.77-.2-.1.2.1-.2zm-1 0 .03.03c0-.01-.04-.02-.03-.03zm1.11-.21-.11.21.11-.21zm8.15 1.41c0 .28.05.28.1.51-.75-.2-.44-1.51-.28-2.2.07-.3.18-.4.18-.82h.1c0 .96-.1 1.53-.1 2.51zm-6.85-1.61c-.01.23-.02.27-.09.42-.19.41-.05.2-.31.29l.4-.71zm-2.31.2c0-.23.16-.05.07 0-.01 0-.07.3-.07 0zm1.01 0 .05-.21-.05.21zm6.04 0c.04-.41.13-.41.4-.3-.14.38-.02.16-.4.3zm-2.32-.3c.51.12.79.39.81 1.01l-.1-.11c-.01-.02-.06-.1-.07-.13-.32-.52-.38-.38-.64-.77zm.5-.2c.54-.12.38-.22.91-.1 0 .58-.05.67-.4.91-.15-.54-.08.01-.51-.81zm-4.12.1c0-.23.16-.05.06 0 0 0-.06.29-.06 0zm6.64-.3v.3h-.1c0-.53 0-.15.1-.3zm-5.44.5c.02-.15-.02-.1.04-.26.12-.31.09-.16.17-.24-.02.16.02.1-.04.27-.12.3-.09.15-.17.23zm8.36 2.15.71 2.69c.07.33.2.72.34 1.06.13.34.33.68.36 1.05-.25-.18-.49-.72-.68-1.03-.11-.17-.21-.32-.31-.5-.13-.24-.14-.4-.24-.68l-.54-2.52-.45-2.92c-.04-.54.07-.72.11-1.11h.2c.01.41.08.5.1 1.01.03.9.39 2.27.4 2.95zm-9.46-2.85h.1v.3h-.1v-.3zm6.54.2.06-.22-.06.22zm-1.51-.1.03.03s-.04-.02-.03-.03zm-3.62-.3c0 .33.06.26-.1.4 0-.33-.07-.26.1-.4zm-1.72 2.01.52-1.19c.12-.34.28-.97.29-1.43h.6c0 .92-.42 2.39-1.41 2.62zm5.54-2.11c0-.25.24-.51.61-.51.24 0 .29.17.5.3 0 .79-.02.81-.81.81-.1-.16-.3-.37-.3-.6zm-5.13-.51h.1v.71h-.1v-.71zm6.54.3h.1v.31h-.1v-.31zm-5.44 1.72c.27-.5.59-1.29.61-2.02h1.71c0 .75-.12 1.21-.69 1.43-.51.19-1.04.45-1.63.59zm.21-1.41v-.61h.1c0 .31.07.46-.1.61zm-4.43 3.02c.09-.34.3-.45.48-.73.59-.89.93-1.65.93-2.9h.6c0 .83-.35 1.61-.68 2.14-.22.34-.32.51-.57.84-.21.29-.41.55-.76.65zm10.87-3.53c-.05.56-.5 1.54-.5 2.52-.37-.27-.25-.8-.09-1.39.11-.4.28-.9.59-1.13zm-2.82.1-.05.22.05-.22zm-.4-.3h.1v.51h-.1v-.51zm-.81 1.11c.15-.31.2-.64.2-1.11.47.04.46.09.36.55-.1.45-.1.52-.56.56zm-4.53-1.01h.51c.19.86-.42 2.04-.88 2.75-.28.41-.01.16-.33.27.11-.5.4-.78.56-1.34.21-.72.23-.99.14-1.68zm-2.31 3.12c.04-.56.29-.8.3-1.5.02-.99-.15-.86-.3-1.52h1.1c0 1.18-.23 1.78-.84 2.68l-.26.34zm-.31-3.02c.06.21.41.78.41 1.31 0 .62-.38 1.68-.64 2.08-.53.78-.93.65-1.68 1.04.01-.6.41-1.8-.58-3.04-.33-.41-.98-1.06-1.53-1.19.22-.3.27-.2.8-.2h3.22zm-8.86.1h3.63c1.38 0 3.12 1.47 3.12 3.13 0 1.53-.03 1.25-.84 1.57-.22.1-.16.09-.43.18-.67.22-1.17.5-1.85.66.41-.85.21-2.18-.28-2.94-.32-.5-.45-.65-.85-1.06-.49-.49-1.92-1.44-2.5-1.44v-.1zm18.93 1.61c0-.43.11-.71.18-1.02.11-.44.12-.58.53-.69-.53.99-.37 1.47-.71 1.71zm1.11-1.71v-.1l.12.09-.12.01zm-1.51-.2c.29.07.15-.01.3.2-.29-.07-.14.02-.3-.2zm-1.31.3v-.3c.2.07.15-.1.15.09 0 .22-.13.19-.15.21zm1.81-.4c.01-.01.03.02.03.03l-.03-.03zm.51-.1.21.06-.21-.06zm-1.61-.2h.2v.2h-.2v-.2zm-1.01.1h.3v.1h-.3v-.1zm-.71.1c.23-.33.13-.3.41-.4.07.13.05.11.1.3-.27.13-.11.09-.51.1zm-1.71-.2v.1l-.11-.08.11-.02zm-.5 0v.1l-.12-.08.12-.02zm3.32-.1.03.03s-.04-.02-.03-.03zm-2.72 0-.1.1.1-.1zm6.35.1c0-.51.1-.55.1-1.11h.1c0 .45.09.16.11.61.02.51-.23.39-.31.5zm-1.41.2c-.18-.04-.4-.12-.52-.2-.33-.23-.22-.23.01-.4.14.51.23.22.51.6zm-4.84-.4-.1.1.1-.1zm2.32-.1c0-.23.16-.05.07 0 0 0-.07.29-.07 0zm-2.22 0-.1.1.1-.1zm3.73-.1.03.03c0-.01-.04-.02-.03-.03zm-3.73.6c.07-.09.77-.91.81-.91.24 0 .3.21.7.31-.4.61-.54.6-1.51.6zm.11-.6-.11.1.11-.1zm3.02.1v-.2c.31-.03.19 0 .4-.11-.14.38-.02.16-.4.31zm-.53-.18c.27.04.16-.07.22.18l-.22-.18zm1.23-.13c.01-.01.03.02.03.03l-.03-.03zm-2.01-.5c.14.54.39.26.26.58-.11.26-.39.02-.57-.08.09-.36.06-.32.31-.5zm2.61-.2h.21c.01.68.28.79.4 1.31-.33-.17-.32-.13-.62-.49l-.19-.22c.13-.23.18-.26.2-.6zm-4.32.91c.12-.47.15-.09.2-.61.37.27.12.39-.2.61zm-.91.4c.11-.49.39-.79.4-1.41.21.11.24.14.51.2-.05.53-.46.97-.91 1.21zm.1-1.31c-.01.4-.08.53-.2.81-.04.1-.09.22-.15.35-.17.36-.05-.05-.15.35-.54 0-.57.09-1.01.1.05-.08.75-.68 1.33-1.39l.18-.22zm4.63.4c.07-.29-.01-.14.2-.3-.09.4-.19.29-.2.3zm-.8.1v-.5c.28.13.19.1.6.1-.1.39-.14.39-.6.4zm2.01-1.91c0 .97.19 2.07.2 2.52-.4-.47-.61-1.27-.49-1.9.03-.11.04-.13.11-.29.02-.03.05-.11.07-.14.1-.2.04-.1.11-.19zm-3.14 1.53.82-.52c0 .68.13.72-.3 1l-.52-.48zm-.89.38-.19-.11c.03-.41-.03-.14.1-.38.09-.15.16-.22.29-.31.23.33.4.39-.2.8zm-.3-.7-.06.22.06-.22zm-1.51.2v-.1l.12.08-.12.02zm1.51-.2v-.5h.2c-.01.51.09.28-.2.5zm-4.33 1.81.11-.09.16-.14c.16-.13.22-.14.35-.25l.61-.51c1.22-.95.5-1.25 1.49-1.02-.58.86-.28.52-1.03 1.28-.23.23-.38.37-.66.55-.39.25-.46.18-1.03.18zm3.93-1.61c-.34-.08-.64-.27-.81-.5.71-.19.3-.55.91-.71.1.41.17.66-.1 1.21zm-4.43 1.61h-1.01c.61-.52 2.29-1.28 3.12-2.52.19.09.13.08.4.1-.05.7-1.92 2.02-2.51 2.42zm7.55-1.71c-.31 0-.34-.18-.4-.4.63 0 .44-.1.9-.2-.12.26-.11.6-.5.6zm-1.51-.1c-.36 0-.5-.12-.61-.5.74-.07 1.1-.8 1.41-1.01v.8c-.13.2-.52.71-.8.71zm-8.16 1.81.17-.14c.97-.81 2.42-1.89 2.45-3.28l1.41.7c-.47.9-1.99 1.76-2.76 2.28-.46.31-.53.44-1.27.44zm10.27-1.81c.09-.4.22-.74.3-1.11.14.08.12.06.31.1-.23.47-.17.71-.61 1.01zm-5.13-1.21v.1l-.12-.08.12-.02zm6.14 0 .06-.22-.06.22zm-5.74.81c-.28 0-.58-.24-.7-.41.28-.06.48-.17.7-.3.13-.08.51-.38.62-.37.61.03-.5 1.08-.62 1.08zm-8.66 2.31c.02-.01.05-.06.05-.05l1.71-1.31c1.22-1.22 1.37-1.83 2.27-3.17l1.51.81c-.09 1.05-1.13 2.31-1.79 2.84-1.25.97-1.52.88-3.75.88zm15.71-4.73c0 .69-.03 1.16-.12 1.79-.08.55-.28 1.05-.28 1.73h-.1c0-.76.09-1.2.19-1.82.05-.35.07-.5.13-.87.11-.64 0-.68.18-.83zm-3.32 2.01v-.6c.69-.06.83-.38 1.3-.5-.34 1.47-1.3 1.58-1.3 1.1zm-4.13-.4c.1-.37.3-.47.4-.91.42.12.21.05.4.41l-.8.5zm2.01.5c-.1-.36-.1-.21-.3-.5.5-.04.9-.34 1.18-.63l.93-.98c0 .74.13.9-.67 1.64-.12.11-.32.25-.47.34-.25.15-.31.13-.67.13zm3.53-.6c.09-.41.26-.75.3-1.21l.4.11c-.01.53-.19 1.06-.7 1.1zm-4.13-.81v.1l-.12-.08.12-.02zm-2.12 1.21c.1-.43.42-.73.67-1.15.24-.4.02-.24.34-.36-.1.42-.7 1.31-1.01 1.51zm-.3-.2c-.26-.18-.42-.25-.7-.4.33-.5.94-1.14 1-1.91 1.15.76.7.81-.3 2.31zm-12.59 3.12 2.25-1.07c.9-.45 2.67-1.65 3.42-2.32l1.99-2.25 1.51.81c-1 1.88-2.2 3.55-4.13 4.53-.57.29-.79.2-1.61.2-1.27 0-2.16.1-3.43.1zm20.24-.9h-.1c0-.88-.3-2.49.11-3.62l.6-1.22c0 .65-.23 1.71-.35 2.38-.14.78-.26 1.61-.26 2.46zm-5.03-2.52c-.31 0-.28-.12-.3-.4.8-.07 1.94-1.23 2.47-1.86.01-.01.03-.04.04-.06 0 .6-.39 1.05-.77 1.44-.26.26-.33.29-.61.5-.24.19-.44.38-.83.38zm-3.63-.3c-.51-.28-.99-.53-1.51-.81.26-.35 1.27-.79 1.92-2.01.32.24.24.43.8.8-.18.39-.24.73-.47 1.15-.21.38-.41.65-.74.87zm8.06-2.32c-.08.91-.38 1.59-1.07 2.06-.32.22-.33.26-.84.26v-1.61c.36-.03.74-.12 1.04-.27.3-.15.6-.37.87-.44zm.3 1.41c-.45 0-.28-.44-.2-.71.08-.3.18-.64.3-.9.24.05.3.09.61.1l-.46 1.15c-.07.16-.06.36-.25.36zm-.3-1.41v-.1l.12.08-.12.02zm1.91-.5h.1v.3h-.1v-.3zm-.5 1.71c0-.36.02-1.83.2-2.01l.1-.11c0 .49-.05.69-.1 1.11-.04.34-.05.23-.09.52-.04.33.08.33-.11.49zm-6.04.7c.6-.89 1-.71 2.24-2.88l.17-.24c0 .88.08 1.15-.72 1.99-.36.38-1.15 1.01-1.69 1.13zm4.73-2.51c-.21.31-.48.51-.81.7-.37.22-.61.3-1.2.3v-1c.51 0 .67.03 1.03.08.42.06.48-.08.98-.08zm-9.97 1.91c-.22-.12-.35-.18-.58-.32-.24-.15-.34-.22-.63-.28.22-.3.35-.21.74-.37 1.17-.5 1.61-1.23 2.08-1.55.77.57.26.9-.48 1.64-.44.44-.56.58-1.13.88zm9.97-1.91v-.1l.12.08-.12.02zm2.01-.51v.41h-.1c0-.06 0-.17.01-.2.05-.18.03-.11.09-.21zm-.4.2.06-.21-.06.21zm-.2-.4-.5 1.01c-.27-.06-.3-.09-.51-.2.14-.57.06-.27.69-.63.11-.06.21-.12.32-.18zm-4.03 0c-.13.59-1.3 2.01-1.78 2.55-.18.19-.2.17-.39.31-.22.16-.24.22-.45.36-.15-.1-.69-.73-.8-.9.72-.02 1.49-.54 1.94-.88.92-.71 1.23-1.27 1.48-1.44zm4.03 0v-.1l.12.09-.12.01zm-4.03 0 .06-.21-.06.21zm-9.26 1.61c.18-.68 1.31-.95 1.31-3.92.27.1.22.17.53.47l.5.61c.36.43.64.63.98 1.13l-.63.68c-.18.15-.59.42-.78.53-.54.31-1.22.66-1.91.5zm13.89-1.41c0-.51.09-1.34.41-1.71-.01.36-.08.52-.16.85l-.25.86zm-8.15 1.92c-.11 0-1.31-1.24-1.41-1.61 1.39 0 2.91-.95 3.91-1.74.16-.13.16-.08.34-.25l.98-1.14c0 1.02.12 1.19-.23 1.88-.35.68-.45.71-.89 1.23-.36.42-1.71 1.63-2.7 1.63zm6.74-2.02c.16-.66.45-1.32.61-2.01.37.25.28.38.8.5-.04.19-.08.35-.16.54-.2.45-.78.86-1.25.97zm1.82-1.61.05-.21-.05.21zm-2.12 1.81c-1.71.4-.85.1-2.31.1v-1.61c.4.04.24.1.5.1.86 0 1.84-.5 2.42-.8-.07.81-.55 1.49-.61 2.21zm-8.05 0c-.14 0-.43-.39-.51-.5.47-.11.66-.36.99-.62 1.34-1.06 3.06-3.12 3.85-4.72.22-.44 1-1.89 1-2.41h.1c0 .71.12 4.51-.12 5-.16.31-.52.73-.76.96-.88.87-1.93 1.58-3.15 1.98-.33.11-1.03.31-1.4.31zm9.96-1.91c-1.32-.31-.73-1.16-.11-3.13.06-.2.06-.19.13-.38l.07-.23c.06-.13.07-.12.12-.19.04.2.18.55.28.73.14.26.21.4.52.48-.03.44-.35.97-.49 1.32-.15.41-.48.97-.52 1.4zm.41-4.43c0-.8.34-1.09.4-1.81.46.34.07.55.64 1.47.58.92.05.6-.24 1.85-.32-.09-.43-.22-.56-.54-.12-.28-.24-.63-.24-.97zm-4.03 4.63-.6-.1v-5.74c1.61 1.08 2.13 1.52 4.33 1.01-.11.22-.15.48-.24.77-.21.63-.78 2.83-1.09 3.14-.52.51-1.67.92-2.4.92zm5.54-4.83c-.49-.36-.81-1.81-.81-2.32 0-.54.54-1.46.61-2.21h.2c0 1.02.9 2.18.9 2.21 0 .32-.1.4-.2.61l-.7 1.71zm-12.49 5.84c-.33-.22-1.82-1.89-1.91-2.22 1.58 0 2.75-.75 3.87-1.57 1.41-1.03 1.17-1.1 1.89-1.82.83-.82 1.44-2.13 1.99-3.15l.2-.3c0 2.25-2.33 5.65-3.9 7.37-.48.54-1.5 1.35-2.14 1.69zm12.09-10.57c-.03.29-.21.86-.29 1.12l-1.02 3.31c-1.07.25-1.24.49-2.6.08-.66-.2-1.48-.76-1.83-1.29v-1.61c1.89 1 3.95-.12 5.41-1.34.17-.14.13-.14.33-.27zm0 0v-.1l.11.08-.11.02zm-4.13 1.71c-.94 0-.9-.14-1.61-.3v-.51c1.59.38 1.66.26 3.33-.39 1.42-.54 2.01-1.54 2.81-1.72-.28 1.21-2.71 2.92-4.53 2.92zm3.42-2.58c-.43.48-1.54 1.06-2.17 1.31-.6.24-.71.28-1.45.37-.92.12-.67-.03-1.41-.21v-.23c-.15-.15-.06-1.35-.06-1.79 0-.77-.05-.48-.15-.56l-.08 2.38c-.03.51 0 .36-.18.74-.14.27-.17.43-.3.7-.14.28-.21.41-.36.65-1.14 1.8-2.24 3.52-4.28 4.69-.67.38-2.41 1.17-3.05.97-.31-.21-.23-.3-.61-.4.04.46.09.27.31.6.17.57-.26 2.52-.85 3.39-.43.65-.65.54-.97.54l.04.54-.62.79c-.21.23-.2.29-.4.51-1.08 1.21-3.51 2.69-5.06 3.4-.95.43-1.62.8-3.02.8.05.2.02.16.1.3 1.01 0 .41-.26 2.18.45 1.09.43 2.44 1.66 2.85 2.79.42 1.16.14 1.39-.09 2.4-.34.03-.21.02-.48.13-.43.17-.19-.05-.43.28.69.32 1.8-1.55 5.11 1.73l1.64 2.09c.59.88.73 1.55 1 2.72-.21.32-.16.07-.2.5.89-.23-.22-1.19 2.7-.68 2.68.47 4.87 2.8 5.07 5.82l.01 2.62-.03.64.25-.83c.34-.33.74-.77 1.35-1.04 1.14-.49 2.79-.57 3.68.39.35.37.49 1.1.62 1.74l.05.3c.25-.06.11.04.21-.2-.39-1.4-.36-1.63-.22-3.12.13-1.08.33-2.23.57-3.26.12-.51.29-1.05.43-1.48.14-.43.48-1.11.52-1.5h.2c.08.38.42.8.6 1.11.22.37.41.77.67 1.15l1 1.61c.23.38.03.35.45.46-.04-.38-.09-.38-.27-.65-1.22-1.77-1.18-2.19-1.92-3.71-.13-.28-.16-.43-.3-.71-.42-.85-.79-1.83-1.13-2.7-.18-.46-.36-.91-.53-1.38l-.49-1.47c-.28-.36-.77-2.11-.94-2.67-.16-.59-.38-1.32-.6-1.98-.23-.68-.47-1.4-.47-2.25.3-.08.22 0 .3-.3-.01-.01-.21.06-.29-.42l-.03-1.92c.28-1.77.59-2.92.95-4.69.84-4.12 1.64-4.81 2.98-8.29.2-.52.78-1.57.82-2.1-.33.09-.19-.09-.56.84-.16.39-.29.74-.44 1.07-.75-.5-1.13-2.29-.8-3.42l.61-1.93c-.01-.39.02-.12-.17-.34-.17 1.06-.95 2.19-1.86 2.71z" style="fill:#cccbcb"/><path d="M53.13 87.41c-.5-3.99 1.29-4.42 5.25-4.59 1.52-.06 2.68-.45 3.83-1.09 2-1.12 2.16-2.12 2.68-2.29v-.1c-.94-.48-2.01-1.39-2.83-2.01-.35-.27-.49-.51-.86-.74.06-.74.54-1.51.73-2.22-3.95-.28-13.33-.44-15.9 2.75-3.06 3.81 4.27 8.82 7.1 10.29z" class="fil5"/><path d="m13.67 175.46 5.82 10.39c.14.23.21.36.32.59l4.23 7.55h4.13c0-.86-1.6-3.16-2.14-4.01l-5.61-9.39c-.31-.53-2.62-4.28-2.62-4.53 0-.08 1.08-1.22 1.23-1.38l3.22-3.32c.29-.29.35-.45.61-.71.44-.46.85-.85 1.31-1.31l2.84-3c.15-.18.17-.21.33-.37.66-.67.63-.38.63-1.28h-4.13c-.11.42-1.5 1.63-1.89 2.03-.25.26-.32.43-.6.71l-1.91 2.01c-.22.24-.43.42-.66.66l-3.22 3.32c-.14.14-.17.18-.29.32l-1.6 1.72zM172.76 175.46c0 .26 1.85 3.31 2.21 4.03.13.25.2.31.34.57l7.18 12.75c.24.45.42.76.64 1.18h4.13c0-.78-.77-1.71-1.17-2.36-.47-.77-.87-1.44-1.32-2.21l-3.32-5.54c-.83-1.59-3-4.96-4.03-6.74-.13-.23-.21-.36-.33-.57-.14-.24-.23-.28-.3-.61.31-.11.15-.1.68-.63l4.48-4.68c.77-.77.9-.8 1.56-1.65.11-.14.22-.23.35-.36.48-.48 3.2-3.21 3.2-3.45v-.5h-3.93c-.33 0-.84.79-1.33 1.28l-3.58 3.67c-.16.2-.11.21-.3.41l-5.16 5.41zM9.84 193.99h3.33v-29.3H9.84zM168.93 193.99h3.02c.24 0 .31-.07.31-.31v-28.99h-3.33v29.3z" class="fil3"/><path d="M76.98 83.53c1.54.32 3.06.8 4.6 1.17 2.12.51 1.91.33 2.66-2.69.69-2.81 1.19-3.03-1.01-3.6-1.23-.33-3.54-.76-4.59-1.21-1.69-.31-3.66-.9-5.34-1.34-2.75-.72-2.41-.56-3.22 2.56-.15.6-.69 2.24-.51 2.77.23.71 1.45.79 2.23 1 1.72.46 3.49.84 5.18 1.34z" class="fil7"/><path d="M57.17 194.09h2.41v-33.13h-2.41zM106.71 169.52v16.31c0 1.97.55 3.65 1.65 5.1.11.15.12.13.23.26 1.36 1.63 3.36 2.8 5.57 2.8 1.78 0 2.57-.03 4.23-.91v-2.92c-.22.06-3.28 2.74-6.57.63-.82-.53-1.23-.94-1.77-1.76-.42-.63-.83-1.58-.83-2.59v-15.71c0-1.87.43-1.51-2.21-1.51-.23 0-.3.07-.3.3zM62.61 170.52v3.23c.63-.23 1.17-2.02 4.33-2.02 1.24 0 2.86.7 3.64 1.7.86 1.08 1.29 2.13 1.29 4.04v16.52h2.42v-17.42c0-1.27-.31-1.94-.7-2.94-.32-.84-.93-1.56-1.54-2.17-.37-.37-.55-.54-.97-.85-2.36-1.79-5.92-1.8-8.47-.09z" class="fil3"/><path d="M76.51 189.56c.05.91 1.35 3.31 2.08 4.05.82.83 2.04 1.46 3.12.55.82-.68.27-.63.83-.78.1.39.13.23.36.54.2.27.21.32.49.53.43.32.69.57 1.3.71 1.27.29 2.22-.68 2.58-1.38.76.51 2.32 2.42 5.01 1.08.63-.32.9-.62 1.44-.98.33.23 1.05 1.65 2.68 1.28.43-.1.96-.46 1.27-.74.63-.57.57-.76.98-1.04.41.61.95 1.19 1.81 1.22 1.52.05 2.71-1.72 3.3-2.96.21-.45.81-1.88.82-2.29l-.09-.13c-.18.64-1.46 2.59-1.81 2.95-.25.26-.79.97-1.35.84-.62-.14-.92-.71-.9-1.44.01-.63 1.34-4.28 1.22-8.17-.46 1.57-.41 4.48-1.91 7.75-.25.57-2.71 3.42-3.1.12-.14-1.2 1.17-5.22.77-8.84-.26 1.36-.33 2.55-.69 3.89-.74 2.83-2.75 7.6-6.33 7.48-2.4-.08-4.08-2.49-4.92-4.25-1.07-2.24-1.55-4.54-1.87-7.23-.25 4.13.86 7.82.82 8.64-.21 3.52-2.59 1.1-2.98.51-.78-1.2-1.64-5.16-1.88-6.89l-.16-.59c-.12 3.21 1.27 7.07 1.2 7.86-.06.58-.51 1.2-1.08 1.18-.98-.02-2.65-2.95-2.93-3.69-.13.12-.14-.17-.08.22z" style="fill:#c45026"/><path d="M121.51 193.99h2.42v-24.77h-2.42z" class="fil3"/><path d="M115.37 153.41c.01-.01.03.01.03.03l-.03-.03zm-.31.54c-.14.07-.06-.01-.2.16l-6.67 7.53c-.23.22-.22.23-.41.49l-1.7 1.93c-1.03 1.22-2.9 3.11-3.88 4.37-.34.42-.69.49-.83 1.09 1.22.28 1.24 1.33 2.48-.34.32-.44.6-.68.97-1.05 1.95-1.95 3.91-4.13 5.84-6.04l5.29-5.58c.14-.18.33-.34.5-.51.51-.51 1.64-1.53 1.94-2.09.9 0 1.69.3 2.57.3-.13-.64-.27-1.37-.62-1.74-.89-.96-2.54-.88-3.68-.39-.61.27-1.01.71-1.35 1.04l-.25.83z" class="fil1"/><path d="M130.87 169.22h-2.62v2.82h2.62v2.41c2.98 0 2.42.57 2.42-2.41h3.93c.52 0 .3-1.07.3-2.52 0-.23-.07-.3-.3-.3h-3.93v-8.26h-2.42v8.26z" class="fil3"/><path d="M84.33 85.65c2.31.19 5.4.35 7.64-.06-.74-1.52-.8-1.46-.64-3.57.06-.79.24-3.37.1-4.01-1.56.03-4.81.07-6.21-.31.39.51.83.78.9 1.7.05.6-.29 1.66-.43 2.23-.17.7-.36 1.39-.54 2.09-.41 1.57-.24.98-.82 1.93z" class="fil7"/><path d="M88.1 189.45c1.18.2 1.74.45 3.07.16.91-.2 1.84-.67 2.39-1.12 1.16-.93 2.3-2.4 2.69-4.49.04-.36.04-.08-.11-.19l-1.26.03c0 1.23.26 2.13-1.16 2.15-1.47.01-1.17-.89-1.17-2.16l-3.26.02c0 1.29.31 2.15-1.21 2.13-1.38-.01-1.09-.92-1.09-2.16l-2.82-.01c.2 1.83 1.47 4.43 3.12 5.23.24.12.6.27.81.41z" class="fil9"/><path d="M61.93 74.37c-.19.71-.67 1.48-.73 2.22.37.23.51.47.86.74.82.62 1.89 1.53 2.83 2.01l1.99-3.62c.34-.44.93-.9 1.45-1.27l1.66-1.19c-1.43-.63-3.99-2.12-4.98-3.02-.59.03-1.52 1.23-1.85 1.76-.48.75-.79 1.55-1.23 2.37z" style="fill:#ea5e56"/><path d="M130.87 193.99h2.42v-15.61h-2.42z" class="fil3"/><path d="M89.39 166.5c-.21.16-.29.55-.54.77-.36.31-.73.23-1.02.44-.07.06-.06.09-.21.16-.11.05-.18.04-.3.09-.27.12-.21.17-.51.24l-.18.17c-.01.01-.04.03-.06.04-.58.39-1.61.79-1.6 1.79.2.22.3.31.49.53l.51.51c.82-.94 1.9-3.23 4.53-3.25 2.1-.01 3.4 1.59 4.36 2.99.22.33.01.11.32.3.09-.19.14-.35.29-.52.3-.33.23 0 .35-.41-.19-.56-.38-.82-.66-1.26-.39-.59-.57-.42-1.03-.9l-.6-.3c-.34-.05-.21.01-.45-.18-.15-.12-1.3-.42-1.48-1.01 0-2.15.24-3.62 1.09-4.96.42-.67.84-1.08 1.47-1.55.44-.32 1.44-.92 1.98-1.04l-1.11-2.16c-1.05.1-3.05 2.65-3.61 3.98-.83 1.97-.63 3.47-.99 4.75-.28 1.03-.33.68-1.04.78z" style="fill:#733412"/><path d="M68.26 81.19c.28 1.79 1.8 1.9 3.6 2.35.92.23 4.08 1.17 4.79 1.15l.33-1.16c-1.69-.5-3.46-.88-5.18-1.34-.78-.21-2-.29-2.23-1-.18-.53.36-2.17.51-2.77.81-3.12.47-3.28 3.22-2.56 1.68.44 3.65 1.03 5.34 1.34l.27-1.24-7.1-1.81c-1.93.12-2.23 1-2.67 2.73-.23.88-1.04 3.51-.88 4.31z" style="fill:#f6b640"/><path d="M78.64 77.2c1.05.45 3.36.88 4.59 1.21 2.2.57 1.7.79 1.01 3.6-.75 3.02-.54 3.2-2.66 2.69-1.54-.37-3.06-.85-4.6-1.17l-.33 1.16c.3.28 3.21.91 3.86 1.08 1.96.49 2.13.83 3.82-.12.58-.95.41-.36.82-1.93.18-.7.37-1.39.54-2.09.14-.57.48-1.63.43-2.23-.07-.92-.51-1.19-.9-1.7-1-.4-2.01-.65-3.16-.94-1.04-.26-2.09-.57-3.15-.8l-.27 1.24z" style="fill:#cb923b"/><path d="M91.43 78.01c.14.64-.04 3.22-.1 4.01-.16 2.11-.1 2.05.64 3.57l2.19-.39.07-2.67.4-4.86c-.89.23-2.24.31-3.2.34z" style="fill:#983d21"/><path d="M64.89 79.34v.1c.51.11 1.13.59 1.63.88.46.26 1.23.66 1.74.87-.16-.8.65-3.43.88-4.31.44-1.73.74-2.61 2.67-2.73l-1.64-.79-.18-.1-1.66 1.19c-.52.37-1.11.83-1.45 1.27l-1.99 3.62z" class="fil7"/><path d="M85.06 178.85c-.49-.39-.47-.75-.11-1.18l.53.01c.35.41.4.79-.12 1.17h-.3zm-4.1.12c1.3.11 6.02 1.51 6.76 1.38.22-1.92-.5-2.68-1.25-3.67-.34-.18-.24-.26-.68-.44-.97-.39-2-.36-2.91.06-.76.36-2.07 1.54-1.92 2.67z" class="fil9"/><path d="m115.09 153.31-.01-2.62c-1.24 0-3.88-.38-5.46-.4l-5.43-.41c.61.83 3.95 1.8 5.02 2.13.45.14.83.23 1.37.35.83.19 3.83.93 4.51.95z" class="fil3"/><path d="M95.13 178.62c-.09-.64-.07-.55.2-.92 1.03-.17 1.03.89.28 1.19l-.48-.27zm-2.33 1.69 6.87-1.51c-.07-.42-.19-.84-.37-1.17-.22-.44-.47-.63-.66-.95-.4-.18-.05-.02-.34-.27-.15-.13-.23-.16-.46-.24-2.91-1-5.44 1.79-5.04 4.14z" class="fil9"/><path d="M89.39 166.5c.71-.1.76.25 1.04-.78.36-1.28.16-2.78.99-4.75.56-1.33 2.56-3.88 3.61-3.98 0-1.16-1.99.68-2.29.97-2.18 2.18-2.42 5.48-3.35 8.54z" style="fill:#934514"/><path d="M96.25 184a7.452 7.452 0 0 1-2.69 4.49c-.55.45-1.48.92-2.39 1.12-1.33.29-1.89.04-3.07-.16-.39.23 4.86 2.3 7.74-2.61.51-.86.87-1.87 1.02-3.03-.51 0-.37-.1-.61.19z" class="fil16"/><path d="m94.88 183.84-2.33-.01c0 1.27-.3 2.17 1.17 2.16 1.42-.02 1.16-.92 1.16-2.15z" style="fill:#e4e3e3"/><path d="m89.29 183.85-2.3-.03c0 1.24-.29 2.15 1.09 2.16 1.52.02 1.21-.84 1.21-2.13z" style="fill:#e5e4e4"/><path d="M94.13 168.19c.46.48.64.31 1.03.9.28.44.47.7.66 1.26.03-.02.06-.07.07-.05l.17-.15c.75-.65 1.67-.81 2.59-.48-.39-.46-1.09-.92-1.83-1.24-1.17-.51-1.46-.36-2.69-.24zM84.97 170.2c-.01-1 1.02-1.4 1.6-1.79.02-.01.05-.03.06-.04l.18-.17c-1-.28-1.77-.12-2.63.24-.9.36-1.26.73-1.82 1.24 1.18-.41 1.77-.16 2.61.52z" class="fil19"/><path d="M118.09 150.85c-.17.02-.33.06-.52.05-.55-.02-.26-.01-.39-.14-.78.05-1.32.15-1.88.51v1.51c.38-.2.49-.47.95-.71 1.26-.64 2.97-.84 3.9-.04-.58-.71-1.03-.99-2.06-1.18z" class="fil20"/><path d="m92.8 180.31-.02.41 7.33-1.6c.2-.88-.98-2.25-1.47-2.44.19.32.44.51.66.95.18.33.3.75.37 1.17l-6.87 1.51zM80.96 178.97c-.13.13-.14.01-.03.15.95.22 6.75 1.61 7.3 1.54.17-1.57-.53-3.46-1.76-3.98.75.99 1.47 1.75 1.25 3.67-.74.13-5.46-1.27-6.76-1.38z" class="fil16"/><path d="M91.23 181.53c-.29-.35-.72-1.25-.82-1.68-.32.19-.91 1.5-1.04 1.9l1.44.02c.75-.08.26.1.42-.24z" class="fil9"/><path d="M90.41 179.85c.1.43.53 1.33.82 1.68.12.17.11-.25.1.29h-1.75c-.51.03-.19-.12-.37.18.41.23 1.98.08 2.6.08-.05-.31-1.07-2.35-1.31-2.61-.15.22-.15.2-.09.38z" class="fil16"/><path d="M115.09 135.69c-.44-.01-.33-.06-.64-.1-.29-.03-.48.01-.8-.05l-.25.39c.94.19 1.21.74 1.68 1.08l.01-1.32z" class="fil1"/><path d="M111.54 136.44c.13-.06.1-.09.1.05.26.02.24.02.41.1-.08-.43-.18-.91-.51-1.14-.41-.04-1.17-.07-1.8-.07.25.18.59.33.9.5.34.17.57.34.9.56zM112.86 136.79c.25.13.09.04.37.12.04.01.2.05.24.07.16.07.09.06.18.13h1.14c-.23-.49-.99-.92-1.57-1.02-.11.29-.25.4-.36.7zM118.63 135.89l.54 2.52c.28.02.29.04.53.1l-.71-2.69-.36.07zM117.05 137.9l.13.08c.25-.12.19-.13.42-.26.14-.08.38-.15.54-.22-.1-.33-.08-.21-.26-.5-.08-.14-.08-.16-.14-.26l-.26-.27c-.33.17-.36.29-.59.53l.16.9zM119.94 138.61h.56l-.9-2.59-.32-.13z" class="fil20"/><path d="m112.31 136.69.24.05.4-.55c.11-.18.24-.37.35-.6-.52-.1-.76-.1-1.4-.1l.41 1.2z" class="fil1"/><path d="M118.39 135.95c-.35-.08-.34-.03-.58-.16-.01.65.09.88.36 1.32.23.37.43.84.73 1.1l-.51-2.26z" class="fil20"/><path d="M85.06 178.85h.3c.52-.38.47-.76.12-1.17l-.53-.01c-.36.43-.38.79.11 1.18z" class="fil16"/><path d="m95.13 178.62.48.27c.75-.3.75-1.36-.28-1.19-.27.37-.29.28-.2.92z" style="fill:#f5a019"/><path d="m115.34 137.8.03-.3.2.1c.31-.16.2-.19.75-.45l.23-.11c.01-.01.04-.03.07-.04l-.15-.64c-.76.26-1.4.9-1.13 1.44zM117.08 135.78l-.4-.03c-.22 0 .02.77.06.99l.64-.55-.3-.41z" class="fil20"/><path d="m115.32 136.24-.03.64c.37-.21.24-.26.8-.57l.29-.22c-.37-.22-.72-.09-1.06.15z" class="fil22"/><path d="M120.1 151.02c-.33.07-.35-.02-.76-.03.13.13-.04 0 .18.17.35.29.42.15.84.72-.07-.45-.02-.53-.26-.86z" style="fill:#faf9fa"/><path d="M115.93 137.7c.34 0 .69.06.9.2l-.14-.6c-.48.03-.52.13-.76.4z" class="fil22"/><path d="M117.61 138c.23.13.59.2.97.2l-.28-.45c-.39.01-.46-.01-.69.25z" class="fil20"/><path d="M120.78 151.09h-.36l.16.74c.06.16.1.16.16.24l.04-.98z" class="fil22"/><path d="m93.53 167.89-.01-.08c-.01-.18-.24-.1-.44-.1.24.19.11.13.45.18z" style="fill:#fdfafa"/></g></g></svg>